<svg aria-hidden="true" style="position: absolute; width: 0; height: 0; overflow: hidden;" version="1.1" xmlns="http://www.w3.org/2000/svg" xmlns:xlink="http://www.w3.org/1999/xlink">
<defs>
<symbol id="icon-round-raws" viewBox="0 0 32 32">
<path  d="M12.8 8h-6.091c2.177-3.074 5.461-4.8 9.291-4.8 7.069 0 12.8 5.731 12.8 12.8h3.2c0-8.837-7.164-16-16-16-4.487 0-8.44 1.892-11.2 5.233v-5.233h-3.2v11.2h11.2v-3.2zM19.2 24h6.091c-2.177 3.074-5.461 4.8-9.291 4.8-7.069 0-12.8-5.731-12.8-12.8h-3.2c0 8.836 7.163 16 16 16 4.487 0 8.44-1.892 11.2-5.232v5.232h3.2v-11.2h-11.2v3.2z"></path>
</symbol>

<symbol id="icon-gallery-card-heart" viewBox="0 0 38 32">
<path stroke="#dadada" style="stroke: var(--color2, #dadada)" stroke-linejoin="miter" stroke-linecap="butt" stroke-miterlimit="3.8637" stroke-width="4.2667" d="M19.314 6.295c-1.032-0.913-4.988-4.195-8.49-4.162-3.59 0.035-9.13 2.345-8.663 9.192 0.413 6.048 16.878 18.485 16.878 18.485 0.103 0.075 0.21 0.075 0.321 0 0 0 16.465-12.438 16.879-18.485 0.467-6.847-5.073-9.157-8.664-9.192-4.068-0.039-8.746 4.394-8.746 4.394l-3.176 3.185"></path>
</symbol>
</defs>
</svg>
