<svg width="10" height="17" viewBox="0 0 10 17" fill="none" xmlns="http://www.w3.org/2000/svg">
<path d="M0.434315 14.9343C0.121895 15.2467 0.121895 15.7533 0.434315 16.0657C0.746734 16.3781 1.25327 16.3781 1.56569 16.0657L0.434315 14.9343ZM8 8.5L8.56568 9.06568L9.13137 8.5L8.56568 7.93431L8 8.5ZM1.56568 0.934315C1.25327 0.621895 0.746733 0.621895 0.434314 0.934315C0.121895 1.24673 0.121895 1.75327 0.434314 2.06569L1.56568 0.934315ZM1.56569 16.0657L8.56568 9.06568L7.43431 7.93431L0.434315 14.9343L1.56569 16.0657ZM8.56568 7.93431L1.56568 0.934315L0.434314 2.06569L7.43431 9.06568L8.56568 7.93431Z" fill="white"/>
</svg>
