<svg width="31" height="30" viewBox="0 0 31 30" fill="none" xmlns="http://www.w3.org/2000/svg">
<path d="M7.82332 6.72071H3.32825C3.32825 6.72071 1.00203 6.69471 1.00203 9.78602V22.6745C1.00203 22.6745 0.823907 25.0285 3.80781 25.0285H13.857H26.0334" stroke="#CBC7C7" stroke-width="2" stroke-miterlimit="3.8637"/>
<path d="M2.08008 1L29.9222 28.8432" stroke="#CBC7C7" stroke-width="2" stroke-miterlimit="3.8637"/>
<path d="M19.5078 18.4371C18.4557 19.8115 16.7982 20.6979 14.9337 20.6979C11.7542 20.6979 9.17676 18.1204 9.17676 14.9408C9.17676 13.0667 10.0699 11.4018 11.4584 10.3506" stroke="#CBC7C7" stroke-width="2" stroke-miterlimit="3.8637"/>
<path d="M10.6533 3.79585C10.8711 3.48591 11.0415 3.24145 11.1123 3.1351C11.4394 2.64442 12.1012 2.68232 12.1012 2.68232H15.3664H14.5638H17.829C17.829 2.68232 18.4908 2.64442 18.8179 3.1351C19.1117 3.57598 21.1183 6.39594 21.1183 6.39594C21.1183 6.39594 21.335 6.72006 22.1074 6.72006C22.8797 6.72006 26.6024 6.72006 26.6024 6.72006C26.6024 6.72006 28.9287 6.69406 28.9287 9.78536C28.9287 12.8767 28.9287 22.1116 28.9287 22.1116" stroke="#CBC7C7" stroke-width="2" stroke-miterlimit="3.8637"/>
<path d="M24.6886 12.3401C25.4314 12.3401 26.0335 11.738 26.0335 10.9953C26.0335 10.2525 25.4314 9.65039 24.6886 9.65039C23.9459 9.65039 23.3438 10.2525 23.3438 10.9953C23.3438 11.738 23.9459 12.3401 24.6886 12.3401Z" fill="#BBBBBB"/>
</svg>
