<svg width="63" height="62" viewBox="0 0 63 62" fill="none" xmlns="http://www.w3.org/2000/svg">
<path d="M58.4931 43.0244L58.0351 42.8238L57.9645 42.985L58.0104 43.1548L58.4931 43.0244ZM48.1534 55.6154L48.1673 55.1156L48.0025 55.111L47.8672 55.2054L48.1534 55.6154ZM62 56L61.9861 56.4998L62.6581 56.5185L62.4827 55.8695L62 56ZM60.5 31C60.5 35.2057 59.6202 39.2046 58.0351 42.8238L58.9511 43.225C60.5905 39.4817 61.5 35.3464 61.5 31H60.5ZM31 1.5C47.2924 1.5 60.5 14.7076 60.5 31H61.5C61.5 14.1553 47.8447 0.5 31 0.5V1.5ZM1.5 31C1.5 14.7076 14.7076 1.5 31 1.5V0.5C14.1553 0.5 0.5 14.1553 0.5 31H1.5ZM31 60.5C14.7076 60.5 1.5 47.2924 1.5 31H0.5C0.5 47.8447 14.1553 61.5 31 61.5V60.5ZM47.8672 55.2054C43.0871 58.5427 37.2729 60.5 31 60.5V61.5C37.4842 61.5 43.4972 59.476 48.4397 56.0253L47.8672 55.2054ZM48.1396 56.1152L61.9861 56.4998L62.0139 55.5002L48.1673 55.1156L48.1396 56.1152ZM62.4827 55.8695L58.9758 42.8939L58.0104 43.1548L61.5173 56.1305L62.4827 55.8695Z" fill="#BBBBBB"/>
</svg>
