<svg aria-hidden="true" style="position:absolute;width:0;height:0;overflow:hidden" xmlns="http://www.w3.org/2000/svg"><defs><symbol id="icon-round-raws" viewBox="0 0 32 32"><path d="M12.8 8H6.709C8.886 4.926 12.17 3.2 16 3.2c7.069 0 12.8 5.731 12.8 12.8H32c0-8.837-7.164-16-16-16-4.487 0-8.44 1.892-11.2 5.233V0H1.6v11.2h11.2V8zm6.4 16h6.091c-2.177 3.074-5.461 4.8-9.291 4.8-7.069 0-12.8-5.731-12.8-12.8H0c0 8.836 7.163 16 16 16 4.487 0 8.44-1.892 11.2-5.232V32h3.2V20.8H19.2V24z"/></symbol><symbol id="icon-gallery-card-heart" viewBox="0 0 38 32"><path stroke="#dadada" style="stroke:var(--color2, #dadada)" stroke-miterlimit="3.864" stroke-width="4.267" d="M19.314 6.295c-1.032-.913-4.988-4.195-8.49-4.162-3.59.035-9.13 2.345-8.663 9.192.413 6.048 16.878 18.485 16.878 18.485.103.075.21.075.321 0 0 0 16.465-12.438 16.879-18.485.467-6.847-5.073-9.157-8.664-9.192-4.068-.039-8.746 4.394-8.746 4.394l-3.176 3.185"/></symbol></defs></svg>