<svg aria-hidden="true" style="position:absolute;width:0;height:0;overflow:hidden" xmlns="http://www.w3.org/2000/svg"><defs><symbol id="icon-yaco" viewBox="0 0 57 32"><path d="m20.267 3.733 3.738 3.538-6.938-.004v17.166H35.2v-6.564l3.733 3.534V3.732H20.266zm14.769 13.722L24.439 7.423h10.597v10.032zm-3.29 4.468h-11.81V10.378h.835v10.764h10.975v.782zm-9.021 4.797-.436.898-.436-.898h-.366l.637 1.198v.698h.331v-.698l.635-1.198h-.365zm.548 1.895.154-.441h.734l.155.441h.344l-.717-1.896h-.296l-.716 1.896h.342zm.521-1.493.275.786h-.549l.275-.786zm1.737.741a.429.429 0 0 0-.072.241c0 .16.056.29.168.389s.263.148.451.148.349-.051.484-.152l.107.126h.367l-.279-.329a.95.95 0 0 0 .164-.574h-.275a.758.758 0 0 1-.079.348l-.366-.432.129-.094c.091-.066.157-.132.197-.198s.06-.14.06-.219c0-.12-.044-.22-.133-.301s-.201-.122-.339-.122c-.153 0-.274.043-.365.13s-.135.203-.135.352c0 .061.014.124.043.189s.081.144.155.237a1.12 1.12 0 0 0-.283.262zm.855.419a.485.485 0 0 1-.299.107c-.095 0-.17-.027-.227-.082s-.085-.126-.085-.214c0-.102.052-.192.156-.271l.04-.029.414.488zm-.34-.84c-.089-.11-.134-.202-.134-.275 0-.063.018-.116.055-.158s.085-.063.147-.063c.057 0 .105.018.142.053s.056.077.056.126a.235.235 0 0 1-.081.184l-.04.033-.145.099zm3.086 1.03a.689.689 0 0 0 .224-.474h-.328c-.017.135-.059.232-.124.29s-.162.087-.292.087c-.142 0-.249-.054-.323-.161s-.109-.264-.109-.469v-.168c.002-.202.041-.355.117-.46s.188-.158.331-.158c.123 0 .217.03.28.091s.104.158.12.294h.328c-.021-.207-.095-.368-.223-.482s-.296-.171-.505-.171a.718.718 0 0 0-.683.426 1.116 1.116 0 0 0-.095.473v.177c.003.174.035.328.098.46s.151.234.266.306a.748.748 0 0 0 .4.107c.216 0 .389-.056.52-.169zm1.936-.266c.064-.141.096-.304.096-.49v-.105a1.151 1.151 0 0 0-.099-.486.726.726 0 0 0-.687-.432.757.757 0 0 0-.411.113c-.119.075-.211.183-.277.324s-.098.305-.098.49v.107c.001.181.034.342.099.48s.159.246.279.322a.764.764 0 0 0 .411.112c.155 0 .293-.037.411-.112s.212-.183.276-.323zm-.352-1.071c.08.112.12.273.12.483v.099c0 .214-.04.376-.119.487s-.19.167-.336.167c-.144 0-.257-.057-.339-.171s-.121-.275-.121-.483v-.109c.002-.204.043-.362.122-.473s.192-.168.335-.168c.146 0 .258.056.337.168z"/></symbol><symbol id="icon-close-black" viewBox="0 0 32 32"><path d="m26.667 7.303-1.97-1.97-7.808 7.808-7.808-7.808-1.97 1.97 7.808 7.808-7.808 7.808 1.97 1.97 7.808-7.808 7.808 7.808 1.97-1.97-7.808-7.808 7.808-7.808z"/></symbol><symbol id="icon-company_tag_line_here" viewBox="0 0 57 32"><path d="M26.727 3.165h-.073a7.542 7.542 0 0 0-.336-.012h-.243c-.212 0-.428.005-.642.016a.4.4 0 0 0-.049 0c-1.944.11-3.848.596-5.609 1.431l-.231.111V16.52l.54-.183a20.64 20.64 0 0 1 1.5-.445 18.34 18.34 0 0 1 4.317-.574v1.551c-.193.001-.38.007-.568.016h-.045a17.207 17.207 0 0 0-3.322.51 16.858 16.858 0 0 0-3.957 1.542V3.792a15.847 15.847 0 0 1 4.151-1.688c1.278-.33 2.593-.5 3.913-.504h.228c.273.007.538.019.788.038.658.046 1.31.15 1.95.311v1.527a12.05 12.05 0 0 0-1.889-.285l-.039-.003c-.132-.011-.263-.022-.386-.022zm2.688 1.561c.339.026.689.038 1.044.038a16.75 16.75 0 0 0 4.114-.528 16.958 16.958 0 0 0 3.956-1.543v14.875a15.88 15.88 0 0 1-4.153 1.688 15.948 15.948 0 0 1-3.913.503c-1 .008-1.997-.11-2.968-.35V4.438c.229.053.465.102.706.142.394.066.81.115 1.214.145zm7.57.115-.54.182c-.497.167-.997.316-1.5.449a18.23 18.23 0 0 1-4.483.575c-.352 0-.676-.01-.989-.03l-.43-.028v12.148l.37.033c.343.03.696.045 1.052.045a14.364 14.364 0 0 0 3.531-.457c.95-.238 1.874-.57 2.759-.991l.231-.111V4.843zM19.06 24.113a.788.788 0 0 0-.6-.243.895.895 0 0 0-.347.065.778.778 0 0 0-.444.449.893.893 0 0 0-.062.335v2.023a.94.94 0 0 0 .08.415.718.718 0 0 0 .48.415c.098.028.2.042.302.042a.855.855 0 0 0 .838-.851v-.226h-.529v.18a.458.458 0 0 1-.031.18.315.315 0 0 1-.077.114.38.38 0 0 1-.222.077.266.266 0 0 1-.249-.109.479.479 0 0 1-.07-.271v-1.887a.643.643 0 0 1 .065-.302c.027-.043.066-.077.112-.098s.097-.03.147-.024a.28.28 0 0 1 .236.114c.059.078.09.173.088.271v.175h.524v-.206a.953.953 0 0 0-.242-.639zm3.142-.023a.92.92 0 0 0-1.197 0 .82.82 0 0 0-.205.283.959.959 0 0 0-.077.392v1.941a.932.932 0 0 0 .077.397.791.791 0 0 0 .205.271.837.837 0 0 0 .279.171.897.897 0 0 0 .918-.171.849.849 0 0 0 .2-.271.934.934 0 0 0 .077-.397v-1.941a.943.943 0 0 0-.077-.392.867.867 0 0 0-.2-.283zm-.247 2.616a.355.355 0 0 1-.105.28.386.386 0 0 1-.498 0 .352.352 0 0 1-.105-.28v-1.941a.355.355 0 0 1 .105-.28.386.386 0 0 1 .498 0 .352.352 0 0 1 .105.28v1.941zm4.374.867v-3.674h-.509l-.668 1.945h-.009l-.673-1.945h-.503v3.674h.525v-2.235h.009l.514 1.58h.262l.518-1.58h.009v2.235h.525zm2.982-3.416a.727.727 0 0 0-.297-.201 1.168 1.168 0 0 0-.38-.057h-.78v3.674h.523v-1.435h.27a.964.964 0 0 0 .472-.1.759.759 0 0 0 .287-.281.875.875 0 0 0 .12-.32c.021-.138.03-.278.028-.418a2.107 2.107 0 0 0-.051-.525.785.785 0 0 0-.193-.338zm-.27 1.12a.45.45 0 0 1-.049.191.296.296 0 0 1-.135.129.538.538 0 0 1-.247.046h-.239v-1.249h.27a.506.506 0 0 1 .236.046.3.3 0 0 1 .123.136.537.537 0 0 1 .046.205v.244c0 .085.005.174 0 .252h-.005zm2.75-1.378h-.429l-.809 3.674h.523l.154-.789h.714l.154.789h.524l-.83-3.674zm-.483 2.384.258-1.332h.009l.256 1.332h-.524zm3.865-.171h-.009l-.791-2.213h-.503v3.674h.523v-2.209h.011l.8 2.209h.492v-3.674h-.523v2.213zm3.199-2.213-.421 1.461h-.011l-.421-1.461h-.554l.719 2.121v1.553h.524V26.02l.719-2.121h-.554zM17.6 28.61h.252v.708h.171v-.708h.251v-.145h-.675v.145zm2.121-.145-.331.853h.182l.07-.194h.34l.073.194h.186l-.339-.853h-.182zm-.027.516.116-.316.116.316h-.232zm2.124.023h.197v.11a.332.332 0 0 1-.202.072c-.034.002-.069-.004-.1-.019s-.059-.036-.081-.063a.352.352 0 0 1-.063-.222c0-.19.082-.285.246-.285.043-.004.086.007.121.032s.061.062.072.104l.169-.033c-.036-.167-.156-.251-.362-.251a.426.426 0 0 0-.298.11.413.413 0 0 0-.122.328.465.465 0 0 0 .109.32.408.408 0 0 0 .324.125.511.511 0 0 0 .362-.136v-.336h-.37v.144zm2.141-.539h-.173v.853h.598v-.145h-.425v-.708zm1.81 0h-.173v.853h.173v-.853zm1.77.57-.349-.57h-.167v.853h.161v-.557l.343.557h.171v-.853h-.158v.57zm1.601-.092h.425v-.145h-.425v-.187h.457v-.145h-.63v.853h.648v-.145h-.475v-.231zm3.88-.141h-.336v-.336h-.171v.853h.171v-.373h.336v.373h.171v-.853h-.171v.336zm1.609.141h.426v-.145h-.426v-.187h.459v-.145h-.63v.853h.646v-.145h-.475v-.231zm2.183 0c.148-.023.224-.102.224-.237a.203.203 0 0 0-.084-.189.479.479 0 0 0-.25-.05h-.362v.853h.171v-.357h.034a.231.231 0 0 1 .107.019.181.181 0 0 1 .061.062l.186.271h.205L37 29.148a.6.6 0 0 0-.189-.205zm-.172-.118h-.127v-.214h.135a.445.445 0 0 1 .174.02.128.128 0 0 1 .029.04.116.116 0 0 1-.004.097.114.114 0 0 1-.032.037.486.486 0 0 1-.174.02zm1.818.118h.425v-.145h-.425v-.187h.459v-.145h-.631v.853h.648v-.145h-.475v-.231z"/></symbol><symbol id="icon-company" viewBox="0 0 57 32"><path d="M19.417 26.187c.008 0 .017.002.025.005s.015.007.02.013l.116.111a.955.955 0 0 1-.327.211 1.299 1.299 0 0 1-.464.076 1.213 1.213 0 0 1-.436-.071.942.942 0 0 1-.329-.2.878.878 0 0 1-.212-.308 1.02 1.02 0 0 1-.074-.396.91.91 0 0 1 .305-.705 1.06 1.06 0 0 1 .349-.201c.143-.048.296-.072.449-.071.143-.003.285.019.417.064.115.043.221.104.313.178l-.097.119a.085.085 0 0 1-.025.021.066.066 0 0 1-.039.009.086.086 0 0 1-.042-.013l-.052-.032-.073-.04a.818.818 0 0 0-.229-.071 1.11 1.11 0 0 0-.173-.013.952.952 0 0 0-.323.053.683.683 0 0 0-.417.387.81.81 0 0 0-.06.313.795.795 0 0 0 .06.318.68.68 0 0 0 .402.383.867.867 0 0 0 .3.05c.059.001.119-.003.177-.01a.69.69 0 0 0 .384-.163.09.09 0 0 1 .055-.02zm3.359-.558a.974.974 0 0 1-.078.393c-.047.114-.122.218-.219.305s-.214.155-.344.2a1.42 1.42 0 0 1-.884 0 1.027 1.027 0 0 1-.342-.201.904.904 0 0 1-.221-.308 1.022 1.022 0 0 1 0-.787.94.94 0 0 1 .221-.31c.097-.084.214-.15.342-.193.284-.096.6-.096.884 0 .129.046.246.114.343.201a.914.914 0 0 1 .298.699zm-.306 0a.84.84 0 0 0-.055-.316.653.653 0 0 0-.402-.385 1.025 1.025 0 0 0-.643 0 .683.683 0 0 0-.246.149.63.63 0 0 0-.157.236.927.927 0 0 0 0 .632.643.643 0 0 0 .403.384c.207.067.435.067.643 0a.698.698 0 0 0 .246-.148.662.662 0 0 0 .156-.236.82.82 0 0 0 .055-.316zm2.597.331.03.071.033-.071a.68.68 0 0 1 .038-.07l.743-1.174c.015-.02.028-.033.042-.037a.207.207 0 0 1 .061-.006h.22v1.909h-.26v-1.463a.726.726 0 0 1 0-.066l-.747 1.19c-.009.018-.025.033-.044.043s-.041.016-.064.016h-.042c-.023 0-.045-.005-.064-.016s-.034-.026-.044-.044l-.769-1.198v1.533h-.252v-1.905h.22a.207.207 0 0 1 .061.006.087.087 0 0 1 .041.037l.759 1.175a.418.418 0 0 1 .038.068zm2.797-.095v.715h-.291v-1.906h.649c.122-.002.244.012.362.042a.724.724 0 0 1 .256.119.492.492 0 0 1 .145.187.576.576 0 0 1 .049.244.54.54 0 0 1-.211.435.752.752 0 0 1-.257.126 1.25 1.25 0 0 1-.35.044l-.352-.005zm0-.205h.352a.808.808 0 0 0 .225-.029.52.52 0 0 0 .163-.082.358.358 0 0 0 .134-.286c.003-.053-.007-.106-.029-.155s-.057-.094-.102-.13a.624.624 0 0 0-.391-.102h-.352v.786zm3.908.923h-.23a.109.109 0 0 1-.064-.018.123.123 0 0 1-.038-.044l-.198-.461h-.993l-.205.461a.107.107 0 0 1-.101.062h-.23l.872-1.909h.302l.884 1.909zm-1.439-.709h.82l-.346-.777a1.276 1.276 0 0 1-.065-.179l-.034.1a.98.98 0 0 1-.032.081l-.343.776zm2.696-1.192c.017.008.032.02.044.034l1.272 1.439v-1.482h.26v1.909h-.145a.136.136 0 0 1-.06-.011.165.165 0 0 1-.047-.035l-1.271-1.438a.726.726 0 0 1 0 .066v1.419h-.26v-1.909h.154a.15.15 0 0 1 .052.009zm3.719 1.141v.758h-.291v-.758l-.804-1.15h.26a.114.114 0 0 1 .063.016.159.159 0 0 1 .039.043l.503.742a.717.717 0 0 1 .088.169l.038-.082a.745.745 0 0 1 .049-.087l.496-.747a.18.18 0 0 1 .038-.04.098.098 0 0 1 .063-.019h.263l-.806 1.155zM24.923 21.47c.127.014.255.025.384.035 1.962-.763 3.622-2.011 4.772-3.588s1.74-3.415 1.695-5.282l-2.162-1.879c.44 1.988.234 4.043-.594 5.935s-2.245 3.547-4.094 4.779z"/><path d="m24.151 21.383.058.01c1.975-1.228 3.482-2.942 4.323-4.921s.981-4.133.4-6.181l-3.08-2.676c1.246 2.2 1.747 4.661 1.446 7.098s-1.393 4.75-3.147 6.67zm10.445-6.542c-.523 2.052-1.794 3.902-3.624 5.276-.534.404-1.111.763-1.722 1.074 1.49-.38 2.859-1.053 4.003-1.966s2.03-2.042 2.592-3.3l-1.249-1.084z"/><path d="m34.106 14.539-1.778-1.545c-.034 1.762-.61 3.483-1.669 4.986s-2.562 2.731-4.352 3.559h.009c.399 0 .798-.021 1.194-.062 1.673-.593 3.151-1.537 4.303-2.748s1.94-2.65 2.295-4.189zm-9.697-8.053L22.287 4.64c-1.897.637-3.528 1.756-4.68 3.212s-1.772 3.179-1.778 4.946c.007 1.952.763 3.846 2.149 5.383s3.322 2.628 5.501 3.101c1.946-2.06 3.085-4.605 3.252-7.266s-.647-5.299-2.323-7.53zm14.599 7.769c-.008-2.316-1.07-4.535-2.955-6.173s-4.439-2.561-7.105-2.567a11.3 11.3 0 0 0-3.602.582l12.99 11.286a7.647 7.647 0 0 0 .672-3.128z"/></symbol><symbol id="icon-foster_peters" viewBox="0 0 57 32"><path d="M12.878 11.255h-.002c-1.279 0-2.316.921-2.316 2.058v.001c0 1.137 1.037 2.058 2.316 2.058h.002c1.279 0 2.316-.921 2.316-2.058v-.001c0-1.137-1.037-2.058-2.316-2.058zm17.093-.658c-.004-1.579-.711-3.092-1.967-4.208s-2.958-1.745-4.735-1.749c-1.777.003-3.48.631-4.737 1.748s-1.964 2.63-1.968 4.209v8.706s13.405-1.327 13.406-8.704v-.001zM5.867 22.16c.003 1.098.496 2.151 1.369 2.928s2.058 1.215 3.294 1.218c1.236-.003 2.42-.441 3.294-1.218s1.366-1.829 1.37-2.927v-6.057s-9.327.924-9.327 6.056zm4.663 1.085c-.242 0-.478-.064-.678-.183s-.357-.289-.45-.487c-.092-.198-.117-.417-.069-.627s.163-.404.334-.556c.171-.152.388-.255.625-.297s.482-.02.706.062c.223.082.414.221.548.4s.206.388.206.603c.001.143-.031.284-.092.417s-.151.252-.264.353c-.114.101-.248.182-.397.236s-.308.083-.468.083v-.004zm9.426-.598h-.9v.93h-.469v-2.275h1.481v.38h-1.012v.588h.9v.378zm2.253-.156c0 .224-.04.42-.119.589a.893.893 0 0 1-.847.528c-.189 0-.357-.045-.505-.136s-.262-.22-.344-.387a1.344 1.344 0 0 1-.123-.581v-.112c0-.224.04-.421.12-.591a.895.895 0 0 1 .848-.529c.189 0 .358.046.505.137a.888.888 0 0 1 .342.392c.081.17.122.366.122.589v.102zm-.475-.103c0-.238-.043-.42-.128-.544s-.207-.186-.366-.186a.416.416 0 0 0-.364.184c-.085.122-.129.301-.13.538v.111c0 .232.043.412.128.541s.208.192.369.192a.415.415 0 0 0 .363-.184c.084-.124.127-.304.128-.541v-.111zm1.996.592a.237.237 0 0 0-.094-.203 1.203 1.203 0 0 0-.337-.15 2.418 2.418 0 0 1-.386-.156c-.258-.14-.387-.328-.387-.564 0-.123.034-.232.103-.328a.688.688 0 0 1 .298-.227c.13-.054.276-.081.438-.081.163 0 .307.03.434.089a.662.662 0 0 1 .401.614h-.469c0-.104-.033-.185-.098-.242s-.158-.087-.277-.087a.426.426 0 0 0-.267.073.225.225 0 0 0-.095.191c0 .074.037.136.111.186.075.05.185.097.33.141.267.08.461.18.583.298s.183.267.183.444a.55.55 0 0 1-.223.464c-.149.111-.349.167-.602.167-.175 0-.334-.032-.478-.095-.144-.065-.254-.153-.33-.264s-.113-.241-.113-.388h.47c0 .251.15.377.45.377a.442.442 0 0 0 .261-.067.222.222 0 0 0 .094-.191zm2.501-1.298h-.697v1.895h-.469v-1.895h-.687v-.38h1.853v.38zm1.638.909h-.9v.609h1.056v.377H26.5v-2.275h1.522v.38h-1.053v.542h.9v.367zm1.273.153h-.373v.833H28.3v-2.275h.845c.269 0 .476.06.622.18s.219.289.219.508a.697.697 0 0 1-.102.389.689.689 0 0 1-.305.247l.492.93v.022h-.503l-.427-.833zm-.373-.379h.378c.118 0 .209-.03.273-.089a.321.321 0 0 0 .097-.248.343.343 0 0 0-.092-.253c-.06-.061-.154-.092-.28-.092h-.377v.683zm2.84.41v.802h-.469v-2.275h.887c.171 0 .321.031.45.094a.703.703 0 0 1 .405.659.655.655 0 0 1-.23.528c-.152.128-.363.192-.633.192h-.411zm0-.379h.419c.124 0 .218-.029.283-.088.066-.058.098-.142.098-.25 0-.111-.033-.202-.098-.27s-.156-.104-.272-.106h-.43v.714zm2.966.195h-.9v.609h1.056v.377h-1.525v-2.275h1.522v.38h-1.053v.542h.9v.367zm2.175-.909h-.697v1.895h-.469v-1.895h-.688v-.38h1.853v.38zm1.637.909h-.9v.609h1.056v.377h-1.525v-2.275h1.522v.38h-1.053v.542h.9v.367zm1.274.153h-.373v.833h-.469v-2.275h.845c.269 0 .476.06.622.18s.219.289.219.508a.697.697 0 0 1-.102.389.689.689 0 0 1-.305.247l.492.93v.022h-.503l-.427-.833zm-.374-.379h.378c.118 0 .209-.03.273-.089a.321.321 0 0 0 .097-.248.343.343 0 0 0-.092-.253c-.06-.061-.154-.092-.28-.092h-.377v.683zm2.755.615a.237.237 0 0 0-.094-.203 1.203 1.203 0 0 0-.337-.15 2.418 2.418 0 0 1-.386-.156c-.258-.14-.388-.328-.388-.564 0-.123.034-.232.103-.328a.688.688 0 0 1 .298-.227c.13-.054.276-.081.438-.081.163 0 .307.03.434.089a.675.675 0 0 1 .295.248.646.646 0 0 1 .106.366h-.469c0-.104-.033-.185-.098-.242s-.158-.087-.277-.087a.426.426 0 0 0-.267.073.225.225 0 0 0-.095.191c0 .074.037.136.111.186.075.05.185.097.33.141.267.08.461.18.583.298s.183.267.183.444a.548.548 0 0 1-.223.464c-.149.111-.349.167-.602.167-.175 0-.334-.032-.478-.095a.773.773 0 0 1-.33-.264.678.678 0 0 1-.112-.388h.47c0 .251.15.377.45.377a.442.442 0 0 0 .261-.067.222.222 0 0 0 .094-.191z"/></symbol><symbol id="icon-brand" viewBox="0 0 57 32"><path d="M14.27 23.859c.13.147.199.332.196.521.007.123-.017.247-.07.361s-.132.216-.233.297c-.252.175-.565.26-.881.24h-1.549v-3.302h1.517c.299-.018.596.059.84.219.098.075.176.17.227.277s.074.224.068.341a.725.725 0 0 1-.176.505.839.839 0 0 1-.462.258.897.897 0 0 1 .523.282zm-1.816-.499h.648a.653.653 0 0 0 .412-.11c.049-.04.087-.09.111-.146s.034-.116.028-.176c.005-.06-.005-.12-.029-.175s-.061-.106-.108-.147a.665.665 0 0 0-.425-.111h-.638v.866zm1.124 1.267c.052-.041.093-.093.12-.151s.038-.121.034-.184c.004-.064-.008-.127-.035-.186s-.069-.111-.121-.153a.714.714 0 0 0-.44-.119h-.68v.908h.689a.732.732 0 0 0 .435-.114zm3.793.651-.844-1.291h-.317v1.291h-.726v-3.302h1.374c.346-.022.689.078.957.281.192.179.308.415.327.666s-.061.499-.224.7c-.17.178-.401.296-.655.336l.898 1.32h-.789zm-1.161-1.74h.594c.412 0 .618-.167.618-.5a.458.458 0 0 0-.151-.371.687.687 0 0 0-.467-.134h-.601l.007 1.005zm5.129 1.076h-1.446l-.255.665h-.761l1.328-3.265h.823l1.323 3.265h-.761l-.25-.665zm-.194-.5-.529-1.394-.529 1.394h1.057zm5.16 1.164h-.721l-1.616-2.245v2.245h-.719v-3.302h.719l1.616 2.258v-2.258h.721v3.302zm4.112-.79a1.501 1.501 0 0 1-.652.582 2.282 2.282 0 0 1-1.013.208h-1.283v-3.302h1.283c.351-.008.698.061 1.013.203.276.127.503.328.652.576a1.78 1.78 0 0 1 0 1.732zm-.824-.079c.206-.219.319-.499.319-.788s-.113-.569-.319-.788a1.326 1.326 0 0 0-.902-.281h-.5v2.137h.5c.329.019.654-.082.902-.281zm-7.803-20.8s9.301 3.215 9.103 7.867v7.869s-9.294-3.217-9.1-7.869l-.004-7.867zm17.389 13.894a13.494 13.494 0 0 1 5.909-1.994v-2.463c-2.444.862-4.517 2.426-5.909 4.457z"/><path d="M38.124 18.245c1.438-2.651 3.93-4.696 6.964-5.715V5.432s-13.245 4.58-12.965 11.205V27.84s.59-.205 1.519-.589c0-.358 0-.719.042-1.082.274-3.076 1.871-5.926 4.44-7.924z"/><path d="M36.864 22.407c.07-.777.225-1.546.463-2.294-1.599 1.725-2.568 3.866-2.77 6.122-.019.213-.03.426-.035.645a40.466 40.466 0 0 0 2.548-1.229 10.624 10.624 0 0 1-.206-3.244zm.527.04a10.17 10.17 0 0 0 .164 2.938c3.619-1.983 7.685-5.046 7.528-8.748v-.323c-2.585.265-5.004 1.3-6.885 2.946a10.29 10.29 0 0 0-.807 3.188z"/></symbol><symbol id="icon-company_tag_line" viewBox="0 0 57 32"><path d="M28.493 14.618a1.58 1.58 0 0 1-.323-1.061v-1.538c0-.471.107-.83.321-1.075s.581-.367 1.102-.366c.489 0 .836.104 1.042.313.224.266.333.592.308.92v.361h-.875v-.366c.003-.12-.005-.24-.025-.358a.352.352 0 0 0-.125-.213.505.505 0 0 0-.317-.083.533.533 0 0 0-.333.088.412.412 0 0 0-.145.235 1.74 1.74 0 0 0-.034.38v1.866c-.014.18.025.36.112.524.044.055.104.099.175.127s.149.038.226.029a.478.478 0 0 0 .31-.084.375.375 0 0 0 .13-.227c.02-.124.03-.249.027-.374v-.379h.875v.346c.025.342-.082.682-.303.967-.201.228-.544.343-1.047.343s-.884-.122-1.1-.375zm3.644.015c-.221-.239-.332-.588-.332-1.05v-1.617c0-.457.11-.802.332-1.037s.591-.351 1.109-.35c.515 0 .882.117 1.103.35.221.235.333.58.333 1.037v1.617c0 .457-.112.807-.337 1.048s-.591.361-1.1.361c-.509 0-.886-.122-1.109-.36zm1.517-.388a.906.906 0 0 0 .105-.479v-1.98a.88.88 0 0 0-.103-.469c-.044-.057-.106-.101-.179-.129s-.152-.037-.231-.027c-.079-.009-.159 0-.231.028s-.135.072-.18.129a.853.853 0 0 0-.105.469v1.99a.888.888 0 0 0 .105.479c.051.05.114.091.185.119a.612.612 0 0 0 .635-.119v-.009zm2.081-3.619h.942l.708 2.984.725-2.984h.917l.092 4.308h-.678l-.072-2.994-.699 2.994h-.544l-.725-3.005-.067 3.005h-.685l.085-4.308zm4.441 0h1.468c.846 0 1.268.408 1.268 1.223 0 .781-.445 1.171-1.335 1.17h-.5v1.915h-.906l.005-4.308zm1.254 1.841a.7.7 0 0 0 .498-.136.693.693 0 0 0 .13-.486 1.327 1.327 0 0 0-.044-.391c-.013-.043-.036-.083-.067-.118s-.07-.065-.114-.087a.94.94 0 0 0-.404-.069h-.352v1.287h.352zm2.788-1.841h.973l.998 4.308h-.844l-.197-.993h-.868l-.203.993h-.857l.998-4.308zm.832 2.815-.339-1.808-.339 1.808h.678zm1.946-2.815h.634l1.214 2.457v-2.457h.752v4.308h-.603l-1.221-2.565v2.565h-.777l.002-4.308zm4.361 2.665-1.009-2.659h.85l.616 1.708.578-1.708h.832l-.997 2.659v1.642h-.87v-1.642zm-21.465 3.526v.225h-.739v1.75h-.31v-1.75H28.1v-.225h1.792zm2.317 1.976h-.239a.105.105 0 0 1-.067-.019.102.102 0 0 1-.04-.045l-.214-.469h-1.026l-.214.469a.119.119 0 0 1-.033.053.112.112 0 0 1-.067.019h-.239l.906-1.976h.315l.917 1.968zm-1.5-.734h.855l-.362-.804a1.426 1.426 0 0 1-.067-.186 4.03 4.03 0 0 0-.034.105l-.033.083-.359.802zm3.062.54a1.018 1.018 0 0 0 .315-.023.961.961 0 0 0 .13-.036c.04-.014.08-.031.121-.048v-.444h-.362c-.009 0-.018-.001-.026-.003s-.016-.007-.023-.012c-.006-.004-.011-.01-.014-.016s-.005-.013-.004-.02v-.152h.703v.757a1.407 1.407 0 0 1-.609.202 2.591 2.591 0 0 1-.264.012 1.41 1.41 0 0 1-.457-.073 1.104 1.104 0 0 1-.362-.206.956.956 0 0 1-.234-.313.99.99 0 0 1-.083-.41.907.907 0 0 1 .316-.726c.103-.089.227-.159.362-.205.155-.05.32-.075.486-.074.084 0 .169.006.252.017a1.21 1.21 0 0 1 .397.128c.056.031.108.065.158.103l-.087.122c-.007.011-.017.021-.029.027s-.027.01-.041.01a.118.118 0 0 1-.056-.016 1.344 1.344 0 0 1-.089-.047.727.727 0 0 0-.121-.053 1.171 1.171 0 0 0-.167-.044 1.362 1.362 0 0 0-.23-.017 1.06 1.06 0 0 0-.35.055.704.704 0 0 0-.435.402.924.924 0 0 0 0 .659.756.756 0 0 0 .446.405c.115.034.237.047.359.039zm2.888-.032h.989v.225h-1.292v-1.976h.31l-.007 1.75zm2.019.225h-.31v-1.976h.31v1.976zm1.152-1.966a.151.151 0 0 1 .047.036l1.324 1.489a.41.41 0 0 1 0-.07v-1.472h.27v1.984h-.156a.14.14 0 0 1-.067-.011.184.184 0 0 1-.049-.038l-1.323-1.488v1.536h-.259v-1.976h.161c.017 0 .035.003.051.009zm3.923-.009v.217h-1.098v.652h.89v.21h-.89v.674h1.098v.217h-1.417v-1.971h1.417zM11.286 4.616l13.757 3.372v11.818l-13.757-3.371V4.616zm-.882-1.007V17.01l15.52 3.806V7.417L10.404 3.61z"/><path d="M18.722 27.036 3.2 23.227V9.828l15.522 3.807v13.401z"/><path d="m10.661 4.465 13.578 3.33-5.774 4.987L4.885 9.45l5.776-4.985zm-.257-.856L3.2 9.828l15.522 3.807 7.202-6.219-15.52-3.807zm9.191 22.673 6.329-5.465-6.329-1.553v7.018z"/></symbol><symbol id="icon-smartphone" viewBox="0 0 20 32"><path d="M17 0H3C1.346 0 0 1.346 0 3v26c0 1.654 1.346 3 3 3h14c1.654 0 3-1.346 3-3V3c0-1.654-1.346-3-3-3zM3 2h14a1 1 0 0 1 1 1v21H2V3a1 1 0 0 1 1-1zm14 28H3a1 1 0 0 1-1-1v-3h16v3a1 1 0 0 1-1 1z"/><path d="M4.707 27.478c.391.365.391.956 0 1.321s-1.024.365-1.414 0c-.391-.365-.391-.956 0-1.321s1.024-.365 1.414 0z"/></symbol><symbol id="icon-envelope" viewBox="0 0 43 32"><path d="M38.667 0H4C1.794 0 0 1.794 0 4v24c0 2.206 1.794 4 4 4h34.667c2.206 0 4-1.794 4-4V4c0-2.206-1.794-4-4-4zm0 2.667c.181 0 .353.038.511.103L21.334 18.236 3.49 2.77a1.32 1.32 0 0 1 .511-.103h34.667zm0 26.666H4A1.334 1.334 0 0 1 2.667 28V5.587L20.46 21.008a1.335 1.335 0 0 0 1.748 0L40.001 5.587V28c0 .736-.598 1.333-1.333 1.333z"/></symbol><symbol id="icon-antenna" viewBox="0 0 32 32"><path fill="var(--color4, #212121)" d="m30.773 22.098-8.443-8.505.937-4.616c.225.09.485.144.758.146h.033a2.16 2.16 0 1 0-2.029-1.42l-.005-.015-4.96.606L8.973.161a.53.53 0 0 0-.376-.16.536.536 0 0 0-.373.155L6.712 1.66a.535.535 0 0 0 0 .754l.814.825C6.383 5.301 5.71 7.761 5.71 10.378c0 4.106 1.656 7.824 4.336 10.525l-.001-.001a.49.49 0 0 0 .146.097 2.986 2.986 0 0 0-.052.546v6.188h-6.4a2.669 2.669 0 0 0-2.667 2.666v1.067c0 .295.239.534.534.534H26.14a.534.534 0 0 0 .533-.534v-1.067a2.67 2.67 0 0 0-2.666-2.666h-6.4v-2.742a14.784 14.784 0 0 0 10.166-1.502l-.077.039.818.823a.534.534 0 0 0 .376.16.536.536 0 0 0 .373-.155l1.512-1.504a.535.535 0 0 0 0-.754zM23.28 6.233a1.067 1.067 0 1 1 .752 1.822h-.004a1.066 1.066 0 0 1-.747-1.822h-.002zm-1.256 3.504-.598 2.946-1.175-1.183 1.774-1.763zm-.605-.902-1.92 1.909-1.486-1.493 3.406-.416zM24.004 28.8a1.6 1.6 0 0 1 1.6 1.6v.534H2.138V30.4a1.6 1.6 0 0 1 1.6-1.6h20.267zm-7.466-2.134v1.067h-5.334v-1.067h5.334zM11.204 25.6v-4.053c0-1.294 1.196-2.346 2.667-2.346s2.667 1.053 2.667 2.346V25.6h-5.334zm6.4-1.696v-2.357c0-1.882-1.675-3.413-3.733-3.413h-.058c-1.353 0-2.54.707-3.213 1.771l-.009.016a13.817 13.817 0 0 1-3.812-9.55c0-2.314.567-4.496 1.569-6.414l-.036.077 18.602 18.709c-1.823.947-3.979 1.502-6.266 1.502-1.079 0-2.128-.124-3.136-.357l.093.018zm11.289-.684L7.836 2.039l.754-.752 7.935 7.98c.004 0 .006.007.01.01l13.114 13.191-.757.752z"/><path fill="var(--color2, #2196f3)" d="M13.876 20.267h-.007a1.6 1.6 0 0 0-.003 3.2h.007a1.6 1.6 0 0 0 .002-3.2zm.373 1.978a.534.534 0 1 1-.378-.912.533.533 0 0 1 .374.911h.005z"/></symbol><symbol id="icon-astronaut" viewBox="0 0 32 32"><path fill="var(--color2, #2196f3)" d="M31.974 4.524a.535.535 0 0 0-.427-.362h-.003l-1.911-.278-.855-1.731c-.179-.365-.777-.365-.956 0l-.855 1.731-1.911.278a.534.534 0 0 0-.296.91l1.383 1.348-.326 1.903a.532.532 0 0 0 .774.562l1.709-.899 1.709.899a.534.534 0 0 0 .773-.565v.003l-.326-1.903 1.383-1.348a.535.535 0 0 0 .134-.55l.001.004zm-2.463 1.327a.53.53 0 0 0-.153.472l.191 1.114-1-.526a.525.525 0 0 0-.501.001l.003-.001-1 .526.191-1.114a.53.53 0 0 0-.152-.472l-.811-.79 1.119-.162a.532.532 0 0 0 .402-.292l.5-1.013.5 1.013a.532.532 0 0 0 .402.292l1.119.162-.809.79zm-3.377 14.671h-1.067v1.067h1.067v-1.067zm0 2.134h-1.067v1.066h1.067v-1.066zm1.066-1.067h-1.067v1.067H27.2v-1.067zm-2.133 0H24v1.067h1.067v-1.067zm-2.667 4.8h-1.067v1.067H22.4v-1.067zm0 2.134h-1.067v1.067H22.4v-1.067zm1.067-1.067H22.4v1.067h1.067v-1.067zm-2.133 0h-1.067v1.067h1.067v-1.067zM16 24.256h-1.066v1.067H16v-1.067zm0 2.133h-1.066v1.067H16v-1.067zm1.067-1.067H16v1.067h1.067v-1.067zm-2.133 0h-1.067v1.067h1.067v-1.067zm-9.067-19.2H4.801v1.066h1.066V6.122zm0 2.134H4.801v1.066h1.066V8.256zm1.066-1.067H5.866v1.067h1.066V7.189zm-2.133 0H3.733v1.067H4.8V7.189z"/><path fill="var(--color4, #212121)" d="M24.715 14.16a1.774 1.774 0 0 0-1.179-.703l-.009-.001a1.769 1.769 0 0 0-1.344.355l.004-.003-1.253.96-1.898 1.417-1.358-.541c2.421-1.086 4.113-3.508 4.113-6.32 0-3.823-3.122-6.934-6.961-6.934S7.869 5.5 7.869 9.324c0 1.386.415 2.674 1.12 3.759l-2.768-.024c-.009 0-.016.005-.023.005a.511.511 0 0 0-.159.033l.004-.001c-.013.005-.026.007-.038.013-.006.003-.013.003-.019.006l-3.233 1.596-.001.001-1.893.91a.5.5 0 0 0-.065.036l.001-.001a1.782 1.782 0 0 0-.594 2.306l-.005-.01c.22.424.592.742 1.043.885l.013.003a1.772 1.772 0 0 0 1.388-.133l-.009.005 1.388-.738 2.264-1.169 1.357-.008-5.442 5.415-.001.001-1.339 1.333a1.643 1.643 0 0 0-.491 1.173v.005a1.668 1.668 0 0 0 1.667 1.664h.002a1.67 1.67 0 0 0 1.18-.485l1.314-1.309 1.741-1.3.901.897L4.07 27.28a1.643 1.643 0 0 0-.491 1.173v.004a1.662 1.662 0 0 0 1.666 1.664h.003a1.67 1.67 0 0 0 1.18-.485l4.488-4.472c.007-.006.016-.009.022-.016l5.166-5.658 3.471.494a.474.474 0 0 0 .262-.032c.017-.006.032-.015.049-.023.019-.01.039-.015.058-.027l3.213-2.133c.012-.008.018-.021.029-.03.013-.01.029-.014.041-.026l1.271-1.191c.348-.326.564-.787.564-1.3 0-.4-.132-.769-.355-1.066l.003.005zM2.13 17.77a.706.706 0 0 1-.564.05l.005.001a.717.717 0 0 1-.215-1.258l.002-.001 1.314-.632.316.924.133.389-.992.527zm3.497-1.828-1.548.8-.255-.746-.184-.537 2.027-1.001-.04 1.484zm15.1-6.62c0 .918-.219 1.785-.599 2.56l-4.181-1.899a1.865 1.865 0 0 0-.782-1.384l-.006-.004 1.464-4.861c2.377.757 4.104 2.975 4.104 5.588zm-11.789 0c0-3.235 2.644-5.867 5.894-5.867.253 0 .5.022.745.053l-1.432 4.753c-.019 0-.037-.006-.057-.006h-.001a1.872 1.872 0 0 0-1.872 1.867 1.873 1.873 0 0 0 1.872 1.867h.001c.695 0 1.295-.383 1.618-.944l3.863 1.755a5.891 5.891 0 0 1-4.737 2.39c-3.25 0-5.894-2.632-5.894-5.867zm5.957.8c0 .441-.362.8-.806.8h-.001a.804.804 0 0 1-.804-.8c0-.441.361-.8.806-.8s.806.359.806.8zM2.464 25.146a.606.606 0 0 1-.855.001.591.591 0 0 1 0-.844l.962-.959.852.848-.959.954zm3.214 3.734a.606.606 0 0 1-.855.001.591.591 0 0 1 0-.844l.963-.959.852.848-.96.955zm3.482-3.469-.001.001-1.765 1.76-.852-.848 1.765-1.757a.527.527 0 0 0 .09-.136c.007-.014.02-.026.026-.04.016-.041.019-.085.026-.128.003-.025.014-.048.014-.073 0-.035-.013-.07-.02-.105-.006-.032-.006-.064-.019-.096a.536.536 0 0 0-.092-.138c-.01-.012-.014-.026-.025-.038h-.001l-.001-.002-1.607-1.6c-.017-.017-.039-.024-.058-.038a.491.491 0 0 0-.084-.056l-.003-.001a.527.527 0 0 0-.09-.031l-.003-.001a.502.502 0 0 0-.101-.02h-.025a.603.603 0 0 0-.075.005h.003c-.036.005-.069.009-.104.021s-.064.027-.094.045c-.02.011-.043.015-.061.029l-1.774 1.324-.901-.897 2.399-2.386 4.36 4.289-.928.919zm6.819-7.017c-.016-.002-.03.004-.046.003l-.027-.001a.562.562 0 0 0-.092.008h.003a.484.484 0 0 0-.187.07l.002-.001a.492.492 0 0 0-.083.061c-.013.011-.028.016-.04.029l-4.698 5.146-4.328-4.256 2.833-2.818a.535.535 0 0 0-.378-.911h-.002l-2.219.013.028-1.607 3.104.027a6.928 6.928 0 0 0 4.978 2.101h.003c.438 0 .864-.046 1.28-.122.04.032.08.064.129.085l2.41.96.152.758.178.886-3.003-.427zm4.041.178-.313-1.558 1.446-1.08.946 1.257-2.08 1.381zm3.753-2.831-.837.785-.931-1.236.831-.637a.735.735 0 0 1 .543-.143.718.718 0 0 1 .621.71.71.71 0 0 1-.226.521z"/><path fill="var(--color4, #212121)" d="m13.602 18.544-2.143-2.134a.53.53 0 0 0-.752 0l-2.143 2.133a.535.535 0 0 0 0 .756l2.142 2.134a.53.53 0 0 0 .752 0l2.143-2.134a.532.532 0 0 0 0-.756zm-2.519 1.759-1.387-1.381 1.386-1.381 1.387 1.381-1.387 1.381zm6.081-15.232-.258 1.036c.071.018 1.738.452 1.738 2.149h1.067c0-2.017-1.666-2.965-2.547-3.184zm2.547 4.251h-1.067v1.066h1.067V9.322z"/></symbol><symbol id="icon-clock" viewBox="0 0 32 32"><path fill="var(--color4, #212121)" d="M31.296 15.301C31.295 6.849 24.441-.002 15.988 0S.685 6.855.687 15.308c.002 6.788 4.422 12.543 10.541 14.545l.108.031a.667.667 0 0 0 .529-.065.636.636 0 0 0 .283-.357l3.865-12.25a1.913 1.913 0 1 0-.852-3.63l.011-.005-5.106-5.107a.638.638 0 0 0-.902.902l5.103 5.109a1.847 1.847 0 0 0-.191.826c0 .602.283 1.137.723 1.48l.004.003-3.682 11.673C3.843 25.782.117 17.709 2.797 10.431S13.551-.573 20.829 2.108c7.278 2.681 11.004 10.754 8.323 18.032-1.345 3.581-4.003 6.406-7.374 7.938l-.088.036-.398-1.874a.639.639 0 0 0-1.05-.343l.001-.001-3.837 3.426a.637.637 0 0 0 .227 1.083l.005.001 4.899 1.563a.637.637 0 0 0 .818-.744l.001.004-.391-1.839c5.528-2.374 9.329-7.772 9.329-14.057v-.034.002zm-15.304-.637a.638.638 0 0 1 0 1.276.638.638 0 0 1 0-1.276zm2.1 14.864 2.184-1.948.603 2.84-2.787-.892z"/><path fill="var(--color2, #2196f3)" d="M15.354 3.185V4.46a.638.638 0 0 0 1.276 0V3.185a.638.638 0 1 0-1.276 0zM3.876 14.664a.638.638 0 0 0 0 1.276h1.275a.638.638 0 0 0 0-1.276H3.876zm24.232 1.275a.638.638 0 0 0 0-1.276h-1.275a.638.638 0 0 0 0 1.276h1.275z"/></symbol><symbol id="icon-diagram" viewBox="0 0 32 32"><path fill="var(--color2, #2196f3)" d="M14.926 14.965h1.066v4.798h-1.066v-4.798zm4.264 2.132h1.066v2.665H19.19v-2.665zm-8.529 1.599h1.066v1.066h-1.066v-1.066zm-3.198-.533h1.066v1.599H7.463v-1.599z"/><path fill="var(--color4, #212121)" d="M1.599 28.291h25.586a1.6 1.6 0 0 0 1.599-1.599V24.56a1.6 1.6 0 0 0-1.599-1.599h-.533V9.667l3.028-2.868a1.608 1.608 0 1 0-.742-.752l-.004-.01-2.281 2.162v-1.23a1.6 1.6 0 0 0-1.599-1.599H3.731a1.6 1.6 0 0 0-1.599 1.599v15.992h-.533A1.6 1.6 0 0 0 0 24.56v2.132a1.6 1.6 0 0 0 1.599 1.599zM30.384 4.837a.533.533 0 0 1 0 1.066.533.533 0 0 1 0-1.066zM3.198 6.969c0-.294.239-.533.533-.533h21.323c.294 0 .533.239.533.533v2.239l-1.066 1.013V8.036a.534.534 0 0 0-.534-.534H4.798a.534.534 0 0 0-.534.533v13.327c0 .294.239.533.534.533h19.189a.534.534 0 0 0 .534-.533v-9.675l1.066-1.01V22.96H3.198V6.969zm4.798 6.93h-.005a1.6 1.6 0 1 0 1.112 2.748l1.853.93a.535.535 0 0 0 .636-.122l3.939-4.432 3.872 2.902a.534.534 0 0 0 .686-.039l3.365-3.188v8.131H5.331V8.568h18.123v2.661l-3.771 3.572-3.904-2.927a.534.534 0 0 0-.718.071v.001l-3.993 4.493-1.493-.746c.011-.064.017-.128.02-.193a1.6 1.6 0 0 0-1.599-1.599zm.533 1.599a.533.533 0 0 1-1.066 0 .533.533 0 0 1 1.066 0zm3.198 8.528h5.33v.533a.533.533 0 0 1-.533.533h-4.265a.533.533 0 0 1-.533-.533v-.533zm-10.66.534c0-.294.238-.533.533-.533h9.062v.533a1.6 1.6 0 0 0 1.599 1.599h4.265a1.6 1.6 0 0 0 1.599-1.599v-.533h9.062c.294 0 .533.239.533.533v2.132a.533.533 0 0 1-.533.533H1.601a.533.533 0 0 1-.533-.533V24.56z"/></symbol><symbol id="icon-facebook" viewBox="0 0 32 32"><path d="M21.328 5.312h2.923V.224A36.478 36.478 0 0 0 20.144 0h-.157.008c-4.213 0-7.099 2.65-7.099 7.52V12H8.25v5.688h4.646V32h5.699V17.69h4.459l.709-5.688h-5.17V8.08c0-1.643.443-2.768 2.734-2.768z"/></symbol><symbol id="icon-instagram" viewBox="0 0 32 32"><path d="M31.968 9.408c-.074-1.701-.349-2.869-.742-3.882a7.839 7.839 0 0 0-1.85-2.837l-.001-.001A7.906 7.906 0 0 0 26.597.861l-.054-.018C25.524.449 24.362.176 22.661.101 20.949.019 20.405 0 16.059 0c-4.344 0-4.888.019-6.595.094-1.699.074-2.869.349-3.88.742a7.847 7.847 0 0 0-2.839 1.85l-.001.001A7.9 7.9 0 0 0 .919 5.465l-.018.054C.506 6.538.232 7.7.157 9.401c-.082 1.712-.101 2.256-.101 6.602 0 4.344.019 4.888.094 6.595.075 1.701.35 2.869.744 3.882a7.915 7.915 0 0 0 1.849 2.837l.001.001c.8.813 1.77 1.443 2.832 1.843 1.019.395 2.182.67 3.882.744 1.707.075 2.251.094 6.595.094 4.346 0 4.89-.019 6.595-.094 1.701-.074 2.869-.349 3.882-.742a8.237 8.237 0 0 0 4.664-4.628l.019-.055c.394-1.019.669-2.182.744-3.882.075-1.707.093-2.251.093-6.595s-.006-4.888-.08-6.595zm-2.88 13.066c-.07 1.563-.333 2.406-.55 2.97a5.341 5.341 0 0 1-3.004 3.024l-.036.012c-.56.219-1.411.482-2.968.55-1.688.075-2.194.094-6.464.094-4.269 0-4.782-.019-6.464-.094-1.563-.069-2.406-.331-2.97-.55a4.953 4.953 0 0 1-1.836-1.192l-.001-.001a4.978 4.978 0 0 1-1.184-1.803L3.6 25.45c-.218-.563-.48-1.413-.549-2.97-.075-1.688-.094-2.195-.094-6.464 0-4.27.019-4.784.094-6.464.069-1.563.331-2.406.549-2.97a4.897 4.897 0 0 1 1.198-1.837l.002-.002a4.972 4.972 0 0 1 1.806-1.182l.034-.011c.56-.219 1.411-.48 2.968-.55 1.688-.074 2.195-.093 6.464-.093 4.275 0 4.782.019 6.464.093 1.563.069 2.406.331 2.97.55a4.91 4.91 0 0 1 1.837 1.194c.531.52.938 1.144 1.195 1.84.218.56.48 1.411.549 2.968.075 1.688.094 2.194.094 6.464 0 4.269-.019 4.768-.094 6.458z"/><path d="M16.059 7.782a8.223 8.223 0 0 0-8.219 8.221v.002a8.222 8.222 0 1 0 16.444 0 8.222 8.222 0 0 0-8.222-8.222h-.002zm0 13.552a5.333 5.333 0 0 1 .001-10.666h.001a5.334 5.334 0 1 1 0 10.668zM26.525 7.458a1.92 1.92 0 0 1-3.84 0 1.92 1.92 0 0 1 3.84 0z"/></symbol><symbol id="icon-linkedin" viewBox="0 0 32 32"><path d="M31.992 32H32V20.262c0-5.741-1.237-10.163-7.947-10.163-3.227 0-5.392 1.77-6.277 3.45h-.093v-2.914h-6.365v21.363h6.627V21.42c0-2.786.528-5.48 3.978-5.48 3.398 0 3.448 3.179 3.448 5.658V32h6.621zM.528 10.635h6.635V32H.528V10.635zM3.843 0A3.843 3.843 0 0 0 0 3.843c0 2.12 1.722 3.878 3.843 3.878 2.12 0 3.842-1.757 3.842-3.878S5.965.002 3.844 0z"/></symbol><symbol id="icon-twitter" viewBox="0 0 32 32"><path d="M32 6.078c-1.1.493-2.376.857-3.713 1.028l-.068.007a6.556 6.556 0 0 0 2.873-3.579l.013-.046a12.88 12.88 0 0 1-4.076 1.573l-.084.014A6.558 6.558 0 0 0 15.6 9.557v.004c0 .52.043 1.021.152 1.496-5.454-.266-10.28-2.88-13.522-6.861a6.524 6.524 0 0 0-.902 3.313v.001a6.57 6.57 0 0 0 2.914 5.451 6.453 6.453 0 0 1-2.994-.823l.033.017v.072a6.592 6.592 0 0 0 5.213 6.44l.043.008a6.403 6.403 0 0 1-1.662.215h-.061.003c-.419 0-.843-.024-1.242-.112.85 2.598 3.261 4.509 6.13 4.57a13.093 13.093 0 0 1-8.122 2.8H1.57h.001-.062c-.531 0-1.055-.034-1.569-.099l.061.006c2.826 1.846 6.287 2.944 10.004 2.944h.063-.003c12.072 0 18.672-10 18.672-18.669 0-.288-.01-.57-.024-.848a13.203 13.203 0 0 0 3.258-3.355l.03-.047z"/></symbol><symbol id="icon-mail-modal" viewBox="0 0 32 32"><path d="M26.667 5.333H5.334A2.663 2.663 0 0 0 2.681 8l-.013 16c0 1.467 1.2 2.667 2.667 2.667h21.333c1.467 0 2.667-1.2 2.667-2.667V8c0-1.467-1.2-2.667-2.667-2.667zM26.133 11l-9.427 5.893a1.346 1.346 0 0 1-1.413 0L5.866 11a1.132 1.132 0 1 1 1.2-1.92l8.933 5.587 8.933-5.587a1.132 1.132 0 1 1 1.2 1.92z"/></symbol><symbol id="icon-phone-modal" viewBox="0 0 32 32"><path d="m24.882 19.773-3.268-.373a2.561 2.561 0 0 0-2.11.733L17.137 22.5a19.357 19.357 0 0 1-8.478-8.478l2.38-2.38a2.561 2.561 0 0 0 .733-2.11l-.373-3.242a2.575 2.575 0 0 0-2.56-2.277H6.613c-1.454 0-2.663 1.209-2.573 2.663.682 10.987 9.469 19.761 20.443 20.443 1.454.09 2.663-1.119 2.663-2.573V22.32a2.55 2.55 0 0 0-2.264-2.547z"/></symbol><symbol id="icon-human-modal" viewBox="0 0 32 32"><path d="M16 16c2.947 0 5.333-2.387 5.333-5.333S18.946 5.334 16 5.334c-2.947 0-5.333 2.387-5.333 5.333S13.054 16 16 16zm0 2.667c-3.56 0-10.667 1.787-10.667 5.333v1.333c0 .733.6 1.333 1.333 1.333h18.667c.733 0 1.333-.6 1.333-1.333V24c0-3.547-7.107-5.333-10.667-5.333z"/></symbol><symbol id="icon-send" viewBox="0 0 32 32"><path fill="#fff" style="fill:var(--color1, #fff)" d="M32 0 0 18l10.227 3.788L26 7 14.002 23.186l.01.004-.012-.004V32l5.735-6.691L27 28l5-28z"/></symbol><symbol id="icon-check" viewBox="0 0 42 32"><path fill="#fff" style="fill:var(--color1, #fff);stroke:var(--color1, #fff)" stroke-width=".64" d="m6.263 15.205-.22-.21-3.307 3.132 11.651 11.114L38.864 5.89l-3.285-3.134-21.192 20.197-8.124-7.75z"/></symbol><symbol id="icon-menu_burger" viewBox="0 0 48 32"><path d="M0 5.333V0h48v5.333H0zm0 13.334h48v-5.333H0v5.333zM0 32h48v-5.333H0V32z"/></symbol><symbol id="icon-menu_burger_close" viewBox="0 0 32 32"><path d="M31.439 3.166 28.273 0 15.72 12.553 3.167 0 .001 3.166l12.553 12.553L.001 28.272l3.166 3.166L15.72 18.885l12.553 12.553 3.166-3.166-12.553-12.553L31.439 3.166z"/></symbol><symbol id="icon-ordering-arrow" viewBox="0 0 55 32"><path fill="none" stroke="#b8b8b8" style="stroke:var(--color1, #b8b8b8)" stroke-width="6.909" d="m2.909 2.909 24.727 24.727L52.363 2.909"/></symbol><symbol id="icon-circle-black" viewBox="0 0 32 32"><path style="fill:var(--color2, #000000)" d="M16 0C7.163 0 0 7.163 0 16s7.163 16 16 16 16-7.163 16-16S24.837 0 16 0zm0 28C9.373 28 4 22.627 4 16S9.373 4 16 4s12 5.373 12 12-5.373 12-12 12z"/></symbol><symbol id="icon-circle-white" viewBox="0 0 32 32"><path fill="#e2dfdf" style="fill:var(--color3, #e2dfdf)" d="M16 0C7.163 0 0 7.163 0 16s7.163 16 16 16 16-7.163 16-16S24.837 0 16 0zm0 28C9.373 28 4 22.627 4 16S9.373 4 16 4s12 5.373 12 12-5.373 12-12 12z"/></symbol><symbol id="icon-circle-red" viewBox="0 0 32 32"><path fill="#f2404a" style="fill:var(--color2, #f2404a)" d="M16 0C7.163 0 0 7.163 0 16s7.163 16 16 16 16-7.163 16-16S24.837 0 16 0zm0 28C9.373 28 4 22.627 4 16S9.373 4 16 4s12 5.373 12 12-5.373 12-12 12z"/></symbol><symbol id="icon-circle-blue" viewBox="0 0 32 32"><path fill="#38548A" style="fill:var(--color2, #38548A)" d="M16 0C7.163 0 0 7.163 0 16s7.163 16 16 16 16-7.163 16-16S24.837 0 16 0zm0 28C9.373 28 4 22.627 4 16S9.373 4 16 4s12 5.373 12 12-5.373 12-12 12z"/></symbol><symbol id="icon-circle-green" viewBox="0 0 32 32"><path fill="#3B8745" style="fill:var(--color2, #3B8745)" d="M16 0C7.163 0 0 7.163 0 16s7.163 16 16 16 16-7.163 16-16S24.837 0 16 0zm0 28C9.373 28 4 22.627 4 16S9.373 4 16 4s12 5.373 12 12-5.373 12-12 12z"/></symbol><symbol id="icon-circle-grey" viewBox="0 0 32 32"><path fill="#E2DFDF" style="fill:var(--color2, #E2DFDF)" d="M16 0C7.163 0 0 7.163 0 16s7.163 16 16 16 16-7.163 16-16S24.837 0 16 0zm0 28C9.373 28 4 22.627 4 16S9.373 4 16 4s12 5.373 12 12-5.373 12-12 12z"/></symbol><symbol id="icon-bluze" viewBox="0 0 29 32"><path fill="none" stroke-linejoin="round" stroke-linecap="round" stroke-miterlimit="3.864" stroke-width="1.306" d="M12.289 2.659a2.006 2.006 0 1 1 4.012 0c0 .571-.249 1.086-.621 1.451-.368.344-1.312.651-1.312 2.264M24.965 9.91 14.387 6.374 3.778 9.91"/><path fill="none" stroke-linejoin="round" stroke-linecap="round" stroke-miterlimit="3.864" stroke-width="1.306" d="M2.496 9.122s3.511 2.921 11.893 2.921 11.87-2.921 11.87-2.921"/><path fill="none" stroke-linejoin="round" stroke-linecap="round" stroke-miterlimit="3.864" stroke-width="1.306" d="M2.536 9.089c-1.082 1.868-1.71 3.71-1.883 5.527l2.971 1.571 1.475-1.182s3.238 2.236 2.952 8.126.273 7.054.273 7.054c.839.592 6.043.762 6.043.762s5.205-.17 6.044-.762c0 0 .559-1.165.273-7.054s2.663-8.126 2.663-8.126l1.764 1.182 2.971-1.571c-.173-1.817-.801-3.659-1.883-5.527"/><path fill="none" stroke-linejoin="round" stroke-linecap="round" stroke-miterlimit="3.864" stroke-width="1.306" d="M14.368 17.548a.518.518 0 1 0 0-1.036.518.518 0 0 0 0 1.036zm0 3.645a.518.518 0 1 0 0-1.036.518.518 0 0 0 0 1.036z"/></symbol><symbol id="icon-cuboc" viewBox="0 0 32 32"><path fill="none" style="stroke:var(--color1, #c0a78f)" stroke-miterlimit="3.864" stroke-width="1.231" d="m19.652 16.333-3.629-2.186-3.629 2.186.957-4.127-3.2-2.776 4.221-.366 1.651-3.901 1.651 3.901 4.221.366-3.2 2.776.957 4.127zm5.342-12.418h5.822s-1.207 5.069-5.788 6.66M7.053 3.915H1.231s1.207 5.069 5.788 6.66"/><path fill="none" style="stroke:var(--color1, #c0a78f)" stroke-miterlimit="3.864" stroke-width="1.231" d="M15.924 1.538h9.11v13.021c-.024 1.041-.128 8.95-9.022 8.95s-8.976-7.91-9-8.95V1.537h9.11m-.076 21.966v6.69m-8.386.03h16.622"/></symbol><symbol id="icon-sewing-machine" viewBox="0 0 32 32"><path fill="none" style="stroke:var(--color1, #c0a78f)" stroke-miterlimit="3.864" stroke-width="1.032" d="M6.624 12.315h14.105l1.704 2.898h4.863s1.224.074 1.194-1.331c-.033-1.53 0-6.17 0-6.17s.125-1.331-1.331-1.331H4.21c-.892-.007-1.045.419-1.069 1.069v20.237h27.24c.586-.022.885-.321.895-.895v-1.48c-.038-.621-.348-.933-.933-.933H14.406M5.742 6.407V3.871m-1.711.032h3.534m13.148 6.109v2.299m-2.629-2.299v2.299m-2.63-3.291v3.291m-3.842-.001v12.84"/><path fill="#c0a78f" style="fill:var(--color1, #c0a78f)" d="M5.48 15.483h1.284v1.284H5.48v-1.284zm0 2.795h1.284v1.283H5.48v-1.283z"/><path fill="none" style="stroke:var(--color1, #c0a78f)" stroke-miterlimit="3.864" stroke-width="1.032" d="M5.981 21.927c0-.146.118-.264.265-.264h2.29c.146 0 .265.118.265.264v2.29a.265.265 0 0 1-.265.265h-2.29a.265.265 0 0 1-.265-.265v-2.29zm17.857-6.712h3.078v3.078h-3.078v-3.078zm1.567 3.084v3.563M3.144 16.944H.957a.44.44 0 0 1-.441-.441v-5.48a.44.44 0 0 1 .441-.441h2.206m.331 17.107H.565"/></symbol><symbol id="icon-flower" viewBox="0 0 32 32"><path fill="none" style="stroke:var(--color1, #c0a78f)" stroke-miterlimit="3.864" stroke-width="1.231" d="m16 7.575 6.066-5.729v8.452L16.029 16 16 7.575z"/><path fill="none" style="stroke:var(--color1, #c0a78f)" stroke-miterlimit="3.864" stroke-width="1.231" d="M21.764 9.934h8.389L24.365 16H16m0-8.425L9.934 1.846v8.452L15.971 16 16 7.575z"/><path fill="none" style="stroke:var(--color1, #c0a78f)" stroke-miterlimit="3.864" stroke-width="1.231" d="M10.236 9.934H1.847L7.635 16H16m0 8.425 6.066 5.729v-8.453L16.029 16 16 24.425z"/><path fill="none" style="stroke:var(--color1, #c0a78f)" stroke-miterlimit="3.864" stroke-width="1.231" d="M21.764 22.066h8.389L24.365 16H16m0 8.425-6.066 5.729v-8.453L15.971 16 16 24.425z"/><path fill="none" style="stroke:var(--color1, #c0a78f)" stroke-miterlimit="3.864" stroke-width="1.231" d="M10.236 22.066H1.847L7.635 16H16"/></symbol><symbol id="icon-mannequin" viewBox="0 0 22 32"><path fill="none" stroke-miterlimit="3.864" stroke-width="1.032" d="M10.735 2.914c1.38 0 2.499-.537 2.499-1.199S12.115.516 10.735.516c-1.38 0-2.499.537-2.499 1.199s1.119 1.199 2.499 1.199z"/><path fill="none" style="stroke:var(--color1, #c0a78f)" stroke-miterlimit="3.864" stroke-width="1.032" d="M13.297 1.77v2.151s-.155.601.463 1.02 4.486 2.539 4.486 2.539 1.36.663.247 2.923-3.016 5.501-3.016 5.501-.649 1.422.278 2.552 2.552 4.071 2.552 6.593c0 0-1.625 2.244-7.891 2.244h.679c-6.266 0-7.891-2.244-7.891-2.244 0-2.521 1.625-5.462 2.552-6.593s.278-2.552.278-2.552-1.904-3.24-3.016-5.501.247-2.923.247-2.923 3.868-2.12 4.486-2.539.463-1.02.463-1.02V1.77"/></symbol><symbol id="icon-needle" viewBox="0 0 32 32"><path fill="none" style="stroke:var(--color1, #c0a78f)" stroke-miterlimit="3.864" stroke-width="1.28" d="m22.657 9.367 2.94-3.249s1.944-2.039-.593-4.221C23.432.545 22.116.456 21.224.829c-.725.309-1.331 1.341-1.679 1.889-2.136 3.356-8.412 13.146-8.412 13.146L1.6 31.063l19.16-19.681"/><path fill="none" style="stroke:var(--color1, #c0a78f)" stroke-miterlimit="3.864" stroke-width="1.28" d="M23.32 3.629s.83.664.119 1.684-2.798 3.462-2.798 3.462-.593.498-1.399-.095-.664-1.328-.237-1.897l2.228-2.964c.646-.815 1.341-.878 2.086-.19z"/><path fill="none" style="stroke:var(--color1, #c0a78f)" stroke-miterlimit="3.864" stroke-width="1.28" d="M19.811 5.74s1.399 1.115 2.3 2.419 1.132 5.839-1.814 11.4 1.494 9.212 4.15 9.046c2.655-.166 4.897-1.37 5.353-4.066M16.645 4.204c-.248-.125-11.237-2.84-12.947 4.067-1.037 4.191 3.897 5.142 7.009 3.306"/></symbol><symbol id="icon-player-play" viewBox="0 0 32 32"><path fill="none" style="stroke:var(--color1, #fff)" stroke-width="1.524" d="M31.238 16c0 8.416-6.822 15.238-15.238 15.238S.762 24.416.762 16 7.584.762 16 .762 31.238 7.584 31.238 16z"/><path fill="none" style="stroke:var(--color1, #fff)" stroke-linejoin="round" stroke-linecap="round" stroke-width="1.524" d="M24.755 15.698 10.868 7.245v16.906l13.887-8.453z"/></symbol><symbol id="icon-call" viewBox="0 0 32 32"><path style="fill:var(--color1, #c0a78f)" d="M14.633 8.339c.781.866.534 1.847-.157 2.778a7.325 7.325 0 0 1-.581.678c-.109.115-.195.202-.373.38L12.5 13.198c-.134.134.78 1.961 2.555 3.738s3.601 2.691 3.735 2.556l1.022-1.022c.563-.563.861-.835 1.27-1.104.851-.558 1.78-.71 2.563-.01 2.557 1.829 4.003 2.951 4.712 3.687 1.382 1.436 1.201 3.647.008 4.909-.414.437-.939.962-1.558 1.56-3.749 3.751-11.66 1.468-17.724-4.601C3.018 16.84.737 8.928 4.478 5.185c.672-.682.893-.903 1.547-1.548 1.218-1.2 3.531-1.388 4.937.001.74.731 1.919 2.248 3.672 4.701zm7.063 12.016-1.022 1.022c-1.737 1.738-4.695.257-7.505-2.556-2.812-2.815-4.292-5.772-2.554-7.509l1.021-1.022c.163-.164.238-.239.328-.334a5.68 5.68 0 0 0 .303-.341c-1.554-2.164-2.61-3.517-3.18-4.079-.294-.29-.953-.237-1.194.001-.645.635-.857.847-1.526 1.526-2.406 2.407-.564 8.794 4.599 13.962 5.161 5.166 11.547 7.009 13.971 4.584a48.162 48.162 0 0 0 1.49-1.49c.277-.292.326-.895.008-1.226-.53-.551-1.827-1.562-4.066-3.17a9.154 9.154 0 0 0-.674.632zm.971-17.688v4h-4v2.667h4v4h2.667v-4h4V6.667h-4v-4h-2.667z"/></symbol><symbol id="icon-contacts-mail" viewBox="0 0 38 32"><path style="fill:var(--color1, #c0a78f)" d="M3.422 0h30.802a3.422 3.422 0 0 1 3.422 3.422v23.957a3.422 3.422 0 0 1-3.422 3.422H3.422A3.422 3.422 0 0 1 0 27.379V3.422A3.422 3.422 0 0 1 3.422 0zm0 11.325V27.38h30.802V11.326l-15.401 7.701-15.401-7.701zm0-3.827 15.401 7.701 15.401-7.7V3.422H3.422v4.076z"/></symbol><symbol id="icon-viber" viewBox="0 0 32 32"><path d="M15.634 1.92c-.873.005-1.75.057-2.63.165-1.688.207-3.362.552-4.968 1.29-2.551 1.172-4.36 3.162-4.888 6.055a38.385 38.385 0 0 0-.504 3.704c-.199 2.415-.075 4.843.609 7.223.54 1.879 1.536 3.566 3.279 4.661.738.464 1.711.687 2.219.922v.001c.141.065.177.105.184.115s.027.026.025.176c-.018 1.529 0 4.491 0 4.491l.004.636h1.141l.186-.18s2.9-2.793 3.953-3.944c.188-.205.286-.318.305-.331s-.01-.021.184-.025c1.377-.028 2.754-.08 4.129-.155 1.811-.099 3.658-.273 5.436-1.015 1.548-.647 2.84-1.704 3.621-3.289.801-1.626 1.229-3.348 1.389-5.13.266-2.969.172-5.941-.649-8.873-.481-1.717-1.451-3.168-2.938-4.192-1.781-1.227-3.789-1.686-5.754-1.979a29.09 29.09 0 0 0-3.462-.317c-.29-.008-.58-.012-.871-.01zm.835 1.289a27.87 27.87 0 0 1 3.31.304c1.896.283 3.684.712 5.216 1.768 1.242.856 2.019 2.01 2.431 3.484.767 2.739.863 5.546.606 8.412v.001c-.148 1.653-.54 3.211-1.262 4.677h.001c-.638 1.294-1.635 2.118-2.968 2.675-1.551.648-3.237.821-5.011.918-1.36.074-2.723.125-4.085.152-.342.007-.677.098-.915.273s-.345.338-.492.499h-.001c-.749.819-2.244 2.261-3.059 3.052-.004-.957-.013-2.111 0-3.176.004-.327-.07-.662-.258-.927s-.444-.425-.693-.54l-.001-.001c-.722-.335-1.666-.588-2.075-.845-1.433-.901-2.246-2.252-2.729-3.931-.632-2.197-.753-4.461-.564-6.764a36.96 36.96 0 0 1 .487-3.579c.456-2.502 1.886-4.077 4.161-5.122 1.437-.66 2.971-.985 4.589-1.183a21.97 21.97 0 0 1 3.31-.146zm.272 3.191c-.528 0-1.042.059-1.537.171a.64.64 0 1 0 .287 1.247l-.004.001c.403-.091.823-.14 1.255-.14a5.635 5.635 0 0 1 5.644 5.644c0 .432-.049.852-.14 1.255a.64.64 0 0 0 1.248.286l.001-.004c.112-.495.171-1.01.171-1.537 0-3.816-3.108-6.924-6.924-6.924zm-6.386 1.283a1.207 1.207 0 0 0-.324.027c-1.165.257-2.319 1.101-2.351 2.605.033.209.029.435.107.625.38.931.71 1.889 1.186 2.77 2.312 4.275 5.808 7.248 10.268 9.135.531.225 1.081.273 1.62.047.738-.308 1.365-.782 1.784-1.466.573-.936.581-1.587-.361-2.279-.618-.454-1.226-.921-1.851-1.366-.952-.676-1.983-.795-2.694.391-.036.06-.091.109-.14.161-.364.385-.811.482-1.286.286-1.804-.742-3.195-1.939-4.036-3.723-.493-1.048-.358-1.574.568-2.27.091-.068.18-.141.264-.217.406-.37.512-.81.274-1.307a10.299 10.299 0 0 0-2.18-3.019c-.248-.237-.532-.384-.846-.401zm6.376.637c-.284 0-.563.024-.838.07a.641.641 0 0 0 .08 1.275.619.619 0 0 0 .137-.015l-.004.001c.202-.034.411-.051.625-.051a3.74 3.74 0 0 1 3.749 3.749c0 .215-.017.423-.051.625a.64.64 0 1 0 1.261.215v-.003a5.039 5.039 0 0 0-4.959-5.867zm-.091 1.92h-.009a.64.64 0 1 0 0 1.28h.01a1.91 1.91 0 0 1 1.92 1.92v.009a.64.64 0 1 0 1.28 0v-.01c0-1.76-1.44-3.2-3.2-3.2z"/></symbol><symbol id="icon-contacts-clock" viewBox="0 0 32 32"><path style="fill:var(--color1, #c0a78f)" d="M16 32C7.163 32 0 24.837 0 16S7.163 0 16 0s16 7.163 16 16-7.163 16-16 16zm0-2.909c7.23 0 13.091-5.861 13.091-13.091S23.23 2.909 16 2.909C8.77 2.909 2.909 8.77 2.909 16S8.77 29.091 16 29.091zm7.273-14.546h-5.818V7.272h-2.909v10.182h8.727v-2.909z"/></symbol><symbol id="icon-compass" viewBox="0 0 32 32"><path fill="#c0a78f" style="fill:var(--color1, #c0a78f)" d="M16 32C7.163 32 0 24.837 0 16S7.163 0 16 0s16 7.163 16 16-7.163 16-16 16zm0-2.909c7.23 0 13.091-5.861 13.091-13.091S23.23 2.909 16 2.909C8.77 2.909 2.909 8.77 2.909 16S8.77 29.091 16 29.091zm4.059-9.032 4.059-12.177-12.177 4.059-4.059 12.177 12.177-4.059zm-2.3-2.3-5.277 1.759 1.759-5.278 5.278-1.759-1.759 5.277z"/></symbol><symbol id="icon-check-box" viewBox="0 0 30 32"><path fill="none" stroke="#d7b494" style="stroke:var(--color1, #d7b494)" stroke-width="2.133" d="M1.067 3.087H28.8V30.82H1.067V3.087z"/></symbol><symbol id="icon-check-box-line" viewBox="0 0 240 32"><path fill="none" stroke="#d7b494" style="stroke:var(--color1, #d7b494)" stroke-width="16" d="M240 23.156H0"/></symbol><symbol id="icon-logo" viewBox="0 0 170 32"><path d="M113.739 20.381v-.905h5.647l-5.647-15.462V0h3.181l10.592 27.958 3.654 1.932v.402h-12.149v-.402l3.484-1.953-2.768-7.555h-5.994zm31.19 7.261 3.631 2.269v.38h-8.149v-.38l3.587-2.269V2.356L140.411.402V0h6.636l18.032 24.152V2.65L161.448.381v-.38h8.238v.38l-3.632 2.269v27.642l-1.366.56-19.759-26.428v23.218zM0 29.89l3.521-1.932V2.356L0 .402V0h22.077v7.699h-.199L18.158.905H8.083v13.401h6.533l2.591-3.871h.369v8.754h-.369l-2.591-3.979H8.083v14.176h11.552l4.842-6.815.192.022-1.144 7.699H.001v-.402zM113.739 0v4.014l-5.646 15.462h5.646v.905h-5.993L105 27.936h.023l4.547 1.953v.402h-9.581v-.402l3.868-1.932 9.124-24.719-2.052-2.837v-.402h2.812zM34.156 0h12.061v.402l-3.978 1.954v27.031h9.95l4.842-6.815.192.022-1.144 7.699H34.157v-.402l3.521-1.932V2.357L34.157.403V.001zm32.473 29.89 3.521-1.932V2.356L66.629.402V0h22.077v7.699h-.199L84.787.905H74.712v13.401h6.532l2.591-3.871h.369v8.754h-.369l-2.591-3.979h-6.532v14.176h11.552l4.842-6.815.192.022-1.144 7.699H66.63v-.402z"/></symbol><symbol id="icon-arrow-pc" viewBox="0 0 92 32"><path fill="none" stroke="#d7b494" style="stroke:var(--color1, #d7b494)" stroke-width="4" d="m76.266 3.133 11.733 11.733-11.733 11.733M0 14.867h85.067"/></symbol><symbol id="icon-border-check" viewBox="0 0 30 32"><path fill="none" stroke="#d7b494" style="stroke:var(--color1, #d7b494)" stroke-width="2.133" d="M1.067 3.087H28.8V30.82H1.067V3.087z"/></symbol><symbol id="icon-agree-checket" viewBox="0 0 240 32"><path fill="none" stroke="#d7b494" style="stroke:var(--color1, #d7b494)" stroke-width="16" d="M240 23.156H0"/></symbol><symbol id="icon-switch-minus" viewBox="0 0 352 32"><path d="M0 0h352v32H0V0z"/></symbol><symbol id="icon-switch-plus" viewBox="0 0 32 32"><path d="M0 14.545h32v2.909H0v-2.909z"/><path d="M14.545 32V0h2.909v32h-2.909z"/></symbol><symbol id="icon-mail" viewBox="0 0 42 32"><path d="M0 16v16h42.446V0H0v16zM37.634 2.965c-.945.972-1.549 1.578-11.397 11.467-3.618 3.631-3.8 3.81-4.029 3.923-.607.298-1.439.265-1.976-.083-.166-.103-1.751-1.698-9.882-9.932a4639.01 4639.01 0 0 1-4.792-4.851l-.534-.537h16.312c8.973 0 16.305.007 16.298.013zM8.337 10.519c2.931 2.965 5.332 5.405 5.332 5.415 0 .02-10.402 10.678-10.631 10.89l-.086.08v-10.9c0-5.995.013-10.897.027-10.89.017.003 2.427 2.437 5.359 5.405zm31.157 5.584c0 5.976-.013 10.757-.03 10.751-.013-.007-2.411-2.451-5.322-5.428l-5.296-5.422 2.563-2.57c6.526-6.549 8.068-8.095 8.075-8.095s.01 4.845.01 10.764zm-21.156 4.463c.922.673 1.956.988 3.124.945.786-.027 1.456-.192 2.092-.517.584-.298.796-.477 2.043-1.711l1.174-1.167 10.668 10.916-16.189.01c-8.904.003-16.192 0-16.202-.007-.007-.01.143-.172.332-.365.186-.192 2.603-2.663 5.365-5.491l5.024-5.14 1.161 1.171c.66.667 1.267 1.25 1.409 1.356z"/></symbol><symbol id="icon-play-video" viewBox="0 0 32 32"><path fill="#fff" style="fill:var(--color1, #fff)" d="M32 16c0 8.837-7.163 16-16 16S0 24.837 0 16 7.163 0 16 0s16 7.163 16 16z"/><path style="fill:var(--color2, #000)" d="M22.918 15.67a.335.335 0 0 0 0-.571L12.817 8.926a.334.334 0 0 0-.509.285v12.346c0 .261.286.421.509.285l10.101-6.173z"/></symbol><symbol id="icon-fullscreen" viewBox="0 0 32 32"><path d="M9.333 18.667H6.666v6.667h6.667v-2.667h-4v-4zm-2.666-5.334h2.667v-4h4V6.666H6.667v6.667zm16 9.334h-4v2.667h6.667v-6.667h-2.667v4zm-4-16v2.667h4v4h2.667V6.667h-6.667z"/></symbol><symbol id="icon-ask-question-form" viewBox="0 0 31 32"><path fill="none" stroke="#c0a78f" style="stroke:var(--color1, #c0a78f)" stroke-width="1.73" d="M3.459.865h24.216A2.595 2.595 0 0 1 30.27 3.46v17.297a2.595 2.595 0 0 1-2.595 2.595H3.459a2.595 2.595 0 0 1-2.595-2.595V3.46A2.595 2.595 0 0 1 3.459.865z"/><path fill="#fff" style="fill:var(--color2, #fff)" d="M10.378 27.753v-6.015l6.478-.463-6.478 6.478z"/><path fill="#c0a78f" style="fill:var(--color1, #c0a78f)" d="M9.514 11.243h12.108v1.73H9.514v-1.73z"/><path fill="#c0a78f" style="fill:var(--color1, #c0a78f)" d="M14.703 18.162V6.054h1.73v12.108h-1.73z"/><path fill="none" stroke="#c0a78f" style="stroke:var(--color1, #c0a78f)" stroke-width="1.73" d="M9.514 23.351v6.486L16 23.351"/></symbol><symbol id="icon-form-reviews-add-photo" viewBox="0 0 31 32"><path style="fill:var(--color1, #afafbf)" d="M22.261 2.783h8.348v2.783h-8.348V2.783z"/><path style="fill:var(--color1, #afafbf)" d="M25.043 8.348V0h2.783v8.348h-2.783zM8.26 10.915c.099-.137.208-.305.348-.531l.294-.483.117-.192c1.153-1.887 1.992-2.753 3.504-2.753h5.565c1.512 0 2.35.866 3.504 2.753l.117.192.294.483c.14.226.249.394.348.531.065.09.122.162.168.215h3.918a4.174 4.174 0 0 1 4.174 4.174v12.522A4.174 4.174 0 0 1 26.437 32H4.176a4.174 4.174 0 0 1-4.174-4.174V15.304a4.174 4.174 0 0 1 4.174-4.174h3.918c.046-.053.103-.125.168-.215zm-4.086 2.998c-.768 0-1.391.623-1.391 1.391v12.522c0 .768.623 1.391 1.391 1.391h22.261c.768 0 1.391-.623 1.391-1.391V15.304c0-.768-.623-1.391-1.391-1.391h-4.174c-.924 0-1.548-.506-2.171-1.373-.143-.2-.286-.417-.457-.694a77.643 77.643 0 0 1-.315-.518l-.101-.167c-.629-1.029-1.009-1.421-1.129-1.421h-5.565c-.121 0-.5.392-1.129 1.421l-.102.168-.314.517c-.171.277-.313.495-.457.694-.624.867-1.247 1.373-2.171 1.373H4.176zm22.261 2.783a1.391 1.391 0 1 1-2.783 0 1.391 1.391 0 0 1 2.783 0zM8.348 20.87a6.957 6.957 0 1 0 13.915 0 6.957 6.957 0 0 0-13.915 0zm11.13 0a4.174 4.174 0 1 1-8.349 0 4.174 4.174 0 0 1 8.349 0z"/></symbol><symbol id="icon-delivery-ask-question" viewBox="0 0 31 32"><path fill="none" stroke="#c0a78f" style="stroke:var(--color2, #c0a78f)" stroke-width="1.422" d="M5.689.711H25.6c1.178 0 2.133.955 2.133 2.133v14.222a2.133 2.133 0 0 1-2.133 2.133H5.689a2.133 2.133 0 0 1-2.133-2.133V2.844c0-1.178.955-2.133 2.133-2.133z"/><path fill="#fff" style="fill:var(--color3, #fff)" d="M11.378 22.819v-4.946l5.326-.38-5.326 5.326z"/><path fill="#c0a78f" style="fill:var(--color2, #c0a78f)" d="M9.244 6.4h12.881v1.422H9.244V6.4zm0 4.267H19.2v1.422H9.244v-1.422z"/><path fill="none" stroke="#c0a78f" style="stroke:var(--color2, #c0a78f)" stroke-width="1.422" d="M10.667 19.2v5.333L16 19.2"/></symbol><symbol id="icon-delivery-ask-card" viewBox="0 0 32 32"><path style="fill:var(--color1, #d1b59a)" d="M15.476 30.952C6.929 30.952 0 24.023 0 15.476S6.929 0 15.476 0s15.476 6.929 15.476 15.476c0 2.669-.678 5.242-1.947 7.521l.546 6.554-6.555-.546a15.418 15.418 0 0 1-7.521 1.947zm6.369-4.857.428-.257 3.89.324-.324-3.89.257-.428a12.312 12.312 0 0 0 1.761-6.368c0-6.838-5.543-12.381-12.381-12.381S3.095 8.638 3.095 15.476s5.543 12.381 12.381 12.381a12.31 12.31 0 0 0 6.368-1.761zm-6.368-2.884a1.548 1.548 0 1 1 0-3.096 1.548 1.548 0 0 1 0 3.096zm-1.548-4.641v-1.548c0-1.141.592-2.011 1.513-2.741.277-.22.36-.275.861-.593a1.548 1.548 0 1 0-2.375-1.309h-3.095a4.643 4.643 0 1 1 7.127 3.923c-.392.248-.44.28-.595.403-.18.143-.277.249-.317.294-.017.018-.024.026-.024.023v1.548h-3.095z"/></symbol><symbol id="icon-delivery-clock" viewBox="0 0 33 32"><path fill="none" style="stroke:var(--color1, #d1b59a)" stroke-width="1.6" d="M12.4 16h11.2m-7.2 3.2V5.6M.4 16h3.2m25.6 0h3.2M5.086 27.314l2.263-2.263M25.451 6.948l2.263-2.263m0 22.629-2.263-2.263M7.348 6.95 5.085 4.687M16.4 32v-3.2m0-25.6V0m15.2 16c0 8.395-6.805 15.2-15.2 15.2S1.2 24.395 1.2 16 8.005.8 16.4.8 31.6 7.605 31.6 16z"/></symbol><symbol id="icon-Group-3" viewBox="0 0 31 32"><path fill="none" style="stroke:var(--color1, #d1b59a)" stroke-miterlimit="3.864" stroke-width="1.524" d="M15.614 8.22s.409-3.837-.588-5.576-3.67-2.686-4.872-.997c-1.202 1.688-.333 5.498 5.141 6.649m-14.152.01h28.824v5.285H1.143V8.306z"/><path fill="none" style="stroke:var(--color1, #d1b59a)" stroke-miterlimit="3.864" stroke-width="1.524" d="M12.952 8.306h5.004v22.246h-5.004V8.306z"/><path fill="none" style="stroke:var(--color1, #d1b59a)" stroke-miterlimit="3.864" stroke-width="1.524" d="M29.005 13.607H2.233v16.946h26.772V13.607zM15.755 8.22s-.409-3.837.588-5.576 3.67-2.686 4.872-.997c1.202 1.688.333 5.498-5.141 6.649"/></symbol><symbol id="icon-delivery-surprise" viewBox="0 0 31 32"><path fill="none" stroke="#d1b59a" style="stroke:var(--color1, #d1b59a)" stroke-miterlimit="3.864" stroke-width="1.524" d="M1.143 8.306h28.824v5.285H1.143V8.306z"/><path fill="none" stroke="#d1b59a" style="stroke:var(--color1, #d1b59a)" stroke-miterlimit="3.864" stroke-width="1.524" d="M12.952 8.306h5.004v22.246h-5.004V8.306z"/><path fill="none" stroke="#d1b59a" style="stroke:var(--color1, #d1b59a)" stroke-miterlimit="3.864" stroke-width="1.524" d="M29.005 13.607H2.233v16.946h26.772V13.607zM15.755 8.22s-.409-3.837.588-5.576 3.67-2.686 4.872-.997c1.202 1.688.333 5.498-5.141 6.649"/><path fill="none" stroke="#d1b59a" style="stroke:var(--color1, #d1b59a)" stroke-miterlimit="3.864" stroke-width="1.524" d="M15.614 8.22s.409-3.837-.588-5.576-3.67-2.686-4.872-.997c-1.202 1.688-.333 5.498 5.141 6.649"/></symbol></defs></svg>