<svg width="31" height="30" viewBox="0 0 31 30" fill="none" xmlns="http://www.w3.org/2000/svg"><path d="M7.823 6.72H3.328s-2.326-.025-2.326 3.066v12.888S.824 25.03 3.808 25.03h22.225M2.08 1l27.842 27.843" stroke="#CBC7C7" stroke-width="2" stroke-miterlimit="3.864"/><path d="M19.508 18.437a5.757 5.757 0 1 1-8.05-8.087m-.805-6.554c.218-.31.388-.555.46-.66.326-.492.988-.454.988-.454h3.265-.802 3.265s.662-.038.989.453c.294.441 2.3 3.26 2.3 3.26s.217.325.99.325h4.494s2.327-.026 2.327 3.065v12.327" stroke="#CBC7C7" stroke-width="2" stroke-miterlimit="3.864"/><path d="M24.689 12.34a1.345 1.345 0 1 0 0-2.69 1.345 1.345 0 0 0 0 2.69Z" fill="#BBB"/></svg>