<svg aria-hidden="true" style="position:absolute;width:0;height:0;overflow:hidden" xmlns="http://www.w3.org/2000/svg"><defs><symbol id="header-facebook" viewBox="0 0 34 32"><path d="M4.2 0h25.6A3.2 3.2 0 0 1 33 3.2v25.6a3.2 3.2 0 0 1-3.2 3.2H4.2A3.2 3.2 0 0 1 1 28.8V3.2A3.2 3.2 0 0 1 4.2 0zm0 3.2v25.6h25.6V3.2H4.2zm11.413 12.807H18.6V25.6h3.2v-9.593h3.172v-3.2H21.8V11.2a1.6 1.6 0 0 1 1.6-1.6H25V6.4h-1.6a4.8 4.8 0 0 0-4.8 4.8v1.607h-2.987v3.2z"/></symbol><symbol id="header-whatsapp" viewBox="0 0 34 32"><path d="m1 32 2.26-8.217a15.764 15.764 0 0 1-2.126-7.928C1.138 7.114 8.285 0 17.067 0a15.865 15.865 0 0 1 11.271 4.651A15.722 15.722 0 0 1 33 15.87c-.004 8.743-7.151 15.856-15.933 15.856a15.998 15.998 0 0 1-7.62-1.931L1 32zm8.838-5.076c2.245 1.327 4.389 2.121 7.224 2.123 7.299 0 13.244-5.912 13.248-13.18.003-7.283-5.915-13.187-13.237-13.189-7.304 0-13.246 5.912-13.248 13.179-.001 2.967.872 5.188 2.339 7.512l-1.338 4.864 5.013-1.308zm15.255-7.285c-.099-.165-.364-.264-.764-.463-.398-.199-2.355-1.157-2.721-1.289-.364-.132-.63-.199-.896.199-.265.396-1.029 1.289-1.261 1.553s-.465.297-.863.099c-.398-.199-1.681-.616-3.202-1.967-1.183-1.051-1.983-2.348-2.215-2.745-.232-.396-.024-.611.174-.808.18-.177.398-.463.598-.695.202-.229.268-.395.402-.66.133-.264.067-.496-.034-.695-.1-.197-.896-2.148-1.227-2.941-.324-.772-.652-.668-.896-.68l-.764-.013c-.265 0-.697.099-1.061.496S8.97 10.385 8.97 12.335c0 1.951 1.427 3.835 1.625 4.099.2.264 2.807 4.267 6.8 5.983.95.408 1.692.652 2.269.835.954.301 1.822.259 2.508.157.765-.113 2.355-.959 2.687-1.884.332-.927.332-1.72.232-1.885z"/></symbol><symbol id="header-telegram" viewBox="0 0 38 32"><path d="M34.335.003a4.133 4.133 0 0 0-1.292.306h-.005c-.395.155-2.271.936-5.124 2.12L17.69 6.69c-7.336 3.056-14.547 6.066-14.547 6.066l.086-.033s-.497.162-1.017.514a2.798 2.798 0 0 0-.812.777c-.255.37-.46.936-.384 1.521.125.99.773 1.583 1.238 1.91.471.332.92.487.92.487h.011l6.763 2.255c.303.963 2.061 6.681 2.483 7.998.249.787.492 1.279.795 1.654.147.192.319.352.525.481.107.062.222.111.341.145l-.069-.016c.021.005.037.022.053.027.055.015.093.021.163.032 1.071.321 1.931-.337 1.931-.337l.048-.038 3.993-3.598 6.692 5.081.152.064c1.395.606 2.807.269 3.554-.326.752-.599 1.044-1.365 1.044-1.365l.048-.123 5.171-26.217c.147-.647.184-1.253.022-1.841A2.478 2.478 0 0 0 35.812.373a2.615 2.615 0 0 0-1.478-.37zm-.14 2.81c-.006.086.011.077-.028.243v.015l-5.123 25.944c-.022.037-.06.118-.162.199-.108.085-.194.138-.644-.038l-8.185-6.21-4.944 4.46 1.039-6.565L29.521 8.526c.551-.507.367-.614.367-.614.039-.622-.832-.182-.832-.182L12.193 18.068l-.006-.027-8.103-2.703.042-.016.044-.022.043-.015s7.217-3.01 14.553-6.066c3.673-1.531 7.373-3.073 10.219-4.262 2.846-1.183 4.95-2.05 5.069-2.097.114-.044.06-.044.141-.044v-.001z"/></symbol><symbol id="header-email" viewBox="0 0 41 32"><path stroke-width="3.413" d="M5.333 1.707H35.2a2.56 2.56 0 0 1 2.56 2.56v23.467a2.56 2.56 0 0 1-2.56 2.56H5.333a2.56 2.56 0 0 1-2.56-2.56V4.267a2.56 2.56 0 0 1 2.56-2.56z"/><path stroke-width="3.413" d="m3.2 5.333 17.067 12.8 17.067-12.8"/></symbol><symbol id="header-bin" viewBox="0 0 29 32"><path fill="none" stroke-miterlimit="3.864" stroke-width="1.454" d="M5.353 30.342H.727V6.549h4.705m3.139.998V5.481c0-2.32 1.756-4.2 3.921-4.2s3.921 1.88 3.921 4.2v2.066"/><path d="M5.469 6.548h22.895v23.793H5.469V6.548z"/><path fill="none" stroke-miterlimit="3.864" stroke-width="1.454" d="M5.469 6.548h22.895v23.793H5.469V6.548z"/><path fill="none" stroke-miterlimit="3.864" stroke-width="1.454" d="M13.276 9.124V5.053c0-2.083 1.756-3.771 3.921-3.771 2.166 0 3.921 1.688 3.921 3.771v4.071"/></symbol><symbol id="header-favorites" viewBox="0 0 38 32"><path stroke-miterlimit="3.864" stroke-width="1.524" d="M19.165 6.47c-1.06-.954-5.121-4.38-8.717-4.345-3.686.036-9.375 2.449-8.895 9.596.424 6.314 17.331 19.297 17.331 19.297.106.078.216.078.329 0 0 0 16.906-12.985 17.331-19.297.48-7.148-5.209-9.56-8.896-9.596-4.176-.04-8.98 4.587-8.98 4.587l-3.261 3.325"/></symbol><symbol id="header-logo" viewBox="0 0 172 32"><path d="m0 31.002 3.575-2.004V2.443L0 .417V0h22.418v7.985h-.202L18.439.938H8.208v13.899h6.634l2.631-4.015h.375v9.08h-.375l-2.631-4.127H8.208v14.704h11.73l4.917-7.069.195.022-1.162 7.985H.001V31zM46.93 0H34.683v.417l3.575 2.026v26.555l-3.575 2.004v.417h22.261l1.162-7.985-.195-.022-4.917 7.069H42.89V2.444L46.93.418V.001zm24.304 28.998-3.575 2.004v.417h23.888l1.162-7.985-.195-.022-4.917 7.069h-11.73V15.777H82.5l2.631 4.127h.375v-9.08h-.375L82.5 14.839h-6.633V.94h10.231l3.777 7.047h.202V.002H67.659v.417l3.575 2.026V29zm79.623 2.026-3.687-2.354V4.588l20.065 27.411 1.387-.581V2.748l3.687-2.354v-.395h-8.366v.395l3.687 2.354V25.05L149.32 0h-6.738v.417l3.642 2.026V28.67l-3.642 2.354v.395h8.274v-.395zm-35.36-9.884v-.939h5.734l-5.734-16.037V0h3.23l10.756 28.998 3.711 2.004v.417h-12.338v-.417l3.538-2.026-2.811-7.836h-6.086zm0-21.14v4.164l-5.734 16.037h5.734v.939h-6.086l-2.789 7.836h.023l4.617 2.026v.417h-9.729v-.417l3.927-2.004 9.265-25.639-2.084-2.942V0h2.855z"/></symbol><symbol id="header-mobile-burger" viewBox="0 0 38 32"><path d="M0 1.318h37.424v2H0v-2zm0 14h37.424v2H0v-2zm0 14h37.424v2H0v-2z"/></symbol><symbol id="header-mobile-close" viewBox="0 0 38 32"><path d="M35.772 1.329a1 1 0 0 1 1.247 1.563l-1.247-1.564zM1.647 31.1A1 1 0 0 1 .4 29.537l1.247 1.564zM37.019 2.893 1.647 31.1.4 29.536 35.772 1.329l1.247 1.564z"/><path d="M1.647 1.329A1 1 0 0 0 .4 2.892l1.247-1.564zM35.772 31.1a1 1 0 0 0 1.247-1.563l-1.247 1.564zM.4 2.893 35.772 31.1l1.247-1.564L1.647 1.329.4 2.893z"/></symbol><symbol id="header-facebook1" viewBox="0 0 15 32"><path d="M9.948 30.347H3.435V15.486H.213v-5.105h3.222v-3.07c0-4.202 1.827-6.69 7.044-6.69h4.319v5.138h-2.691c-2.026 0-2.159.71-2.159 2.036v2.584h4.885l-.566 5.106H9.948v14.861z"/></symbol><symbol id="header-instagram" viewBox="0 0 30 32"><path d="M9.42 30.399c-5.166 0-9.42-4.25-9.42-9.456V9.457C0 4.249 4.254.001 9.42.001h11.357c5.204 0 9.42 4.249 9.42 9.456v11.486c0 5.206-4.217 9.456-9.42 9.456H9.42zM3.077 9.458v11.486c0 3.522 2.848 6.393 6.343 6.393h11.357c3.493 0 6.343-2.871 6.343-6.393V9.458c0-3.522-2.85-6.393-6.343-6.393H9.42c-3.495 0-6.343 2.871-6.343 6.393z"/><path d="M7.253 15.2c0-4.365 3.532-7.924 7.862-7.924s7.825 3.559 7.825 7.924c0 4.363-3.495 7.924-7.825 7.924S7.253 19.563 7.253 15.2zm3.115 0c0 2.642 2.126 4.785 4.748 4.785 2.583 0 4.711-2.143 4.711-4.785s-2.128-4.786-4.711-4.786c-2.622 0-4.748 2.144-4.748 4.786zm12.953-5.896c-1.29 0-2.354-1.071-2.354-2.372 0-1.342 1.064-2.412 2.354-2.412 1.292 0 2.355 1.071 2.355 2.412 0 1.302-1.064 2.372-2.355 2.372z"/></symbol></defs></svg>