<svg aria-hidden="true" style="position:absolute;width:0;height:0;overflow:hidden" xmlns="http://www.w3.org/2000/svg"><defs><symbol id="icon-heart" viewBox="0 0 37 32"><path stroke-miterlimit="3.864" stroke-width="1.6" d="M18.512 5.922c-1.016-.949-4.91-4.357-8.357-4.322-3.534.036-8.988 2.436-8.528 9.546.407 6.281 16.615 19.196 16.615 19.196.101.078.207.078.316 0 0 0 16.208-12.916 16.615-19.196.46-7.11-4.994-9.509-8.529-9.546-4.004-.04-8.609 4.563-8.609 4.563l-3.127 3.308"/></symbol><symbol id="icon-request" viewBox="0 0 33 32"><path fill="none" stroke="#c8ab90" style="stroke:var(--color1, #c8ab90)" stroke-miterlimit="3.864" stroke-width="1.422" d="m14.735 12.255 1.809 1.809 2.753-2.753"/><path fill="none" stroke="#c8ab90" style="stroke:var(--color1, #c8ab90)" stroke-miterlimit="3.864" stroke-width="1.422" d="M17.083 17.581a5.01 5.01 0 1 0-.001-10.019 5.01 5.01 0 0 0 .001 10.019zM7.635 2.653H5.604v13.808m3.83-11.707h15.255"/><path fill="none" stroke="#c8ab90" style="stroke:var(--color1, #c8ab90)" stroke-miterlimit="3.864" stroke-width="1.422" d="M3.931 11.628H.714v19.66h30.648V11.597h-3.155"/><path fill="none" stroke="#c8ab90" style="stroke:var(--color1, #c8ab90)" stroke-miterlimit="3.864" stroke-width="1.422" d="m.925 31.289 15.178-11.801L31.27 31.289m-4.691-14.687V.712H7.634v17.797M.711 11.701l9.814 9.814m20.837-9.814-9.814 9.814"/></symbol><symbol id="icon-timer" viewBox="0 0 30 32"><path fill="none" stroke="#c8ab90" style="stroke:var(--color1, #c8ab90)" stroke-miterlimit="3.864" stroke-width="1.362" d="M14.979 19.647a1.39 1.39 0 1 0 0-2.778 1.39 1.39 0 0 0 0 2.778z"/><path fill="none" stroke="#c8ab90" style="stroke:var(--color1, #c8ab90)" stroke-miterlimit="3.864" stroke-width="1.362" d="M15.068 9.088c5.016 0 9.082 4.106 9.082 9.171s-4.066 9.17-9.082 9.17a8.988 8.988 0 0 1-6.48-2.744"/><path fill="none" stroke="#c8ab90" style="stroke:var(--color1, #c8ab90)" stroke-miterlimit="3.864" stroke-width="1.362" d="M14.979 31.318c7.213 0 13.061-5.848 13.061-13.061S22.192 5.196 14.979 5.196c-7.214 0-13.061 5.848-13.061 13.061s5.848 13.061 13.061 13.061zm0-26.122a1.945 1.945 0 1 0 0-3.89 1.945 1.945 0 0 0 0 3.89zM1.362 7.624l2.929-2.983 1.517 1.546-2.849 2.901-1.598-1.463zm27.233 0-2.929-2.983-1.517 1.546 2.848 2.901 1.598-1.463z"/><path fill="none" stroke="#c8ab90" style="stroke:var(--color1, #c8ab90)" stroke-linecap="square" stroke-miterlimit="3.864" stroke-width="1.362" d="m8.588 24.65 5.28-5.28"/></symbol><symbol id="icon-stylist" viewBox="0 0 32 32"><path fill="none" stroke="#c8ab90" style="stroke:var(--color1, #c8ab90)" stroke-miterlimit="3.864" stroke-width="1.488" d="M3.257 23.7c-1.411-2.288-2.201-4.978-2.201-7.855 0-8.339 6.761-15.1 15.1-15.1s15.1 6.76 15.1 15.1c0 2.916-.826 5.638-2.257 7.946"/><path fill="none" stroke="#c8ab90" style="stroke:var(--color1, #c8ab90)" stroke-miterlimit="3.864" stroke-width="1.488" d="M.734 23.702h2.547l.666-2.932m27.308 2.948H28.98l-.617-2.948m-17.512-8.679s1.377.313 1.377-.72v-1.227s-.157-1.002 1.133-1.002h3.925s1.446-.025 1.947-1.189"/><path fill="none" stroke="#c8ab90" style="stroke:var(--color1, #c8ab90)" stroke-linecap="round" stroke-miterlimit="3.864" stroke-width="1.488" d="M19.236 8.016v1.033s.97-.225.97.845v1.102s-.119 1.315 1.415 1.315V7.228s-.219-2.103-1.885-2.103h-5.465s-1.408-.188-1.408 1.665c0 0-2.041-.401-2.041 1.415v5.333m10.222.635c0 2.923-2.166 5.603-4.837 5.603s-4.838-2.68-4.838-5.603"/><path fill="none" stroke="#c8ab90" style="stroke:var(--color1, #c8ab90)" stroke-miterlimit="3.864" stroke-width="1.488" d="M13.198 18.52v3.485l3.114.941 2.935-.98v-3.445m-6.049 3.405h-1.272l-1.804 1.843s-3.193.409-4.7 2.739m13.867-4.623h1.02l1.86 1.726s3.115-.023 4.857 2.974"/><path fill="none" stroke="#c8ab90" style="stroke:var(--color1, #c8ab90)" stroke-linecap="round" stroke-miterlimit="3.864" stroke-width="1.488" d="M5.383 26.587s3.138 4.465 10.93 4.465 10.632-4.465 10.632-4.465"/><path fill="none" stroke="#c8ab90" style="stroke:var(--color1, #c8ab90)" stroke-miterlimit="3.864" stroke-width="1.488" d="m10.043 23.73 4.095 2.056 2.213-1.938 2.056 1.977 3.798-2.134m-5.893-.746v.981m5.327-11.625v1.109l-.58.77m-10.232-.724.54.769"/></symbol><symbol id="icon-models" viewBox="0 0 44 32"><path fill="none" stroke="#c8ab90" style="stroke:var(--color1, #c8ab90)" stroke-miterlimit="3.864" stroke-width="1.524" d="M5.336 28.19 5.334 2.404c0-.907.613-1.642 1.37-1.642H38.25c.756 0 1.37.735 1.37 1.642v25.692"/><path fill="none" stroke="#c8ab90" style="stroke:var(--color1, #c8ab90)" stroke-miterlimit="3.864" stroke-width="1.524" d="M22.138 28.757h3.184v-.717h18.107v.588s.003 1.965-2.433 2.045c-1.947.063-18.857 0-18.857 0"/><path fill="none" stroke="#c8ab90" style="stroke:var(--color1, #c8ab90)" stroke-miterlimit="3.864" stroke-width="1.524" d="M26.71 28.757H20v-.717H.762v.588s-.003 1.965 2.585 2.045c2.069.063 23.363 0 23.363 0"/><path fill="none" stroke="#c8ab90" style="stroke:var(--color1, #c8ab90)" stroke-width="1.524" d="M22.779 21.333h3.573V13.74l2.68 1.34 2.233-2.68-4.02-4.02h-2.233c-.149.744-.983 2.233-3.126 2.233"/><path fill="none" stroke="#c8ab90" style="stroke:var(--color1, #c8ab90)" stroke-width="1.524" d="M22.779 21.333h-4.913V13.74l-2.68 1.34-2.233-2.68 4.02-4.02h2.233c.149.744.983 2.233 3.126 2.233"/></symbol><symbol id="icon-payment" viewBox="0 0 25 32"><path fill="none" stroke="#c8ab90" style="stroke:var(--color1, #c8ab90)" stroke-miterlimit="3.864" stroke-width="1.333" d="M16.666 24.957V5.926h-14v21.259h14v-2.228zm-8.043 4.339h1.851"/><path fill="none" stroke="#c8ab90" style="stroke:var(--color1, #c8ab90)" stroke-miterlimit="3.864" stroke-width="1.333" d="M18.815 24.95v3.93c0 1.355-1.118 2.453-2.497 2.453H3.164c-1.379 0-2.497-1.098-2.497-2.453V3.194C.667 1.839 1.785.741 3.164.741h13.154c1.379 0 2.497 1.098 2.497 2.453V24.95z"/><path fill="#b59475" style="fill:var(--color2, #b59475)" d="M7.333 2.815H12v1.037H7.333V2.815z"/><path fill="#f2f1f0" style="fill:var(--color3, #f2f1f0)" d="M5.333 9.038h15.556v15.556H5.333V9.038z"/><path fill="none" stroke="#c8ab90" style="stroke:var(--color1, #c8ab90)" stroke-miterlimit="3.864" stroke-width="1.333" d="M5.333 10.965c0-.206.15-.372.335-.372h17.998c.185 0 .335.166.335.372v11.7c0 .206-.15.372-.335.372H5.668c-.185 0-.335-.166-.335-.372v-11.7z"/><path fill="#b59475" style="fill:var(--color2, #b59475)" d="M5.852 12.667H24v1.037H5.852v-1.037zm0 3.63H24v1.037H5.852v-1.037zm1.037 2.073h5.704v1.037H6.889V18.37z"/><path fill="none" stroke="#c8ab90" style="stroke:var(--color1, #c8ab90)" stroke-miterlimit="3.864" stroke-width="1.333" d="M21.927 18.889h-7.778v2.074h7.778v-2.074z"/></symbol></defs></svg>