<svg width="58" height="42" viewBox="0 0 58 42" fill="none" xmlns="http://www.w3.org/2000/svg"><path d="M7.003 37 7 3.155C7 1.965 7.805 1 8.798 1h41.404C51.195 1 52 1.965 52 3.155v33.72" stroke="#C8AB90" stroke-width="2" stroke-miterlimit="3.864"/><path d="M29.057 37.743h4.178v-.94H57v.772s.004 2.58-3.193 2.684c-2.556.083-24.75 0-24.75 0" stroke="#C8AB90" stroke-width="2" stroke-miterlimit="3.864"/><path d="M35.056 37.743H26.25v-.94H1v.772s-.004 2.58 3.393 2.684c2.715.083 30.663 0 30.663 0" stroke="#C8AB90" stroke-width="2" stroke-miterlimit="3.864"/><path d="M29.897 28h4.69v-9.965l3.517 1.758 2.931-3.517L35.76 11h-2.93c-.196.977-1.29 2.931-4.104 2.931" stroke="#C8AB90" stroke-width="2"/><path d="M29.897 28H23.45v-9.965l-3.517 1.758L17 16.276 22.276 11h2.932c.195.977 1.29 2.931 4.103 2.931" stroke="#C8AB90" stroke-width="2"/></svg>