<svg aria-hidden="true" style="position:absolute;width:0;height:0;overflow:hidden" xmlns="http://www.w3.org/2000/svg"><defs><symbol id="icon-murkup" viewBox="0 0 46 32"><path d="M7.804 1.339a4.572 4.572 0 0 0-6.465 6.465l6.465-6.465zm15.053 21.518-3.232 3.232 3.233 3.232 3.233-3.232-3.233-3.233zM44.375 7.804a4.572 4.572 0 0 0-6.465-6.465l6.465 6.465zm-43.036 0L19.625 26.09l6.465-6.465L7.804 1.339 1.339 7.804zM26.09 26.09 44.376 7.804l-6.465-6.465-18.286 18.286 6.465 6.465z"/></symbol><symbol id="icon-murkup_arow" viewBox="0 0 51 32"><path fill="#dfdfdf" style="fill:var(--color1, #dfdfdf)" d="M5.463 31.063a3.2 3.2 0 1 1-4.526-4.526l4.526 4.526zM25.6 6.4l-2.263-2.263L25.6 1.874l2.263 2.263L25.6 6.4zm24.663 20.137a3.2 3.2 0 0 1-4.525 4.526l4.525-4.526zm-49.326 0 22.4-22.4 4.526 4.526-22.4 22.4-4.526-4.526zm26.926-22.4 22.4 22.4-4.525 4.526-22.4-22.4 4.526-4.526z"/></symbol></defs></svg>