<svg width="37" height="48" viewBox="0 0 37 48" fill="none" xmlns="http://www.w3.org/2000/svg"><path clip-rule="evenodd" d="M24.999 37.325V8.778h-21v31.89h21v-3.343Z" stroke="#C8AB90" stroke-width="2" stroke-miterlimit="3.864"/><path d="M12.935 43.831h2.775m12.512-6.517v5.895c0 2.032-1.677 3.68-3.745 3.68H4.745C2.677 46.889 1 45.24 1 43.209V4.68C1 2.648 2.677 1 4.745 1h19.732c2.068 0 3.745 1.647 3.745 3.68v32.634Z" stroke="#C8AB90" stroke-width="2" stroke-miterlimit="3.864"/><path fill="#B59475" d="M11 4.111h7v1.556h-7z"/><path fill="#F2F1F0" d="M7.999 13.445h23.333v23.333H7.999z"/><path clip-rule="evenodd" d="M7.999 16.337c0-.309.225-.559.502-.559h26.996c.278 0 .502.25.502.559v17.55c0 .308-.225.558-.502.558H8.501c-.277 0-.502-.25-.502-.558v-17.55Z" stroke="#C8AB90" stroke-width="2" stroke-miterlimit="3.864"/><path fill="#B59475" d="M8.777 18.889h27.222v1.556H8.777zm0 5.445h27.222v1.556H8.777zm1.557 3.11h8.556V29h-8.556z"/><path d="M32.89 28.222H21.223v3.11H32.89v-3.11Z" stroke="#C8AB90" stroke-width="2" stroke-miterlimit="3.864"/></svg>