<svg aria-hidden="true" style="position:absolute;width:0;height:0;overflow:hidden" xmlns="http://www.w3.org/2000/svg"><defs><symbol id="icon-thanks_for_ordering" viewBox="0 0 105 112"><path d="M42.564 56.504c3.758 0 8.092 3.445 9.913 6.977 1.748-3.532 6.035-6.977 9.793-6.977 9.887 0 15.123 13.558 6.112 22.416L52.79 94.246 36.875 78.92c-9.298-8.372-4.198-22.416 5.689-22.416Z" stroke="#000" stroke-width="2" stroke-miterlimit="22.926" stroke-linecap="round" stroke-linejoin="round"/><path d="M71.827 37.798V20.861c0-10.619-8.695-19.324-19.327-19.324-10.629 0-19.327 8.695-19.327 19.324v16.934M9.92 22.069h85.162c2.45 0 4.32 2.034 4.457 4.458l4.454 80.015c.136 2.417-2.034 4.457-4.454 4.457H5.463c-2.423 0-4.593-2.01-4.457-4.457l4.457-80.015c.137-2.45 2.008-4.458 4.458-4.458Zm61.903 10.187a3.898 3.898 0 0 1 3.898 3.894 3.896 3.896 0 0 1-7.793 0 3.895 3.895 0 0 1 3.895-3.894Zm-38.648 0a3.895 3.895 0 1 1-.001 7.79 3.895 3.895 0 0 1 .001-7.79Z" stroke="#000" stroke-width="2" stroke-miterlimit="22.926"/></symbol><symbol id="icon-close" viewBox="0 0 32 32"><path d="M23.733 10.304 22.229 8.8l-5.963 5.963L10.303 8.8l-1.504 1.504 5.963 5.963-5.963 5.963 1.504 1.504 5.963-5.963 5.963 5.963 1.504-1.504-5.963-5.963 5.963-5.963z"/></symbol><symbol id="icon-clients-arrow-left" viewBox="0 0 20 32"><path fill="none" stroke="#c0a78f" style="stroke:var(--color1, #c0a78f)" stroke-linejoin="round" stroke-width="3.692" d="M16 2.462 2.462 16 16 29.538"/></symbol><symbol id="icon-clients-arrow-right" viewBox="0 0 20 32"><path fill="none" stroke="#c0a78f" style="stroke:var(--color1, #c0a78f)" stroke-linejoin="round" stroke-width="3.692" d="M3.692 2.462 17.23 16 3.692 29.538"/></symbol><symbol id="icon-hero-arrow-left" viewBox="0 0 81 32"><path fill="none" stroke="#fff" style="stroke:var(--color2, #fff)" stroke-width="2.909" d="M21.761 4.593 2.909 15.477l18.852 10.884V4.592zm-1.402 11.572h60.243"/></symbol><symbol id="icon-hero-arrow-right" viewBox="0 0 81 32"><path fill="none" stroke="#fff" style="stroke:var(--color2, #fff)" stroke-width="2.909" d="m59.27 4.593 18.852 10.884L59.27 26.361V4.592zm1.399 11.572H.426"/></symbol><symbol id="icon-delete" viewBox="0 0 15 15" fill="none" xmlns="http://www.w3.org/2000/svg">&gt;<path d="M1 14 14 1m0 13L1 1" stroke="#C5C0C0"/></symbol><symbol id="icon-hanger" viewBox="0 0 36 32"><path fill="none" stroke-linejoin="round" stroke-linecap="round" stroke-width="2.133" d="M14.933 20.267c-4.298 3.255-12.8 10.667-12.8 10.667h32L19.074 17.856c1.443-1.4 4.214-4.861 5.365-6.543 2.071-3.027.769-9.178-6.024-9.179-7.341 0-7.624 7.128-5.459 9.862"/></symbol><symbol id="icon-sign" viewBox="0 0 38 32"><path fill="none" stroke-width="2" d="M2.546 30.5 19 2l16.454 28.5H2.545z"/><path d="M18 12.012h2v10h-2v-10zm0 12h2v2h-2v-2z"/></symbol><symbol id="icon-colorpicker" viewBox="0 0 32 32"><path fill="#fff" style="fill:var(--color1, #fff)" d="M0 0h32v32H0V0z"/><path style="fill:var(--color2, )" d="M27.826 16c0 6.531-5.295 11.826-11.826 11.826S4.174 22.531 4.174 16C4.174 9.469 9.469 4.174 16 4.174S27.826 9.469 27.826 16z"/><path fill="#fff" style="fill:var(--color1, #fff)" d="M23.652 16a7.652 7.652 0 1 1-15.304 0 7.652 7.652 0 0 1 15.304 0z"/><path fill="none" style="stroke:var(--color3, )" stroke-width=".696" d="M31.652 16c0 8.644-7.008 15.652-15.652 15.652S.348 24.644.348 16C.348 7.356 7.356.348 16 .348S31.652 7.356 31.652 16z"/></symbol></defs></svg>