<svg width="105" height="112" viewBox="0 0 105 112" fill="none" xmlns="http://www.w3.org/2000/svg"><path d="M42.564 56.504c3.758 0 8.092 3.445 9.913 6.977 1.748-3.532 6.035-6.977 9.793-6.977 9.887 0 15.123 13.558 6.112 22.416L52.79 94.246 36.875 78.92c-9.298-8.372-4.198-22.416 5.689-22.416Z" stroke="#000" stroke-width="2" stroke-miterlimit="22.926" stroke-linecap="round" stroke-linejoin="round"/><path d="M71.827 37.798V20.861c0-10.619-8.695-19.324-19.327-19.324-10.629 0-19.327 8.695-19.327 19.324v16.934M9.92 22.069h85.162c2.45 0 4.32 2.034 4.457 4.458l4.454 80.015c.136 2.417-2.034 4.457-4.454 4.457H5.463c-2.423 0-4.593-2.01-4.457-4.457l4.457-80.015c.137-2.45 2.008-4.458 4.458-4.458Zm61.903 10.187a3.898 3.898 0 0 1 3.898 3.894 3.896 3.896 0 0 1-7.793 0 3.895 3.895 0 0 1 3.895-3.894Zm-38.648 0a3.895 3.895 0 1 1-.001 7.79 3.895 3.895 0 0 1 .001-7.79Z" stroke="#000" stroke-width="2" stroke-miterlimit="22.926"/></svg>