<svg width="44" height="47" viewBox="0 0 44 47" fill="none" xmlns="http://www.w3.org/2000/svg"><path d="M22 27.94a2.04 2.04 0 1 0 0-4.083 2.04 2.04 0 0 0 0 4.082Z" stroke="#C8AB90" stroke-width="2" stroke-miterlimit="3.864"/><path d="M22.13 12.429c7.368 0 13.34 6.03 13.34 13.47 0 7.438-5.972 13.468-13.34 13.468a13.196 13.196 0 0 1-9.517-4.03" stroke="#C8AB90" stroke-width="2" stroke-miterlimit="3.864"/><path d="M22 45.081c10.595 0 19.184-8.589 19.184-19.184 0-10.594-8.589-19.183-19.184-19.183S2.817 15.303 2.817 25.898C2.817 36.492 11.405 45.08 22 45.08Zm0-38.367A2.857 2.857 0 1 0 22 1a2.857 2.857 0 0 0 0 5.714Z" stroke="#C8AB90" stroke-width="2" stroke-miterlimit="3.864"/><path clip-rule="evenodd" d="m2 10.28 4.302-4.382 2.229 2.27-4.184 4.261L2 10.28Zm40 0-4.303-4.382-2.229 2.27 4.184 4.261L42 10.28Z" stroke="#C8AB90" stroke-width="2" stroke-miterlimit="3.864"/><path d="m12.613 35.285 7.755-7.755" stroke="#C8AB90" stroke-width="2" stroke-miterlimit="3.864" stroke-linecap="square"/></svg>