<svg width="63" height="62" viewBox="0 0 63 62" fill="none" xmlns="http://www.w3.org/2000/svg"><path d="m58.493 43.024-.458-.2-.07.161.045.17.483-.13Zm-10.34 12.591.014-.5-.165-.004-.135.094.286.41ZM62 56l-.014.5.672.019-.175-.65L62 56Zm-1.5-25a29.4 29.4 0 0 1-2.465 11.824l.916.401A30.4 30.4 0 0 0 61.5 31h-1ZM31 1.5c16.292 0 29.5 13.208 29.5 29.5h1C61.5 14.155 47.845.5 31 .5v1ZM1.5 31C1.5 14.708 14.708 1.5 31 1.5v-1C14.155.5.5 14.155.5 31h1ZM31 60.5C14.708 60.5 1.5 47.292 1.5 31h-1C.5 47.845 14.155 61.5 31 61.5v-1Zm16.867-5.295A29.362 29.362 0 0 1 31 60.5v1a30.362 30.362 0 0 0 17.44-5.475l-.573-.82Zm.273.91 13.846.385.028-1-13.847-.384-.027 1Zm14.343-.245-3.507-12.976-.966.26 3.507 12.976.966-.26Z" fill="#BBB"/></svg>