<svg
  aria-hidden="true"
  style="position: absolute; width: 0; height: 0; overflow: hidden;"
  version="1.1"
  xmlns="http://www.w3.org/2000/svg"
  xmlns:xlink="http://www.w3.org/1999/xlink"
>
<defs>
<symbol id="icon-try-on-icon-1" viewBox="0 0 44 32">
<path
        fill="none"
        stroke="#c8ab90"
        style="stroke: var(--color1, #c8ab90)"
        stroke-linejoin="miter"
        stroke-linecap="butt"
        stroke-miterlimit="3.8637"
        stroke-width="1.5238"
        d="M5.336 28.19l-0.002-25.786c0-0.907 0.613-1.642 1.37-1.642h31.546c0.756 0 1.37 0.735 1.37 1.642v25.692"
      />
<path
        fill="none"
        stroke="#c8ab90"
        style="stroke: var(--color1, #c8ab90)"
        stroke-linejoin="miter"
        stroke-linecap="butt"
        stroke-miterlimit="3.8637"
        stroke-width="1.5238"
        d="M22.138 28.757h3.184v-0.717h18.107v0.588c0 0 0.003 1.965-2.433 2.045-1.947 0.063-18.857 0-18.857 0"
      />
<path
        fill="none"
        stroke="#c8ab90"
        style="stroke: var(--color1, #c8ab90)"
        stroke-linejoin="miter"
        stroke-linecap="butt"
        stroke-miterlimit="3.8637"
        stroke-width="1.5238"
        d="M26.71 28.757h-6.71v-0.717h-19.238v0.588c0 0-0.003 1.965 2.585 2.045 2.069 0.063 23.363 0 23.363 0"
      />
<path
        fill="none"
        stroke="#c8ab90"
        style="stroke: var(--color1, #c8ab90)"
        stroke-linejoin="miter"
        stroke-linecap="butt"
        stroke-miterlimit="4"
        stroke-width="1.5238"
        d="M22.779 21.333h3.573v-7.593l2.68 1.34 2.233-2.68-4.020-4.020h-2.233c-0.149 0.744-0.983 2.233-3.126 2.233"
      />
<path
        fill="none"
        stroke="#c8ab90"
        style="stroke: var(--color1, #c8ab90)"
        stroke-linejoin="miter"
        stroke-linecap="butt"
        stroke-miterlimit="4"
        stroke-width="1.5238"
        d="M22.779 21.333h-4.913v-7.593l-2.68 1.34-2.233-2.68 4.020-4.020h2.233c0.149 0.744 0.983 2.233 3.126 2.233"
      />
</symbol>
<symbol id="icon-try-on-icon-2" viewBox="0 0 33 32">
<path
        fill="none"
        stroke="#c8ab90"
        style="stroke: var(--color1, #c8ab90)"
        stroke-linejoin="miter"
        stroke-linecap="butt"
        stroke-miterlimit="3.8637"
        stroke-width="1.4222"
        d="M14.735 12.255l1.809 1.809 2.753-2.753"
      />
<path
        fill="none"
        stroke="#c8ab90"
        style="stroke: var(--color1, #c8ab90)"
        stroke-linejoin="miter"
        stroke-linecap="butt"
        stroke-miterlimit="3.8637"
        stroke-width="1.4222"
        d="M17.083 17.581c2.766 0 5.009-2.243 5.009-5.009s-2.243-5.009-5.009-5.009-5.009 2.243-5.009 5.009c0 2.766 2.243 5.009 5.009 5.009z"
      />
<path
        fill="none"
        stroke="#c8ab90"
        style="stroke: var(--color1, #c8ab90)"
        stroke-linejoin="miter"
        stroke-linecap="butt"
        stroke-miterlimit="3.8637"
        stroke-width="1.4222"
        d="M7.635 2.653h-2.031v13.808"
      />
<path
        fill="none"
        stroke="#c8ab90"
        style="stroke: var(--color1, #c8ab90)"
        stroke-linejoin="miter"
        stroke-linecap="butt"
        stroke-miterlimit="3.8637"
        stroke-width="1.4222"
        d="M9.435 4.754h15.255"
      />
<path
        fill="none"
        stroke="#c8ab90"
        style="stroke: var(--color1, #c8ab90)"
        stroke-linejoin="miter"
        stroke-linecap="butt"
        stroke-miterlimit="3.8637"
        stroke-width="1.4222"
        d="M3.931 11.628h-3.217v19.66h30.648v-19.691h-3.155"
      />
<path
        fill="none"
        stroke="#c8ab90"
        style="stroke: var(--color1, #c8ab90)"
        stroke-linejoin="miter"
        stroke-linecap="butt"
        stroke-miterlimit="3.8637"
        stroke-width="1.4222"
        d="M0.925 31.289l15.178-11.801 15.167 11.801"
      />
<path
        fill="none"
        stroke="#c8ab90"
        style="stroke: var(--color1, #c8ab90)"
        stroke-linejoin="miter"
        stroke-linecap="butt"
        stroke-miterlimit="3.8637"
        stroke-width="1.4222"
        d="M26.58 16.602v-15.89h-18.945v17.797"
      />
<path
        fill="none"
        stroke="#c8ab90"
        style="stroke: var(--color1, #c8ab90)"
        stroke-linejoin="miter"
        stroke-linecap="butt"
        stroke-miterlimit="3.8637"
        stroke-width="1.4222"
        d="M0.711 11.701l9.814 9.814"
      />
<path
        fill="none"
        stroke="#c8ab90"
        style="stroke: var(--color1, #c8ab90)"
        stroke-linejoin="miter"
        stroke-linecap="butt"
        stroke-miterlimit="3.8637"
        stroke-width="1.4222"
        d="M31.362 11.701l-9.814 9.814"
      />
</symbol>
<symbol id="icon-try-on-icon-3" viewBox="0 0 33 32">
<path
        fill="none"
        stroke="#c8ab90"
        style="stroke: var(--color1, #c8ab90)"
        stroke-linejoin="miter"
        stroke-linecap="butt"
        stroke-miterlimit="3.8637"
        stroke-width="1.4884"
        d="M3.267 23.7c-1.411-2.288-2.201-4.978-2.201-7.855 0-8.339 6.761-15.1 15.1-15.1s15.1 6.76 15.1 15.1c0 2.916-0.826 5.638-2.257 7.946"
      />
<path
        fill="none"
        stroke="#c8ab90"
        style="stroke: var(--color1, #c8ab90)"
        stroke-linejoin="miter"
        stroke-linecap="butt"
        stroke-miterlimit="3.8637"
        stroke-width="1.4884"
        d="M0.744 23.701h2.547l0.666-2.932"
      />
<path
        fill="none"
        stroke="#c8ab90"
        style="stroke: var(--color1, #c8ab90)"
        stroke-linejoin="miter"
        stroke-linecap="butt"
        stroke-miterlimit="3.8637"
        stroke-width="1.4884"
        d="M31.265 23.718h-2.275l-0.617-2.948"
      />
<path
        fill="none"
        stroke="#c8ab90"
        style="stroke: var(--color1, #c8ab90)"
        stroke-linejoin="miter"
        stroke-linecap="butt"
        stroke-miterlimit="3.8637"
        stroke-width="1.4884"
        d="M10.862 12.091c0 0 1.377 0.313 1.377-0.72s0-1.227 0-1.227-0.157-1.002 1.133-1.002c1.29 0 3.925 0 3.925 0s1.446-0.025 1.947-1.189"
      />
<path
        fill="none"
        stroke="#c8ab90"
        style="stroke: var(--color1, #c8ab90)"
        stroke-linejoin="miter"
        stroke-linecap="round"
        stroke-miterlimit="3.8637"
        stroke-width="1.4884"
        d="M19.246 8.016v1.033c0 0 0.97-0.225 0.97 0.845s0 1.102 0 1.102c0 0-0.119 1.315 1.415 1.315v-5.083c0 0-0.219-2.103-1.885-2.103s-5.465 0-5.465 0c0 0-1.408-0.188-1.408 1.665 0 0-2.041-0.401-2.041 1.415s0 5.333 0 5.333"
      />
<path
        fill="none"
        stroke="#c8ab90"
        style="stroke: var(--color1, #c8ab90)"
        stroke-linejoin="miter"
        stroke-linecap="round"
        stroke-miterlimit="3.8637"
        stroke-width="1.4884"
        d="M21.054 14.173c0 2.923-2.166 5.603-4.837 5.603s-4.838-2.68-4.838-5.603"
      />
<path
        fill="none"
        stroke="#c8ab90"
        style="stroke: var(--color1, #c8ab90)"
        stroke-linejoin="miter"
        stroke-linecap="butt"
        stroke-miterlimit="3.8637"
        stroke-width="1.4884"
        d="M13.208 18.52v3.485l3.115 0.941 2.935-0.98v-3.445"
      />
<path
        fill="none"
        stroke="#c8ab90"
        style="stroke: var(--color1, #c8ab90)"
        stroke-linejoin="miter"
        stroke-linecap="butt"
        stroke-miterlimit="3.8637"
        stroke-width="1.4884"
        d="M13.208 21.926h-1.272l-1.804 1.843c0 0-3.193 0.409-4.7 2.739"
      />
<path
        fill="none"
        stroke="#c8ab90"
        style="stroke: var(--color1, #c8ab90)"
        stroke-linejoin="miter"
        stroke-linecap="butt"
        stroke-miterlimit="3.8637"
        stroke-width="1.4884"
        d="M19.299 21.885h1.020l1.86 1.726c0 0 3.115-0.023 4.857 2.974"
      />
<path
        fill="none"
        stroke="#c8ab90"
        style="stroke: var(--color1, #c8ab90)"
        stroke-linejoin="miter"
        stroke-linecap="round"
        stroke-miterlimit="3.8637"
        stroke-width="1.4884"
        d="M5.393 26.587c0 0 3.138 4.465 10.93 4.465s10.632-4.465 10.632-4.465"
      />
<path
        fill="none"
        stroke="#c8ab90"
        style="stroke: var(--color1, #c8ab90)"
        stroke-linejoin="miter"
        stroke-linecap="butt"
        stroke-miterlimit="3.8637"
        stroke-width="1.4884"
        d="M10.053 23.729l4.095 2.056 2.213-1.938 2.056 1.977 3.798-2.134"
      />
<path
        fill="none"
        stroke="#c8ab90"
        style="stroke: var(--color1, #c8ab90)"
        stroke-linejoin="miter"
        stroke-linecap="butt"
        stroke-miterlimit="3.8637"
        stroke-width="1.4884"
        d="M16.323 22.945v0.981"
      />
<path
        fill="none"
        stroke="#c8ab90"
        style="stroke: var(--color1, #c8ab90)"
        stroke-linejoin="miter"
        stroke-linecap="butt"
        stroke-miterlimit="3.8637"
        stroke-width="1.4884"
        d="M21.649 12.301v1.109l-0.58 0.77"
      />
<path
        fill="none"
        stroke="#c8ab90"
        style="stroke: var(--color1, #c8ab90)"
        stroke-linejoin="miter"
        stroke-linecap="butt"
        stroke-miterlimit="3.8637"
        stroke-width="1.4884"
        d="M10.837 13.456l0.54 0.769"
      />
</symbol>
<symbol id="icon-try-on-icon-4" viewBox="0 0 25 32">
<path
        fill="none"
        stroke="#c8ab90"
        style="stroke: var(--color1, #c8ab90)"
        stroke-linejoin="miter"
        stroke-linecap="butt"
        stroke-miterlimit="3.8637"
        stroke-width="1.3333"
        d="M16.666 24.883v-19.031h-14v21.259h14v-2.228z"
      />
<path
        fill="none"
        stroke="#c8ab90"
        style="stroke: var(--color1, #c8ab90)"
        stroke-linejoin="miter"
        stroke-linecap="butt"
        stroke-miterlimit="3.8637"
        stroke-width="1.3333"
        d="M8.623 29.221h1.851"
      />
<path
        fill="none"
        stroke="#c8ab90"
        style="stroke: var(--color1, #c8ab90)"
        stroke-linejoin="miter"
        stroke-linecap="butt"
        stroke-miterlimit="3.8637"
        stroke-width="1.3333"
        d="M18.815 24.876v3.93c0 1.355-1.118 2.453-2.497 2.453h-13.154c-1.379 0-2.497-1.098-2.497-2.453v-25.686c0-1.355 1.118-2.453 2.497-2.453h13.154c1.379 0 2.497 1.098 2.497 2.453v21.756z"
      />
<path
        fill="#b59475"
        style="fill: var(--color2, #b59475)"
        d="M7.333 2.741h4.667v1.037h-4.667v-1.037z"
      />
<path
        fill="#f2f1f0"
        style="fill: var(--color3, #f2f1f0)"
        d="M5.333 8.964h15.556v15.556h-15.556v-15.556z"
      />
<path
        fill="none"
        stroke="#c8ab90"
        style="stroke: var(--color1, #c8ab90)"
        stroke-linejoin="miter"
        stroke-linecap="butt"
        stroke-miterlimit="3.8637"
        stroke-width="1.3333"
        d="M5.333 10.891c0-0.206 0.15-0.372 0.335-0.372h17.998c0.185 0 0.335 0.166 0.335 0.372v11.7c0 0.206-0.15 0.372-0.335 0.372h-17.998c-0.185 0-0.335-0.166-0.335-0.372v-11.7z"
      />
<path
        fill="#b59475"
        style="fill: var(--color2, #b59475)"
        d="M5.851 12.592h18.148v1.037h-18.148v-1.037z"
      />
<path
        fill="#b59475"
        style="fill: var(--color2, #b59475)"
        d="M5.851 16.223h18.148v1.037h-18.148v-1.037z"
      />
<path
        fill="#b59475"
        style="fill: var(--color2, #b59475)"
        d="M6.889 18.296h5.704v1.037h-5.704v-1.037z"
      />
<path
        fill="none"
        stroke="#c8ab90"
        style="stroke: var(--color1, #c8ab90)"
        stroke-linejoin="miter"
        stroke-linecap="butt"
        stroke-miterlimit="3.8637"
        stroke-width="1.3333"
        d="M21.927 18.814h-7.778v2.074h7.778v-2.074z"
      />
</symbol>
<symbol id="icon-try-on-icon-5" viewBox="0 0 30 32">
<path
        fill="none"
        stroke="#c8ab90"
        style="stroke: var(--color1, #c8ab90)"
        stroke-linejoin="miter"
        stroke-linecap="butt"
        stroke-miterlimit="3.8637"
        stroke-width="1.3617"
        d="M14.979 19.022c0.767 0 1.389-0.622 1.389-1.39s-0.622-1.389-1.389-1.389c-0.767 0-1.389 0.622-1.389 1.389s0.622 1.39 1.389 1.39z"
      />
<path
        fill="none"
        stroke="#c8ab90"
        style="stroke: var(--color1, #c8ab90)"
        stroke-linejoin="miter"
        stroke-linecap="butt"
        stroke-miterlimit="3.8637"
        stroke-width="1.3617"
        d="M15.068 8.462c5.016 0 9.082 4.106 9.082 9.171s-4.066 9.17-9.082 9.17c-2.537 0-4.849-1.051-6.48-2.744"
      />
<path
        fill="none"
        stroke="#c8ab90"
        style="stroke: var(--color1, #c8ab90)"
        stroke-linejoin="miter"
        stroke-linecap="butt"
        stroke-miterlimit="3.8637"
        stroke-width="1.3617"
        d="M14.979 30.694c7.214 0 13.061-5.848 13.061-13.061s-5.848-13.061-13.061-13.061c-7.213 0-13.061 5.848-13.061 13.061s5.848 13.061 13.061 13.061z"
      />
<path
        fill="none"
        stroke="#c8ab90"
        style="stroke: var(--color1, #c8ab90)"
        stroke-linejoin="miter"
        stroke-linecap="butt"
        stroke-miterlimit="3.8637"
        stroke-width="1.3617"
        d="M14.979 4.571c1.074 0 1.945-0.871 1.945-1.945s-0.871-1.945-1.945-1.945c-1.074 0-1.945 0.871-1.945 1.945s0.871 1.945 1.945 1.945z"
      />
<path
        fill="none"
        stroke="#c8ab90"
        style="stroke: var(--color1, #c8ab90)"
        stroke-linejoin="miter"
        stroke-linecap="butt"
        stroke-miterlimit="3.8637"
        stroke-width="1.3617"
        d="M1.362 6.999l2.929-2.983 1.517 1.546-2.849 2.901-1.598-1.463z"
      />
<path
        fill="none"
        stroke="#c8ab90"
        style="stroke: var(--color1, #c8ab90)"
        stroke-linejoin="miter"
        stroke-linecap="butt"
        stroke-miterlimit="3.8637"
        stroke-width="1.3617"
        d="M28.595 6.999l-2.929-2.983-1.517 1.546 2.848 2.901 1.598-1.463z"
      />
<path
        fill="none"
        stroke="#c8ab90"
        style="stroke: var(--color1, #c8ab90)"
        stroke-linejoin="miter"
        stroke-linecap="square"
        stroke-miterlimit="3.8637"
        stroke-width="1.3617"
        d="M8.588 24.024l5.28-5.28"
      />
</symbol>
<symbol id="check" viewBox="0 0 32 32">
        <path
        d="M7.914 16.503l-0.138-0.131-2.067 1.958 7.282 6.947 15.298-14.594-2.053-1.959-13.245 12.623-5.077-4.844z"
      />
    </symbol>
</defs>
</svg>
