<svg width="58" height="42" viewBox="0 0 58 42" fill="none" xmlns="http://www.w3.org/2000/svg">
<path d="M7.00305 37L7 3.15524C7 1.96501 7.80494 1 8.79774 1H50.2023C51.1951 1 52 1.96501 52 3.15524V36.8755" stroke="#C8AB90" stroke-width="2" stroke-miterlimit="3.8637"/>
<path d="M29.0566 37.7435H33.2354V36.8027H57.0003V37.5749C57.0003 37.5749 57.004 40.1545 53.8069 40.2588C51.2514 40.3418 29.0566 40.2588 29.0566 40.2588" stroke="#C8AB90" stroke-width="2" stroke-miterlimit="3.8637"/>
<path d="M35.0563 37.7435H26.2494V36.8027H1V37.5749C1 37.5749 0.996122 40.1545 4.393 40.2588C7.10818 40.3418 35.0563 40.2588 35.0563 40.2588" stroke="#C8AB90" stroke-width="2" stroke-miterlimit="3.8637"/>
<path d="M29.8973 28H34.5869V18.0345L38.1042 19.7931L41.0352 16.2759L35.7593 11H32.8283C32.6329 11.977 31.5386 13.931 28.7249 13.931" stroke="#C8AB90" stroke-width="2"/>
<path d="M29.8972 28H23.4489V18.0345L19.9317 19.7931L17.0007 16.2759L22.2765 11H25.2076C25.403 11.977 26.4972 13.931 29.311 13.931" stroke="#C8AB90" stroke-width="2"/>
</svg>
