<svg width="37" height="48" viewBox="0 0 37 48" fill="none" xmlns="http://www.w3.org/2000/svg">
<path fill-rule="evenodd" clip-rule="evenodd" d="M24.999 37.3249V8.77832H3.99902V40.6672H24.999V37.3249Z" stroke="#C8AB90" stroke-width="2" stroke-miterlimit="3.8637"/>
<path d="M12.9346 43.8311H15.7105" stroke="#C8AB90" stroke-width="2" stroke-miterlimit="3.8637"/>
<path d="M28.2222 37.3142V43.2092C28.2222 45.2414 26.5453 46.8889 24.4768 46.8889H4.7454C2.67692 46.8889 1 45.2414 1 43.2092V4.67966C1 2.64748 2.67692 1 4.7454 1H24.4768C26.5453 1 28.2222 2.64748 28.2222 4.67966V37.3142Z" stroke="#C8AB90" stroke-width="2" stroke-miterlimit="3.8637"/>
<rect x="10.9998" y="4.11133" width="7" height="1.55556" fill="#B59475"/>
<rect x="7.99902" y="13.4453" width="23.3333" height="23.3333" fill="#F2F1F0"/>
<path fill-rule="evenodd" clip-rule="evenodd" d="M7.99902 16.3366C7.99902 16.028 8.22394 15.7783 8.50083 15.7783H35.4972C35.7746 15.7783 35.999 16.028 35.999 16.3366V33.8867C35.999 34.1953 35.7741 34.445 35.4972 34.445H8.50083C8.22394 34.445 7.99902 34.1953 7.99902 33.8867V16.3366Z" stroke="#C8AB90" stroke-width="2" stroke-miterlimit="3.8637"/>
<rect x="8.7771" y="18.8887" width="27.2222" height="1.55556" fill="#B59475"/>
<rect x="8.7771" y="24.334" width="27.2222" height="1.55556" fill="#B59475"/>
<rect x="10.3335" y="27.4443" width="8.55556" height="1.55556" fill="#B59475"/>
<path d="M32.8898 28.2217H21.2231V31.3328H32.8898V28.2217Z" stroke="#C8AB90" stroke-width="2" stroke-miterlimit="3.8637"/>
</svg>
