<svg width="44" height="43" viewBox="0 0 44 43" fill="none" xmlns="http://www.w3.org/2000/svg">
<path d="M4.38984 31.8463C2.49413 28.7714 1.43237 25.1577 1.43237 21.2912C1.43237 10.085 10.5168 1 21.7231 1C32.9294 1 42.0138 10.0844 42.0138 21.2912C42.0138 25.2093 40.9037 28.8676 38.9808 31.9691" stroke="#C8AB90" stroke-width="2" stroke-miterlimit="3.8637"/>
<path d="M1 31.8488H4.42205L5.31717 27.9092" stroke="#C8AB90" stroke-width="2" stroke-miterlimit="3.8637"/>
<path d="M42.0129 31.8707H38.9562L38.1274 27.9092" stroke="#C8AB90" stroke-width="2" stroke-miterlimit="3.8637"/>
<path d="M14.5955 16.2474C14.5955 16.2474 16.4461 16.6677 16.4461 15.2803C16.4461 13.8923 16.4461 13.6314 16.4461 13.6314C16.4461 13.6314 16.2357 12.2853 17.9688 12.2853C19.702 12.2853 23.2433 12.2853 23.2433 12.2853C23.2433 12.2853 25.1869 12.2516 25.8599 10.6875" stroke="#C8AB90" stroke-width="2" stroke-miterlimit="3.8637"/>
<path d="M25.8624 10.7721V12.16C25.8624 12.16 27.1661 11.8572 27.1661 13.2957C27.1661 14.7342 27.1661 14.7766 27.1661 14.7766C27.1661 14.7766 27.0063 16.543 29.0673 16.543V9.71252C29.0673 9.71252 28.7726 6.88607 26.5349 6.88607C24.2972 6.88607 19.1913 6.88607 19.1913 6.88607C19.1913 6.88607 17.2988 6.63381 17.2988 9.12374C17.2988 9.12374 14.5566 8.58553 14.5566 11.0249C14.5566 13.4643 14.5566 18.1918 14.5566 18.1918" stroke="#C8AB90" stroke-width="2" stroke-miterlimit="3.8637" stroke-linecap="round"/>
<path d="M28.2914 19.0449C28.2914 22.9728 25.3812 26.5734 21.7915 26.5734C18.2017 26.5734 15.291 22.9728 15.291 19.0449" stroke="#C8AB90" stroke-width="2" stroke-miterlimit="3.8637" stroke-linecap="round"/>
<path d="M17.7485 24.8857V29.5682L21.9336 30.8327L25.8778 29.5155V24.8857" stroke="#C8AB90" stroke-width="2" stroke-miterlimit="3.8637"/>
<path d="M17.7485 29.4629H16.0398L13.6157 31.9398C13.6157 31.9398 9.32461 32.4889 7.30005 35.6203" stroke="#C8AB90" stroke-width="2" stroke-miterlimit="3.8637"/>
<path d="M25.9331 29.4082H27.3031L29.8023 31.7274C29.8023 31.7274 33.9878 31.697 36.3283 35.7244" stroke="#C8AB90" stroke-width="2" stroke-miterlimit="3.8637"/>
<path d="M7.24707 35.7256C7.24707 35.7256 11.4631 41.7253 21.9338 41.7253C32.4046 41.7253 36.221 35.7256 36.221 35.7256" stroke="#C8AB90" stroke-width="2" stroke-miterlimit="3.8637" stroke-linecap="round"/>
<path d="M13.5083 31.8858L19.0111 34.648L21.9849 32.0439L24.7472 34.7008L29.8505 31.833" stroke="#C8AB90" stroke-width="2" stroke-miterlimit="3.8637"/>
<path d="M21.9336 30.832V32.1498" stroke="#C8AB90" stroke-width="2" stroke-miterlimit="3.8637"/>
<path d="M29.0909 16.5293V18.0189L28.3113 19.0529" stroke="#C8AB90" stroke-width="2" stroke-miterlimit="3.8637"/>
<path d="M14.5627 18.082L15.288 19.1155" stroke="#C8AB90" stroke-width="2" stroke-miterlimit="3.8637"/>
</svg>
