<svg width="44" height="47" viewBox="0 0 44 47" fill="none" xmlns="http://www.w3.org/2000/svg">
<path d="M22.0003 27.9391C23.1274 27.9391 24.0411 27.0253 24.0411 25.8982C24.0411 24.7711 23.1274 23.8574 22.0003 23.8574C20.8732 23.8574 19.9595 24.7711 19.9595 25.8982C19.9595 27.0253 20.8732 27.9391 22.0003 27.9391Z" stroke="#C8AB90" stroke-width="2" stroke-miterlimit="3.8637"/>
<path d="M22.1305 12.4287C29.4979 12.4287 35.4704 18.459 35.4704 25.8984C35.4704 33.3372 29.4979 39.3675 22.1305 39.3675C18.4041 39.3675 15.0086 37.8242 12.6133 35.3367" stroke="#C8AB90" stroke-width="2" stroke-miterlimit="3.8637"/>
<path d="M22.0003 45.0812C32.5952 45.0812 41.184 36.4924 41.184 25.8975C41.184 15.3027 32.5952 6.71387 22.0003 6.71387C11.4055 6.71387 2.81665 15.3027 2.81665 25.8975C2.81665 36.4924 11.4055 45.0812 22.0003 45.0812Z" stroke="#C8AB90" stroke-width="2" stroke-miterlimit="3.8637"/>
<path d="M21.9997 6.71429C23.5777 6.71429 24.8569 5.4351 24.8569 3.85714C24.8569 2.27919 23.5777 1 21.9997 1C20.4218 1 19.1426 2.27919 19.1426 3.85714C19.1426 5.4351 20.4218 6.71429 21.9997 6.71429Z" stroke="#C8AB90" stroke-width="2" stroke-miterlimit="3.8637"/>
<path fill-rule="evenodd" clip-rule="evenodd" d="M2 10.2802L6.30235 5.89844L8.53061 8.16868L4.34689 12.4291L2 10.2802Z" stroke="#C8AB90" stroke-width="2" stroke-miterlimit="3.8637"/>
<path fill-rule="evenodd" clip-rule="evenodd" d="M41.9991 10.2802L37.6973 5.89844L35.4685 8.16868L39.6522 12.4291L41.9991 10.2802Z" stroke="#C8AB90" stroke-width="2" stroke-miterlimit="3.8637"/>
<path d="M12.6133 35.2854L20.3684 27.5303" stroke="#C8AB90" stroke-width="2" stroke-miterlimit="3.8637" stroke-linecap="square"/>
</svg>
