<svg aria-hidden="true" style="position: absolute; width: 0; height: 0; overflow: hidden;" version="1.1" xmlns="http://www.w3.org/2000/svg" xmlns:xlink="http://www.w3.org/1999/xlink">
<defs>
<symbol id="icon-bluze" viewBox="0 0 29 32">
<path stroke-linejoin="round" stroke-linecap="round" stroke-miterlimit="3.8637" stroke-width="1.3061" d="M12.289 2.659c0-1.108 0.898-2.006 2.006-2.006s2.006 0.898 2.006 2.006c0 0.571-0.249 1.086-0.621 1.451-0.368 0.344-1.312 0.651-1.312 2.264"></path>
<path stroke-linejoin="round" stroke-linecap="round" stroke-miterlimit="3.8637" stroke-width="1.3061" d="M24.965 9.91l-10.578-3.536-10.609 3.536"></path>
<path stroke-linejoin="round" stroke-linecap="round" stroke-miterlimit="3.8637" stroke-width="1.3061" d="M2.496 9.122c0 0 3.511 2.921 11.893 2.921s11.87-2.921 11.87-2.921"></path>
<path stroke-linejoin="round" stroke-linecap="round" stroke-miterlimit="3.8637" stroke-width="1.3061" d="M2.536 9.089c-1.082 1.868-1.71 3.71-1.883 5.527l2.971 1.571 1.475-1.182c0 0 3.238 2.236 2.952 8.126s0.273 7.054 0.273 7.054c0.839 0.592 6.043 0.762 6.043 0.762s5.205-0.17 6.044-0.762c0 0 0.559-1.165 0.273-7.054s2.663-8.126 2.663-8.126l1.764 1.182 2.971-1.571c-0.173-1.817-0.801-3.659-1.883-5.527"></path>
<path stroke-linejoin="round" stroke-linecap="round" stroke-miterlimit="3.8637" stroke-width="1.3061" d="M14.368 17.548c0.286 0 0.518-0.232 0.518-0.518s-0.232-0.518-0.518-0.518c-0.286 0-0.518 0.232-0.518 0.518s0.232 0.518 0.518 0.518z"></path>
<path stroke-linejoin="round" stroke-linecap="round" stroke-miterlimit="3.8637" stroke-width="1.3061" d="M14.368 21.193c0.286 0 0.518-0.232 0.518-0.518s-0.232-0.518-0.518-0.518c-0.286 0-0.518 0.232-0.518 0.518s0.232 0.518 0.518 0.518z"></path>
</symbol>
</defs>
</svg>
