<svg
  aria-hidden="true"
  style="position: absolute; width: 0; height: 0;"
  xmlns="http://www.w3.org/2000/svg"
  overflow="hidden"
>
    <defs>
        <symbol id="icon-yaco" viewBox="0 0 57 32">
            <path
        d="M20.267 3.733l3.738 3.538-6.938-.004v17.166H35.2v-6.564l3.733 3.534V3.732H20.266zm14.769 13.722L24.439 7.423h10.597v10.032zm-3.29 4.468h-11.81V10.378h.835v10.764h10.975v.782zm-9.021 4.797l-.436.898-.436-.898h-.366l.637 1.198v.698h.331v-.698l.635-1.198h-.365zm.548 1.895l.154-.441h.734l.155.441h.344l-.717-1.896h-.296l-.716 1.896h.342zm.521-1.493l.275.786h-.549l.275-.786zm1.737.741a.429.429 0 00-.072.241c0 .16.056.29.168.389s.263.148.451.148.349-.051.484-.152l.107.126h.367l-.279-.329a.95.95 0 00.164-.574h-.275a.758.758 0 01-.079.348l-.366-.432.129-.094c.091-.066.157-.132.197-.198s.06-.14.06-.219c0-.12-.044-.22-.133-.301s-.201-.122-.339-.122c-.153 0-.274.043-.365.13s-.135.203-.135.352c0 .061.014.124.043.189s.081.144.155.237a1.12 1.12 0 00-.283.262zm.855.419a.485.485 0 01-.299.107c-.095 0-.17-.027-.227-.082s-.085-.126-.085-.214c0-.102.052-.192.156-.271l.04-.029.414.488zm-.34-.84c-.089-.11-.134-.202-.134-.275 0-.063.018-.116.055-.158s.085-.063.147-.063c.057 0 .105.018.142.053s.056.077.056.126a.235.235 0 01-.081.184l-.04.033-.145.099zm3.086 1.03a.689.689 0 00.224-.474h-.328c-.017.135-.059.232-.124.29s-.162.087-.292.087c-.142 0-.249-.054-.323-.161s-.109-.264-.109-.469v-.168c.002-.202.041-.355.117-.46s.188-.158.331-.158c.123 0 .217.03.28.091s.104.158.12.294h.328c-.021-.207-.095-.368-.223-.482s-.296-.171-.505-.171a.718.718 0 00-.683.426 1.116 1.116 0 00-.095.473v.177c.003.174.035.328.098.46s.151.234.266.306a.748.748 0 00.4.107c.216 0 .389-.056.52-.169zm1.936-.266c.064-.141.096-.304.096-.49v-.105c-.001-.185-.034-.347-.099-.486a.726.726 0 00-.687-.432.757.757 0 00-.411.113c-.119.075-.211.183-.277.324s-.098.305-.098.49v.107c.001.181.034.342.099.48s.159.246.279.322a.764.764 0 00.411.112c.155 0 .293-.037.411-.112s.212-.183.276-.323zm-.352-1.071c.08.112.12.273.12.483v.099c0 .214-.04.376-.119.487s-.19.167-.336.167c-.144 0-.257-.057-.339-.171s-.121-.275-.121-.483v-.109c.002-.204.043-.362.122-.473s.192-.168.335-.168c.146 0 .258.056.337.168z"
      />
        </symbol>
        <symbol id="icon-close-black" viewBox="0 0 32 32">
        <path
        d="M26.667 7.303l-1.97-1.97-7.808 7.808-7.808-7.808-1.97 1.97 7.808 7.808-7.808 7.808 1.97 1.97 7.808-7.808 7.808 7.808 1.97-1.97-7.808-7.808 7.808-7.808z"
      />
        </symbol>
        <symbol id="icon-company_tag_line_here" viewBox="0 0 57 32">
            <path
        d="M26.727 3.165h-.073a7.542 7.542 0 00-.336-.012h-.243c-.212 0-.428.005-.642.016a.4.4 0 00-.049 0c-1.944.11-3.848.596-5.609 1.431l-.231.111V16.52l.54-.183a20.64 20.64 0 011.5-.445 18.34 18.34 0 014.317-.574v1.551c-.193.001-.38.007-.568.016h-.045a17.207 17.207 0 00-3.322.51 16.858 16.858 0 00-3.957 1.542V3.792a15.847 15.847 0 014.151-1.688c1.278-.33 2.593-.5 3.913-.504h.228c.273.007.538.019.788.038.658.046 1.31.15 1.95.311v1.527a12.05 12.05 0 00-1.889-.285l-.039-.003c-.132-.011-.263-.022-.386-.022zm2.688 1.561c.339.026.689.038 1.044.038a16.75 16.75 0 004.114-.528 16.958 16.958 0 003.956-1.543v14.875a15.88 15.88 0 01-4.153 1.688 15.948 15.948 0 01-3.913.503c-1 .008-1.997-.11-2.968-.35V4.438c.229.053.465.102.706.142.394.066.81.115 1.214.145zm7.57.115l-.54.182c-.497.167-.997.316-1.5.449a18.23 18.23 0 01-4.483.575c-.352 0-.676-.01-.989-.03l-.43-.028v12.148l.37.033c.343.03.696.045 1.052.045a14.364 14.364 0 003.531-.457c.95-.238 1.874-.57 2.759-.991l.231-.111V4.843zM19.06 24.113a.788.788 0 00-.6-.243.895.895 0 00-.347.065.778.778 0 00-.444.449.893.893 0 00-.062.335v2.023a.94.94 0 00.08.415.718.718 0 00.48.415c.098.028.2.042.302.042a.855.855 0 00.838-.851v-.226h-.529v.18a.458.458 0 01-.031.18.315.315 0 01-.077.114.38.38 0 01-.222.077.266.266 0 01-.249-.109.479.479 0 01-.07-.271v-1.887a.643.643 0 01.065-.302c.027-.043.066-.077.112-.098s.097-.03.147-.024a.28.28 0 01.236.114c.059.078.09.173.088.271v.175h.524v-.206a.953.953 0 00-.242-.639zM22.202 24.09a.92.92 0 00-1.197 0 .82.82 0 00-.205.283.959.959 0 00-.077.392v1.941a.932.932 0 00.077.397.791.791 0 00.205.271.837.837 0 00.279.171.897.897 0 00.918-.171.849.849 0 00.2-.271.934.934 0 00.077-.397v-1.941a.943.943 0 00-.077-.392.867.867 0 00-.2-.283zm-.247 2.616a.355.355 0 01-.105.28.386.386 0 01-.498 0 .352.352 0 01-.105-.28v-1.941a.355.355 0 01.105-.28.386.386 0 01.498 0 .352.352 0 01.105.28v1.941zM26.329 27.573v-3.674h-.509l-.668 1.945h-.009l-.673-1.945h-.503v3.674h.525v-2.235h.009l.514 1.58h.262l.518-1.58h.009v2.235h.525zM29.311 24.157a.727.727 0 00-.297-.201 1.168 1.168 0 00-.38-.057h-.78v3.674h.523v-1.435h.27a.964.964 0 00.472-.1.759.759 0 00.287-.281.875.875 0 00.12-.32c.021-.138.03-.278.028-.418a2.107 2.107 0 00-.051-.525.785.785 0 00-.193-.338zm-.27 1.12a.45.45 0 01-.049.191.296.296 0 01-.135.129.538.538 0 01-.247.046h-.239v-1.249h.27a.506.506 0 01.236.046.3.3 0 01.123.136.537.537 0 01.046.205v.244c0 .085.005.174 0 .252h-.005zM31.791 23.899h-.429l-.809 3.674h.523l.154-.789h.714l.154.789h.524l-.83-3.674zm-.483 2.384l.258-1.332h.009l.256 1.332h-.524zM35.173 26.112h-.009l-.791-2.213h-.503v3.674h.523v-2.209h.011l.8 2.209h.492v-3.674h-.523v2.213zM38.372 23.899l-.421 1.461h-.011l-.421-1.461h-.554l.719 2.121v1.553h.524V26.02l.719-2.121h-.554zM17.6 28.61h.252v.708h.171v-.708h.251v-.145h-.675v.145zM19.721 28.465l-.331.853h.182l.07-.194h.34l.073.194h.186l-.339-.853h-.182zm-.027.516l.116-.316.116.316h-.232zM21.818 29.004h.197v.11a.332.332 0 01-.202.072c-.034.002-.069-.004-.1-.019s-.059-.036-.081-.063a.352.352 0 01-.063-.222c0-.19.082-.285.246-.285.043-.004.086.007.121.032s.061.062.072.104l.169-.033c-.036-.167-.156-.251-.362-.251a.426.426 0 00-.298.11.413.413 0 00-.122.328.465.465 0 00.109.32.408.408 0 00.324.125.511.511 0 00.362-.136v-.336h-.37v.144zM23.959 28.465h-.173v.853h.598v-.145h-.425v-.708zM25.769 28.465h-.173v.853h.173v-.853zM27.539 29.035l-.349-.57h-.167v.853h.161v-.557l.343.557h.171v-.853h-.158v.57zM29.14 28.943h.425v-.145h-.425v-.187h.457v-.145h-.63v.853h.648v-.145h-.475v-.231zM33.02 28.802h-.336v-.336h-.171v.853h.171v-.373h.336v.373h.171v-.853h-.171v.336zM34.629 28.943h.426v-.145h-.426v-.187h.459v-.145h-.63v.853h.646v-.145h-.475v-.231zM36.812 28.943c.148-.023.224-.102.224-.237a.203.203 0 00-.084-.189.479.479 0 00-.25-.05h-.362v.853h.171v-.357h.034a.231.231 0 01.107.019.181.181 0 01.061.062l.186.271h.205L37 29.148a.6.6 0 00-.189-.205zm-.172-.118h-.127v-.214h.135a.445.445 0 01.174.02c.012.011.022.025.029.04a.116.116 0 01-.004.097.114.114 0 01-.032.037.486.486 0 01-.174.02zM38.458 28.943h.425v-.145h-.425v-.187h.459v-.145h-.631v.853h.648v-.145h-.475v-.231z"
      />
        </symbol>
        <symbol id="icon-company" viewBox="0 0 57 32">
            <path
        d="M19.417 26.187c.008 0 .017.002.025.005s.015.007.02.013l.116.111a.955.955 0 01-.327.211 1.299 1.299 0 01-.464.076 1.213 1.213 0 01-.436-.071.942.942 0 01-.329-.2.878.878 0 01-.212-.308 1.02 1.02 0 01-.074-.396.91.91 0 01.305-.705 1.06 1.06 0 01.349-.201c.143-.048.296-.072.449-.071.143-.003.285.019.417.064.115.043.221.104.313.178l-.097.119a.085.085 0 01-.025.021.066.066 0 01-.039.009.086.086 0 01-.042-.013l-.052-.032-.073-.04a.818.818 0 00-.229-.071 1.11 1.11 0 00-.173-.013.952.952 0 00-.323.053.683.683 0 00-.417.387.81.81 0 00-.06.313.795.795 0 00.06.318.68.68 0 00.402.383.867.867 0 00.3.05c.059.001.119-.003.177-.01a.69.69 0 00.384-.163.09.09 0 01.055-.02zM22.776 25.629a.974.974 0 01-.078.393c-.047.114-.122.218-.219.305s-.214.155-.344.2a1.42 1.42 0 01-.884 0 1.027 1.027 0 01-.342-.201.904.904 0 01-.221-.308 1.022 1.022 0 010-.787.94.94 0 01.221-.31c.097-.084.214-.15.342-.193.284-.096.6-.096.884 0 .129.046.246.114.343.201a.914.914 0 01.298.699zm-.306 0a.84.84 0 00-.055-.316.653.653 0 00-.402-.385 1.025 1.025 0 00-.643 0 .683.683 0 00-.246.149.63.63 0 00-.157.236.927.927 0 000 .632.643.643 0 00.403.384c.207.067.435.067.643 0a.698.698 0 00.246-.148.662.662 0 00.156-.236.82.82 0 00.055-.316zM25.067 25.96l.03.071.033-.071a.68.68 0 01.038-.07l.743-1.174c.015-.02.028-.033.042-.037a.207.207 0 01.061-.006h.22v1.909h-.26v-1.404-.059a.726.726 0 010-.066l-.747 1.19c-.009.018-.025.033-.044.043s-.041.016-.064.016h-.042c-.023 0-.045-.005-.064-.016s-.034-.026-.044-.044l-.769-1.198v1.533h-.252v-1.905h.22a.207.207 0 01.061.006.087.087 0 01.041.037l.759 1.175a.418.418 0 01.038.068zM27.864 25.865v.715h-.291v-1.906h.649c.122-.002.244.012.362.042a.724.724 0 01.256.119.492.492 0 01.145.187.576.576 0 01.049.244.54.54 0 01-.211.435.752.752 0 01-.257.126 1.25 1.25 0 01-.35.044l-.352-.005zm0-.205h.352a.808.808 0 00.225-.029.52.52 0 00.163-.082.358.358 0 00.134-.286c.003-.053-.007-.106-.029-.155s-.057-.094-.102-.13a.624.624 0 00-.391-.102h-.352v.786zM31.772 26.583h-.23a.109.109 0 01-.064-.018.123.123 0 01-.038-.044l-.198-.461h-.993l-.205.461a.107.107 0 01-.101.062h-.23l.872-1.909h.302l.884 1.909zm-1.439-.709h.82l-.346-.777a1.276 1.276 0 01-.065-.179l-.034.1a.98.98 0 01-.032.081l-.343.776zM33.029 24.682c.017.008.032.02.044.034l1.272 1.439v-.067-1.415h.26v1.909h-.145a.136.136 0 01-.06-.011.165.165 0 01-.047-.035l-1.271-1.438a.726.726 0 010 .066v1.419h-.26v-1.909h.154a.15.15 0 01.052.009zM36.748 25.823v.758h-.291v-.758l-.804-1.15h.26a.114.114 0 01.063.016.159.159 0 01.039.043l.503.742a.717.717 0 01.088.169l.038-.082a.745.745 0 01.049-.087l.496-.747a.18.18 0 01.038-.04.098.098 0 01.063-.019h.263l-.806 1.155zM24.923 21.47c.127.014.255.025.384.035 1.962-.763 3.622-2.011 4.772-3.588s1.74-3.415 1.695-5.282l-2.162-1.879c.44 1.988.234 4.043-.594 5.935s-2.245 3.547-4.094 4.779z"
      />
            <path
        d="M24.151 21.383l.058.01c1.975-1.228 3.482-2.942 4.323-4.921s.981-4.133.4-6.181l-3.08-2.676c1.246 2.2 1.747 4.661 1.446 7.098s-1.393 4.75-3.147 6.67zM34.596 14.841c-.523 2.052-1.794 3.902-3.624 5.276-.534.404-1.111.763-1.722 1.074 1.49-.38 2.859-1.053 4.003-1.966s2.03-2.042 2.592-3.3l-1.249-1.084z"
      />
            <path
        d="M34.106 14.539l-1.778-1.545c-.034 1.762-.61 3.483-1.669 4.986s-2.562 2.731-4.352 3.559h.009c.399 0 .798-.021 1.194-.062 1.673-.593 3.151-1.537 4.303-2.748s1.94-2.65 2.295-4.189zM24.409 6.486L22.287 4.64c-1.897.637-3.528 1.756-4.68 3.212s-1.772 3.179-1.778 4.946c.007 1.952.763 3.846 2.149 5.383s3.322 2.628 5.501 3.101c1.946-2.06 3.085-4.605 3.252-7.266s-.647-5.299-2.323-7.53zM39.008 14.255c-.008-2.316-1.07-4.535-2.955-6.173s-4.439-2.561-7.105-2.567a11.3 11.3 0 00-3.602.582l12.99 11.286a7.647 7.647 0 00.672-3.128z"
      />
        </symbol>
        <symbol id="icon-foster_peters" viewBox="0 0 57 32">
            <path
        d="M12.878 11.255h-.002c-1.279 0-2.316.921-2.316 2.058v.001c0 1.137 1.037 2.058 2.316 2.058h.002c1.279 0 2.316-.921 2.316-2.058v-.001c0-1.137-1.037-2.058-2.316-2.058zM29.971 10.597c-.004-1.579-.711-3.092-1.967-4.208s-2.958-1.745-4.735-1.749c-1.777.003-3.48.631-4.737 1.748s-1.964 2.63-1.968 4.209v8.706s13.405-1.327 13.406-8.704v-.001zM5.867 22.16c.003 1.098.496 2.151 1.369 2.928s2.058 1.215 3.294 1.218c1.236-.003 2.42-.441 3.294-1.218s1.366-1.829 1.37-2.927v-6.057s-9.327.924-9.327 6.056zm4.663 1.085c-.242 0-.478-.064-.678-.183s-.357-.289-.45-.487c-.092-.198-.117-.417-.069-.627s.163-.404.334-.556c.171-.152.388-.255.625-.297s.482-.02.706.062c.223.082.414.221.548.4s.206.388.206.603c.001.143-.031.284-.092.417s-.151.252-.264.353c-.114.101-.248.182-.397.236s-.308.083-.468.083v-.004zM19.956 22.647h-.9v.93h-.469v-2.275h1.481v.38h-1.012v.588h.9v.378zm2.253-.156c0 .224-.04.42-.119.589a.893.893 0 01-.847.528c-.189 0-.357-.045-.505-.136s-.262-.22-.344-.387a1.344 1.344 0 01-.123-.581v-.112c0-.224.04-.421.12-.591a.895.895 0 01.848-.529c.189 0 .358.046.505.137a.888.888 0 01.342.392c.081.17.122.366.122.589v.102zm-.475-.103c0-.238-.043-.42-.128-.544s-.207-.186-.366-.186a.416.416 0 00-.364.184c-.085.122-.129.301-.13.538v.111c0 .232.043.412.128.541s.208.192.369.192a.415.415 0 00.363-.184c.084-.124.127-.304.128-.541v-.111zm1.996.592a.237.237 0 00-.094-.203 1.203 1.203 0 00-.337-.15 2.418 2.418 0 01-.386-.156c-.258-.14-.387-.328-.387-.564 0-.123.034-.232.103-.328a.688.688 0 01.298-.227c.13-.054.276-.081.438-.081.163 0 .307.03.434.089a.662.662 0 01.401.614h-.469c0-.104-.033-.185-.098-.242s-.158-.087-.277-.087a.426.426 0 00-.267.073.225.225 0 00-.095.191c0 .074.037.136.111.186.075.05.185.097.33.141.267.08.461.18.583.298s.183.267.183.444a.55.55 0 01-.223.464c-.149.111-.349.167-.602.167-.175 0-.334-.032-.478-.095-.144-.065-.254-.153-.33-.264s-.113-.241-.113-.388h.47c0 .251.15.377.45.377a.442.442 0 00.261-.067.222.222 0 00.094-.191zm2.501-1.298h-.697v1.895h-.469v-1.895h-.687v-.38h1.853v.38zm1.638.909h-.9v.609h1.056v.377H26.5v-2.275h1.522v.38h-1.053v.542h.9v.367zm1.273.153h-.373v.833H28.3v-2.275h.845c.269 0 .476.06.622.18s.219.289.219.508a.697.697 0 01-.102.389.689.689 0 01-.305.247l.492.93v.022h-.503l-.427-.833zm-.373-.379h.378c.118 0 .209-.03.273-.089a.321.321 0 00.097-.248.343.343 0 00-.092-.253c-.06-.061-.154-.092-.28-.092h-.377v.683zm2.84.41v.802h-.469v-2.275h.887c.171 0 .321.031.45.094a.703.703 0 01.405.659.655.655 0 01-.23.528c-.152.128-.363.192-.633.192h-.411zm0-.379h.419c.124 0 .218-.029.283-.088.066-.058.098-.142.098-.25 0-.111-.033-.202-.098-.27s-.156-.104-.272-.106h-.43v.714zm2.966.195h-.9v.609h1.056v.377h-1.525v-2.275h1.522v.38h-1.053v.542h.9v.367zm2.175-.909h-.697v1.895h-.469v-1.895h-.688v-.38h1.853v.38zm1.637.909h-.9v.609h1.056v.377h-1.525v-2.275h1.522v.38h-1.053v.542h.9v.367zm1.274.153h-.373v.833h-.469v-2.275h.845c.269 0 .476.06.622.18s.219.289.219.508a.697.697 0 01-.102.389.689.689 0 01-.305.247l.492.93v.022h-.503l-.427-.833zm-.374-.379h.378c.118 0 .209-.03.273-.089a.321.321 0 00.097-.248.343.343 0 00-.092-.253c-.06-.061-.154-.092-.28-.092h-.377v.683zm2.755.615a.237.237 0 00-.094-.203 1.203 1.203 0 00-.337-.15 2.418 2.418 0 01-.386-.156c-.258-.14-.388-.328-.388-.564 0-.123.034-.232.103-.328a.688.688 0 01.298-.227c.13-.054.276-.081.438-.081.163 0 .307.03.434.089a.675.675 0 01.295.248.646.646 0 01.106.366h-.469c0-.104-.033-.185-.098-.242s-.158-.087-.277-.087a.426.426 0 00-.267.073.225.225 0 00-.095.191c0 .074.037.136.111.186.075.05.185.097.33.141.267.08.461.18.583.298s.183.267.183.444a.548.548 0 01-.223.464c-.149.111-.349.167-.602.167-.175 0-.334-.032-.478-.095a.773.773 0 01-.33-.264.678.678 0 01-.112-.388h.47c0 .251.15.377.45.377a.442.442 0 00.261-.067.222.222 0 00.094-.191z"
      />
        </symbol>
        <symbol id="icon-brand" viewBox="0 0 57 32">
            <path
        d="M14.27 23.859c.13.147.199.332.196.521.007.123-.017.247-.07.361s-.132.216-.233.297c-.252.175-.565.26-.881.24h-1.549v-3.302h1.517c.299-.018.596.059.84.219.098.075.176.17.227.277s.074.224.068.341a.725.725 0 01-.176.505.839.839 0 01-.462.258.897.897 0 01.523.282zm-1.816-.499h.648a.653.653 0 00.412-.11c.049-.04.087-.09.111-.146s.034-.116.028-.176c.005-.06-.005-.12-.029-.175s-.061-.106-.108-.147a.665.665 0 00-.425-.111h-.638v.866zm1.124 1.267c.052-.041.093-.093.12-.151s.038-.121.034-.184c.004-.064-.008-.127-.035-.186s-.069-.111-.121-.153a.714.714 0 00-.44-.119h-.68v.908h.689a.732.732 0 00.435-.114zM17.371 25.278l-.844-1.291h-.317v1.291h-.726v-3.302h1.374c.346-.022.689.078.957.281.192.179.308.415.327.666s-.061.499-.224.7c-.17.178-.401.296-.655.336l.898 1.32h-.789zm-1.161-1.74h.594c.412 0 .618-.167.618-.5a.458.458 0 00-.151-.371.687.687 0 00-.467-.134h-.601l.007 1.005zM21.339 24.614h-1.446l-.255.665h-.761l1.328-3.265h.823l1.323 3.265h-.761l-.25-.665zm-.194-.5l-.529-1.394-.529 1.394h1.057zM26.305 25.278h-.721l-1.616-2.245v2.245h-.719v-3.302h.719l1.616 2.258v-2.258h.721v3.302zM30.417 24.488a1.501 1.501 0 01-.652.582 2.282 2.282 0 01-1.013.208h-1.283v-3.302h1.283c.351-.008.698.061 1.013.203.276.127.503.328.652.576a1.78 1.78 0 010 1.732zm-.824-.079c.206-.219.319-.499.319-.788s-.113-.569-.319-.788a1.326 1.326 0 00-.902-.281h-.5v2.137h.5c.329.019.654-.082.902-.281zM21.79 3.609s9.301 3.215 9.103 7.867v7.869s-9.294-3.217-9.1-7.869l-.004-7.867zM39.179 17.503a13.494 13.494 0 015.909-1.994v-2.463c-2.444.862-4.517 2.426-5.909 4.457z"
      />
            <path
        d="M38.124 18.245c1.438-2.651 3.93-4.696 6.964-5.715V5.432s-13.245 4.58-12.965 11.205V27.84s.59-.205 1.519-.589c0-.358 0-.719.042-1.082.274-3.076 1.871-5.926 4.44-7.924z"
      />
            <path
        d="M36.864 22.407c.07-.777.225-1.546.463-2.294-1.599 1.725-2.568 3.866-2.77 6.122-.019.213-.03.426-.035.645a40.466 40.466 0 002.548-1.229 10.624 10.624 0 01-.206-3.244zM37.391 22.447a10.17 10.17 0 00.164 2.938c3.619-1.983 7.685-5.046 7.528-8.748v-.323c-2.585.265-5.004 1.3-6.885 2.946a10.29 10.29 0 00-.807 3.188z"
      />
        </symbol>
        <symbol id="icon-company_tag_line" viewBox="0 0 57 32">
            <path
        d="M28.493 14.618a1.58 1.58 0 01-.323-1.061v-1.538c0-.471.107-.83.321-1.075s.581-.367 1.102-.366c.489 0 .836.104 1.042.313.224.266.333.592.308.92v.361h-.875v-.366c.003-.12-.005-.24-.025-.358a.352.352 0 00-.125-.213.505.505 0 00-.317-.083.533.533 0 00-.333.088.412.412 0 00-.145.235 1.74 1.74 0 00-.034.38v1.866c-.014.18.025.36.112.524.044.055.104.099.175.127s.149.038.226.029a.478.478 0 00.31-.084.375.375 0 00.13-.227c.02-.124.03-.249.027-.374v-.379h.875v.346c.025.342-.082.682-.303.967-.201.228-.544.343-1.047.343s-.884-.122-1.1-.375zM32.137 14.633c-.221-.239-.332-.588-.332-1.05v-1.617c0-.457.11-.802.332-1.037s.591-.351 1.109-.35c.515 0 .882.117 1.103.35.221.235.333.58.333 1.037v1.617c0 .457-.112.807-.337 1.048s-.591.361-1.1.361c-.509 0-.886-.122-1.109-.36zm1.517-.388a.906.906 0 00.105-.479v-1.98a.88.88 0 00-.103-.469c-.044-.057-.106-.101-.179-.129s-.152-.037-.231-.027c-.079-.009-.159 0-.231.028s-.135.072-.18.129a.853.853 0 00-.105.469v1.99a.888.888 0 00.105.479c.051.05.114.091.185.119a.612.612 0 00.635-.119v-.009zM35.735 10.626h.942l.708 2.984.725-2.984h.917l.092 4.308h-.678l-.072-2.994-.699 2.994h-.544l-.725-3.005-.067 3.005h-.685l.085-4.308zM40.176 10.626h1.468c.846 0 1.268.408 1.268 1.223 0 .781-.445 1.171-1.335 1.17h-.5v1.915h-.906l.005-4.308zm1.254 1.841a.7.7 0 00.498-.136.693.693 0 00.13-.486 1.327 1.327 0 00-.044-.391c-.013-.043-.036-.083-.067-.118s-.07-.065-.114-.087a.94.94 0 00-.404-.069h-.352v1.287h.352zM44.218 10.626h.973l.998 4.308h-.844l-.197-.993h-.868l-.203.993h-.857l.998-4.308zm.832 2.815l-.339-1.808-.339 1.808h.678zM46.996 10.626h.634l1.214 2.457v-2.457h.752v4.308h-.603l-1.221-2.565v2.565h-.777l.002-4.308zM51.357 13.291l-1.009-2.659h.85l.616 1.708.578-1.708h.832l-.997 2.659v1.642h-.87v-1.642zM29.892 16.817v.225h-.739v1.75h-.31v-1.75H28.1v-.225h1.792zM32.209 18.793h-.239a.105.105 0 01-.067-.019.102.102 0 01-.04-.045l-.214-.469h-1.026l-.214.469a.119.119 0 01-.033.053.112.112 0 01-.067.019h-.239l.906-1.976h.315l.917 1.968zm-1.5-.734h.855l-.362-.804a1.426 1.426 0 01-.067-.186 4.03 4.03 0 00-.034.105l-.033.083-.359.802zM33.771 18.599a1.018 1.018 0 00.315-.023.961.961 0 00.13-.036c.04-.014.08-.031.121-.048v-.444h-.362c-.009 0-.018-.001-.026-.003s-.016-.007-.023-.012c-.006-.004-.011-.01-.014-.016s-.005-.013-.004-.02v-.152h.703v.757a1.407 1.407 0 01-.609.202 2.591 2.591 0 01-.264.012 1.41 1.41 0 01-.457-.073 1.104 1.104 0 01-.362-.206.956.956 0 01-.234-.313.99.99 0 01-.083-.41.907.907 0 01.316-.726c.103-.089.227-.159.362-.205.155-.05.32-.075.486-.074.084 0 .169.006.252.017a1.21 1.21 0 01.397.128c.056.031.108.065.158.103l-.087.122c-.007.011-.017.021-.029.027s-.027.01-.041.01a.118.118 0 01-.056-.016 1.344 1.344 0 01-.089-.047.727.727 0 00-.121-.053 1.171 1.171 0 00-.167-.044 1.362 1.362 0 00-.23-.017 1.06 1.06 0 00-.35.055.704.704 0 00-.435.402.924.924 0 000 .659.756.756 0 00.446.405c.115.034.237.047.359.039zM36.659 18.567h.989v.225h-1.292v-1.976h.31l-.007 1.75zM38.678 18.792h-.31v-1.976h.31v1.976zM39.83 16.826a.151.151 0 01.047.036l1.324 1.489a.41.41 0 010-.07v-1.472h.27v1.984h-.156a.14.14 0 01-.067-.011.184.184 0 01-.049-.038l-1.323-1.488v1.536h-.259v-1.976h.161c.017 0 .035.003.051.009zM43.753 16.817v.217h-1.098v.652h.89v.21h-.89v.674h1.098v.217h-1.417v-1.971h1.417zM11.286 4.616l13.757 3.372v11.818l-13.757-3.371V4.616zm-.882-1.007V17.01l15.52 3.806V7.417L10.404 3.61z"
      />
            <path d="M18.722 27.036L3.2 23.227V9.828l15.522 3.807v13.401z" />
            <path
        d="M10.661 4.465l13.578 3.33-5.774 4.987L4.885 9.45l5.776-4.985zm-.257-.856L3.2 9.828l15.522 3.807 7.202-6.219-15.52-3.807zM19.595 26.282l6.329-5.465-6.329-1.553v7.018z"
      />
        </symbol>
        <symbol id="icon-smartphone" viewBox="0 0 20 32">
            <path
        d="M17 0H3C1.346 0 0 1.346 0 3v26c0 1.654 1.346 3 3 3h14c1.654 0 3-1.346 3-3V3c0-1.654-1.346-3-3-3zM3 2h14a1 1 0 011 1v21H2V3a1 1 0 011-1zm14 28H3a1 1 0 01-1-1v-3h16v3a1 1 0 01-1 1z"
      />
            <path
        d="M4.707 27.478c.391.365.391.956 0 1.321s-1.024.365-1.414 0c-.391-.365-.391-.956 0-1.321s1.024-.365 1.414 0z"
      />
        </symbol>
        <symbol id="icon-envelope" viewBox="0 0 43 32">
            <path
        d="M38.667 0H4C1.794 0 0 1.794 0 4v24c0 2.206 1.794 4 4 4h34.667c2.206 0 4-1.794 4-4V4c0-2.206-1.794-4-4-4zm0 2.667c.181 0 .353.038.511.103L21.334 18.236 3.49 2.77a1.32 1.32 0 01.511-.103h34.667zm0 26.666H4A1.334 1.334 0 012.667 28V5.587L20.46 21.008a1.335 1.335 0 001.748 0L40.001 5.587V28c0 .736-.598 1.333-1.333 1.333z"
      />
        </symbol>
        <symbol id="icon-antenna" viewBox="0 0 32 32">
            <path
        fill="var(--color4, #212121)"
        d="M30.773 22.098l-8.443-8.505.937-4.616c.225.09.485.144.758.146h.033a2.16 2.16 0 10-2.029-1.42l-.005-.015-4.96.606L8.973.161a.53.53 0 00-.376-.16.536.536 0 00-.373.155L6.712 1.66a.535.535 0 000 .754l.814.825C6.383 5.301 5.71 7.761 5.71 10.378c0 4.106 1.656 7.824 4.336 10.525l-.001-.001a.49.49 0 00.146.097 2.986 2.986 0 00-.052.546v6.188h-6.4a2.669 2.669 0 00-2.667 2.666v1.067c0 .295.239.534.534.534H26.14a.534.534 0 00.533-.534v-1.067a2.67 2.67 0 00-2.666-2.666h-6.4v-2.742a14.784 14.784 0 0010.166-1.502l-.077.039.818.823a.534.534 0 00.376.16.536.536 0 00.373-.155l1.512-1.504a.535.535 0 000-.754zM23.28 6.233a1.067 1.067 0 11.752 1.822h-.004a1.066 1.066 0 01-.747-1.822h-.002zm-1.256 3.504l-.598 2.946-1.175-1.183 1.774-1.763zm-.605-.902l-1.92 1.909-1.486-1.493 3.406-.416zM24.004 28.8a1.6 1.6 0 011.6 1.6v.534H2.138V30.4a1.6 1.6 0 011.6-1.6h20.267zm-7.466-2.134v1.067h-5.334v-1.067h5.334zM11.204 25.6v-4.053c0-1.294 1.196-2.346 2.667-2.346s2.667 1.053 2.667 2.346V25.6h-5.334zm6.4-1.696v-2.357c0-1.882-1.675-3.413-3.733-3.413h-.058c-1.353 0-2.54.707-3.213 1.771l-.009.016a13.817 13.817 0 01-3.812-9.55c0-2.314.567-4.496 1.569-6.414l-.036.077 18.602 18.709c-1.823.947-3.979 1.502-6.266 1.502-1.079 0-2.128-.124-3.136-.357l.093.018zm11.289-.684L7.836 2.039l.754-.752 7.935 7.98c.004 0 .006.007.01.01l13.114 13.191-.757.752z"
      />
            <path
        fill="var(--color2, #2196f3)"
        d="M13.876 20.267h-.007a1.6 1.6 0 00-.003 3.2h.007a1.6 1.6 0 00.002-3.2zm.373 1.978a.534.534 0 11-.378-.912.533.533 0 01.374.911h.005z"
      />
        </symbol>
        <symbol id="icon-astronaut" viewBox="0 0 32 32">
            <path
        fill="var(--color2, #2196f3)"
        d="M31.974 4.524a.535.535 0 00-.427-.362h-.003l-1.911-.278-.855-1.731c-.179-.365-.777-.365-.956 0l-.855 1.731-1.911.278a.534.534 0 00-.296.91l1.383 1.348-.326 1.903a.532.532 0 00.774.562l1.709-.899 1.709.899a.534.534 0 00.773-.565v.003l-.326-1.903 1.383-1.348a.535.535 0 00.134-.55l.001.004zm-2.463 1.327a.53.53 0 00-.153.472l.191 1.114-1-.526a.525.525 0 00-.501.001l.003-.001-1 .526.191-1.114a.53.53 0 00-.152-.472l-.811-.79 1.119-.162a.532.532 0 00.402-.292l.5-1.013.5 1.013a.532.532 0 00.402.292l1.119.162-.809.79zm-3.377 14.671h-1.067v1.067h1.067v-1.067zm0 2.134h-1.067v1.066h1.067v-1.066zm1.066-1.067h-1.067v1.067H27.2v-1.067zm-2.133 0H24v1.067h1.067v-1.067zm-2.667 4.8h-1.067v1.067H22.4v-1.067zm0 2.134h-1.067v1.067H22.4v-1.067zm1.067-1.067H22.4v1.067h1.067v-1.067zm-2.133 0h-1.067v1.067h1.067v-1.067zM16 24.256h-1.066v1.067H16v-1.067zm0 2.133h-1.066v1.067H16v-1.067zm1.067-1.067H16v1.067h1.067v-1.067zm-2.133 0h-1.067v1.067h1.067v-1.067zm-9.067-19.2H4.801v1.066h1.066V6.122zm0 2.134H4.801v1.066h1.066V8.256zm1.066-1.067H5.866v1.067h1.066V7.189zm-2.133 0H3.733v1.067H4.8V7.189z"
      />
            <path
        fill="var(--color4, #212121)"
        d="M24.715 14.16a1.774 1.774 0 00-1.179-.703l-.009-.001a1.769 1.769 0 00-1.344.355l.004-.003-1.253.96-1.898 1.417-1.358-.541c2.421-1.086 4.113-3.508 4.113-6.32 0-3.823-3.122-6.934-6.961-6.934S7.869 5.5 7.869 9.324c0 1.386.415 2.674 1.12 3.759l-2.768-.024c-.009 0-.016.005-.023.005a.511.511 0 00-.159.033l.004-.001c-.013.005-.026.007-.038.013-.006.003-.013.003-.019.006l-3.233 1.596-.001.001-1.893.91a.5.5 0 00-.065.036l.001-.001a1.782 1.782 0 00-.594 2.306l-.005-.01c.22.424.592.742 1.043.885l.013.003a1.772 1.772 0 001.388-.133l-.009.005 1.388-.738 2.264-1.169 1.357-.008-5.442 5.415-.001.001-1.339 1.333a1.643 1.643 0 00-.491 1.173v.005a1.668 1.668 0 001.667 1.664h.002a1.67 1.67 0 001.18-.485l1.314-1.309 1.741-1.3.901.897L4.07 27.28a1.643 1.643 0 00-.491 1.173v.004a1.662 1.662 0 001.666 1.664h.003a1.67 1.67 0 001.18-.485l4.488-4.472c.007-.006.016-.009.022-.016l5.166-5.658 3.471.494a.474.474 0 00.262-.032c.017-.006.032-.015.049-.023.019-.01.039-.015.058-.027l3.213-2.133c.012-.008.018-.021.029-.03.013-.01.029-.014.041-.026l1.271-1.191c.348-.326.564-.787.564-1.3 0-.4-.132-.769-.355-1.066l.003.005zM2.13 17.77a.706.706 0 01-.564.05l.005.001a.717.717 0 01-.215-1.258l.002-.001 1.314-.632.316.924.133.389-.992.527zm3.497-1.828l-1.548.8-.255-.746-.184-.537 2.027-1.001-.04 1.484zm15.1-6.62c0 .918-.219 1.785-.599 2.56l-4.181-1.899a1.865 1.865 0 00-.782-1.384l-.006-.004 1.464-4.861c2.377.757 4.104 2.975 4.104 5.588zm-11.789 0c0-3.235 2.644-5.867 5.894-5.867.253 0 .5.022.745.053l-1.432 4.753c-.019 0-.037-.006-.057-.006h-.001a1.872 1.872 0 00-1.872 1.867 1.873 1.873 0 001.872 1.867h.001c.695 0 1.295-.383 1.618-.944l3.863 1.755a5.891 5.891 0 01-4.737 2.39c-3.25 0-5.894-2.632-5.894-5.867zm5.957.8c0 .441-.362.8-.806.8h-.001a.804.804 0 01-.804-.8c0-.441.361-.8.806-.8s.806.359.806.8zM2.464 25.146a.606.606 0 01-.855.001.591.591 0 010-.844l.962-.959.852.848-.959.954zm3.214 3.734a.606.606 0 01-.855.001.591.591 0 010-.844l.963-.959.852.848-.96.955zm3.482-3.469l-.001.001-1.765 1.76-.852-.848 1.765-1.757a.527.527 0 00.09-.136c.007-.014.02-.026.026-.04.016-.041.019-.085.026-.128.003-.025.014-.048.014-.073 0-.035-.013-.07-.02-.105-.006-.032-.006-.064-.019-.096a.536.536 0 00-.092-.138c-.01-.012-.014-.026-.025-.038h-.001l-.001-.002-1.607-1.6c-.017-.017-.039-.024-.058-.038a.491.491 0 00-.084-.056l-.003-.001a.527.527 0 00-.09-.031l-.003-.001a.502.502 0 00-.101-.02h-.025a.603.603 0 00-.075.005h.003c-.036.005-.069.009-.104.021s-.064.027-.094.045c-.02.011-.043.015-.061.029l-1.774 1.324-.901-.897 2.399-2.386 4.36 4.289-.928.919zm6.819-7.017c-.016-.002-.03.004-.046.003l-.027-.001a.562.562 0 00-.092.008h.003a.484.484 0 00-.187.07l.002-.001a.492.492 0 00-.083.061c-.013.011-.028.016-.04.029l-4.698 5.146-4.328-4.256 2.833-2.818a.535.535 0 00-.378-.911h-.002l-2.219.013.028-1.607 3.104.027a6.928 6.928 0 004.978 2.101h.003c.438 0 .864-.046 1.28-.122.04.032.08.064.129.085l2.41.96.152.758.178.886-3.003-.427zm4.041.178l-.313-1.558 1.446-1.08.946 1.257-2.08 1.381zm3.753-2.831l-.837.785-.931-1.236.831-.637a.735.735 0 01.543-.143.718.718 0 01.621.71.71.71 0 01-.226.521z"
      />
            <path
        fill="var(--color4, #212121)"
        d="M13.602 18.544l-2.143-2.134a.53.53 0 00-.752 0l-2.143 2.133a.535.535 0 000 .756l2.142 2.134a.53.53 0 00.752 0l2.143-2.134a.532.532 0 000-.756zm-2.519 1.759l-1.387-1.381 1.386-1.381 1.387 1.381-1.387 1.381zm6.081-15.232l-.258 1.036c.071.018 1.738.452 1.738 2.149h1.067c0-2.017-1.666-2.965-2.547-3.184zm2.547 4.251h-1.067v1.066h1.067V9.322z"
      />
        </symbol>
        <symbol id="icon-clock" viewBox="0 0 32 32">
            <path
        fill="var(--color4, #212121)"
        d="M31.296 15.301C31.295 6.849 24.441-.002 15.988 0S.685 6.855.687 15.308c.002 6.788 4.422 12.543 10.541 14.545l.108.031a.667.667 0 00.529-.065.636.636 0 00.283-.357l3.865-12.25a1.913 1.913 0 10-.852-3.63l.011-.005-5.106-5.107a.638.638 0 00-.902.902l5.103 5.109a1.847 1.847 0 00-.191.826c0 .602.283 1.137.723 1.48l.004.003-3.682 11.673C3.843 25.782.117 17.709 2.797 10.431S13.551-.573 20.829 2.108c7.278 2.681 11.004 10.754 8.323 18.032-1.345 3.581-4.003 6.406-7.374 7.938l-.088.036-.398-1.874a.639.639 0 00-1.05-.343l.001-.001-3.837 3.426a.637.637 0 00.227 1.083l.005.001 4.899 1.563a.637.637 0 00.818-.744l.001.004-.391-1.839c5.528-2.374 9.329-7.772 9.329-14.057v-.034.002zm-15.304-.637a.638.638 0 010 1.276.638.638 0 010-1.276zm2.1 14.864l2.184-1.948.603 2.84-2.787-.892z"
      />
            <path
        fill="var(--color2, #2196f3)"
        d="M15.354 3.185V4.46a.638.638 0 001.276 0V3.185a.638.638 0 10-1.276 0zM3.876 14.664a.638.638 0 000 1.276h1.275a.638.638 0 000-1.276H3.876zm24.232 1.275a.638.638 0 000-1.276h-1.275a.638.638 0 000 1.276h1.275z"
      />
        </symbol>
        <symbol id="icon-diagram" viewBox="0 0 32 32">
            <path
        fill="var(--color2, #2196f3)"
        d="M14.926 14.965h1.066v4.798h-1.066v-4.798zm4.264 2.132h1.066v2.665H19.19v-2.665zm-8.529 1.599h1.066v1.066h-1.066v-1.066zm-3.198-.533h1.066v1.599H7.463v-1.599z"
      />
            <path
        fill="var(--color4, #212121)"
        d="M1.599 28.291h25.586a1.6 1.6 0 001.599-1.599V24.56a1.6 1.6 0 00-1.599-1.599h-.533V9.667l3.028-2.868a1.608 1.608 0 10-.742-.752l-.004-.01-2.281 2.162v-1.23a1.6 1.6 0 00-1.599-1.599H3.731a1.6 1.6 0 00-1.599 1.599v15.992h-.533A1.6 1.6 0 000 24.56v2.132a1.6 1.6 0 001.599 1.599zM30.384 4.837a.533.533 0 010 1.066.533.533 0 010-1.066zM3.198 6.969c0-.294.239-.533.533-.533h21.323c.294 0 .533.239.533.533v2.239l-1.066 1.013V8.036a.534.534 0 00-.534-.534H4.798a.534.534 0 00-.534.533v13.327c0 .294.239.533.534.533h19.189a.534.534 0 00.534-.533v-9.675l1.066-1.01V22.96H3.198V6.969zm4.798 6.93h-.005a1.6 1.6 0 101.112 2.748l1.853.93a.535.535 0 00.636-.122l3.939-4.432 3.872 2.902a.534.534 0 00.686-.039l3.365-3.188v8.131H5.331V8.568h18.123v2.661l-3.771 3.572-3.904-2.927a.534.534 0 00-.718.071v.001l-3.993 4.493-1.493-.746c.011-.064.017-.128.02-.193a1.6 1.6 0 00-1.599-1.599zm.533 1.599a.533.533 0 01-1.066 0 .533.533 0 011.066 0zm3.198 8.528h5.33v.533a.533.533 0 01-.533.533h-4.265a.533.533 0 01-.533-.533v-.533zm-10.66.534c0-.294.238-.533.533-.533h9.062v.533a1.6 1.6 0 001.599 1.599h4.265a1.6 1.6 0 001.599-1.599v-.533h9.062c.294 0 .533.239.533.533v2.132a.533.533 0 01-.533.533H1.601a.533.533 0 01-.533-.533V24.56z"
      />
        </symbol>
        <symbol id="icon-facebook" viewBox="0 0 32 32">
            <path
        d="M21.328 5.312h2.923V.224A36.478 36.478 0 0020.144 0h-.157.008c-4.213 0-7.099 2.65-7.099 7.52V12H8.25v5.688h4.646V32h5.699V17.69h4.459l.709-5.688h-5.17V8.08c0-1.643.443-2.768 2.734-2.768z"
      />
        </symbol>
        <symbol id="icon-instagram" viewBox="0 0 32 32">
            <path
        d="M31.968 9.408c-.074-1.701-.349-2.869-.742-3.882a7.839 7.839 0 00-1.85-2.837l-.001-.001A7.906 7.906 0 0026.597.861l-.054-.018C25.524.449 24.362.176 22.661.101 20.949.019 20.405 0 16.059 0c-4.344 0-4.888.019-6.595.094-1.699.074-2.869.349-3.88.742a7.847 7.847 0 00-2.839 1.85l-.001.001A7.9 7.9 0 00.919 5.465l-.018.054C.506 6.538.232 7.7.157 9.401c-.082 1.712-.101 2.256-.101 6.602 0 4.344.019 4.888.094 6.595.075 1.701.35 2.869.744 3.882a7.915 7.915 0 001.849 2.837l.001.001c.8.813 1.77 1.443 2.832 1.843 1.019.395 2.182.67 3.882.744 1.707.075 2.251.094 6.595.094 4.346 0 4.89-.019 6.595-.094 1.701-.074 2.869-.349 3.882-.742a8.237 8.237 0 004.664-4.628l.019-.055c.394-1.019.669-2.182.744-3.882.075-1.707.093-2.251.093-6.595s-.006-4.888-.08-6.595zm-2.88 13.066c-.07 1.563-.333 2.406-.55 2.97a5.341 5.341 0 01-3.004 3.024l-.036.012c-.56.219-1.411.482-2.968.55-1.688.075-2.194.094-6.464.094-4.269 0-4.782-.019-6.464-.094-1.563-.069-2.406-.331-2.97-.55a4.953 4.953 0 01-1.836-1.192l-.001-.001a4.978 4.978 0 01-1.184-1.803L3.6 25.45c-.218-.563-.48-1.413-.549-2.97-.075-1.688-.094-2.195-.094-6.464 0-4.27.019-4.784.094-6.464.069-1.563.331-2.406.549-2.97a4.897 4.897 0 011.198-1.837l.002-.002a4.972 4.972 0 011.806-1.182l.034-.011c.56-.219 1.411-.48 2.968-.55 1.688-.074 2.195-.093 6.464-.093 4.275 0 4.782.019 6.464.093 1.563.069 2.406.331 2.97.55a4.91 4.91 0 011.837 1.194c.531.52.938 1.144 1.195 1.84.218.56.48 1.411.549 2.968.075 1.688.094 2.194.094 6.464 0 4.269-.019 4.768-.094 6.458z"
      />
            <path
        d="M16.059 7.782a8.223 8.223 0 00-8.219 8.221v.002a8.222 8.222 0 1016.444 0 8.222 8.222 0 00-8.222-8.222h-.002zm0 13.552a5.333 5.333 0 01.001-10.666h.001a5.334 5.334 0 110 10.668zM26.525 7.458a1.92 1.92 0 01-3.84 0 1.92 1.92 0 013.84 0z"
      />
        </symbol>
        <symbol id="icon-linkedin" viewBox="0 0 32 32">
            <path
        d="M31.992 32H32V20.262c0-5.741-1.237-10.163-7.947-10.163-3.227 0-5.392 1.77-6.277 3.45h-.093v-2.914h-6.365v21.363h6.627V21.42c0-2.786.528-5.48 3.978-5.48 3.398 0 3.448 3.179 3.448 5.658V32h6.621zM.528 10.635h6.635V32H.528V10.635zM3.843 0A3.843 3.843 0 000 3.843c0 2.12 1.722 3.878 3.843 3.878 2.12 0 3.842-1.757 3.842-3.878S5.965.002 3.844 0z"
      />
        </symbol>
        <symbol id="icon-twitter" viewBox="0 0 32 32">
            <path
        d="M32 6.078c-1.1.493-2.376.857-3.713 1.028l-.068.007a6.556 6.556 0 002.873-3.579l.013-.046a12.88 12.88 0 01-4.076 1.573l-.084.014A6.558 6.558 0 0015.6 9.557v.004c0 .52.043 1.021.152 1.496-5.454-.266-10.28-2.88-13.522-6.861a6.524 6.524 0 00-.902 3.313v.001a6.57 6.57 0 002.914 5.451 6.453 6.453 0 01-2.994-.823l.033.017v.072a6.592 6.592 0 005.213 6.44l.043.008a6.403 6.403 0 01-1.662.215h-.061.003c-.419 0-.843-.024-1.242-.112.85 2.598 3.261 4.509 6.13 4.57a13.093 13.093 0 01-8.122 2.8H1.57h.001-.062c-.531 0-1.055-.034-1.569-.099l.061.006c2.826 1.846 6.287 2.944 10.004 2.944h.063-.003c12.072 0 18.672-10 18.672-18.669 0-.288-.01-.57-.024-.848a13.203 13.203 0 003.258-3.355l.03-.047z"
      />
        </symbol>
        <symbol id="icon-mail-modal" viewBox="0 0 32 32">
            <path
        d="M26.667 5.333h-21.333c-1.467 0-2.653 1.2-2.653 2.667l-0.013 16c0 1.467 1.2 2.667 2.667 2.667h21.333c1.467 0 2.667-1.2 2.667-2.667v-16c0-1.467-1.2-2.667-2.667-2.667zM26.133 11l-9.427 5.893c-0.427 0.267-0.987 0.267-1.413 0l-9.427-5.893c-0.333-0.213-0.533-0.573-0.533-0.96 0-0.893 0.973-1.427 1.733-0.96l8.933 5.587 8.933-5.587c0.76-0.467 1.733 0.067 1.733 0.96 0 0.387-0.2 0.747-0.533 0.96z"
      />
        </symbol>
        <symbol id="icon-phone-modal" viewBox="0 0 32 32">
            <path
        d="M24.882 19.773l-3.268-0.373c-0.785-0.090-1.557 0.18-2.11 0.733l-2.367 2.367c-3.641-1.853-6.626-4.825-8.478-8.478l2.38-2.38c0.553-0.553 0.823-1.325 0.733-2.11l-0.373-3.242c-0.154-1.299-1.248-2.277-2.56-2.277h-2.226c-1.454 0-2.663 1.209-2.573 2.663 0.682 10.987 9.469 19.761 20.443 20.443 1.454 0.090 2.663-1.119 2.663-2.573v-2.226c0.013-1.299-0.965-2.393-2.264-2.547z"
      />
        </symbol>
        <symbol id="icon-human-modal" viewBox="0 0 32 32">
            <path
        d="M16 16c2.947 0 5.333-2.387 5.333-5.333s-2.387-5.333-5.333-5.333c-2.947 0-5.333 2.387-5.333 5.333s2.387 5.333 5.333 5.333zM16 18.667c-3.56 0-10.667 1.787-10.667 5.333v1.333c0 0.733 0.6 1.333 1.333 1.333h18.667c0.733 0 1.333-0.6 1.333-1.333v-1.333c0-3.547-7.107-5.333-10.667-5.333z"
      />
        </symbol>
        <symbol id="icon-send" viewBox="0 0 32 32">
            <path
        fill="#fff"
        style="fill: var(--color1, #fff)"
        d="M32 0l-32 18 10.227 3.788 15.773-14.788-11.998 16.186 0.010 0.004-0.012-0.004v8.814l5.735-6.691 7.265 2.691 5-28z"
      />
        </symbol>
        <symbol id="icon-check" viewBox="0 0 42 32">
            <path fill="#fff" style="fill: var(--color1, #fff); stroke: var(--color1, #fff)" stroke-linejoin="miter" stroke-linecap="butt" stroke-miterlimit="4" stroke-width="0.64" d="M6.263 15.205l-0.22-0.21-3.307 3.132 11.651 11.114 24.477-23.351-3.285-3.134-21.192 20.197-8.124-7.75z"></path>
        </symbol>
        <symbol id="icon-menu_burger" viewBox="0 0 48 32">
        <path
        d="M0 5.333v-5.333h48v5.333h-48zM0 18.667h48v-5.333h-48v5.333zM0 32h48v-5.333h-48v5.333z"
      />
        </symbol>
        <symbol id="icon-menu_burger_close" viewBox="0 0 32 32">
        <path
        d="M31.439 3.166l-3.166-3.166-12.553 12.553-12.553-12.553-3.166 3.166 12.553 12.553-12.553 12.553 3.166 3.166 12.553-12.553 12.553 12.553 3.166-3.166-12.553-12.553 12.553-12.553z"
      />
        </symbol>
       <symbol id="icon-ordering-arrow" viewBox="0 0 55 32">
<path fill="none" stroke="#b8b8b8" style="stroke: var(--color1, #b8b8b8)" stroke-linejoin="miter" stroke-linecap="butt" stroke-miterlimit="4" stroke-width="6.9091" d="M2.909 2.909l24.727 24.727 24.727-24.727"></path>
</symbol>
<symbol id="icon-circle-black" viewBox="0 0 32 32">
<path fill="#000000" style="fill: var(--color2, #000000)" d="M16 0c-8.837 0-16 7.163-16 16s7.163 16 16 16 16-7.163 16-16-7.163-16-16-16zM16 28c-6.627 0-12-5.373-12-12s5.373-12 12-12c6.627 0 12 5.373 12 12s-5.373 12-12 12z"></path>
</symbol>
<symbol id="icon-circle-white" viewBox="0 0 32 32">
<path fill="#e2dfdf" style="fill: var(--color3, #e2dfdf)" d="M16 0c-8.837 0-16 7.163-16 16s7.163 16 16 16 16-7.163 16-16-7.163-16-16-16zM16 28c-6.627 0-12-5.373-12-12s5.373-12 12-12c6.627 0 12 5.373 12 12s-5.373 12-12 12z"></path>
</symbol>
<symbol id="icon-circle-red" viewBox="0 0 32 32">
<path fill="#f2404a" style="fill: var(--color2, #f2404a)" d="M16 0c-8.837 0-16 7.163-16 16s7.163 16 16 16 16-7.163 16-16-7.163-16-16-16zM16 28c-6.627 0-12-5.373-12-12s5.373-12 12-12c6.627 0 12 5.373 12 12s-5.373 12-12 12z"></path>
</symbol>
<symbol id="icon-bluze" viewBox="0 0 29 32">
<path fill="none" stroke-linejoin="round" stroke-linecap="round" stroke-miterlimit="3.8637" stroke-width="1.3061" d="M12.289 2.659c0-1.108 0.898-2.006 2.006-2.006s2.006 0.898 2.006 2.006c0 0.571-0.249 1.086-0.621 1.451-0.368 0.344-1.312 0.651-1.312 2.264"></path>
<path fill="none" stroke-linejoin="round" stroke-linecap="round" stroke-miterlimit="3.8637" stroke-width="1.3061" d="M24.965 9.91l-10.578-3.536-10.609 3.536"></path>
<path fill="none" stroke-linejoin="round" stroke-linecap="round" stroke-miterlimit="3.8637" stroke-width="1.3061" d="M2.496 9.122c0 0 3.511 2.921 11.893 2.921s11.87-2.921 11.87-2.921"></path>
<path fill="none" stroke-linejoin="round" stroke-linecap="round" stroke-miterlimit="3.8637" stroke-width="1.3061" d="M2.536 9.089c-1.082 1.868-1.71 3.71-1.883 5.527l2.971 1.571 1.475-1.182c0 0 3.238 2.236 2.952 8.126s0.273 7.054 0.273 7.054c0.839 0.592 6.043 0.762 6.043 0.762s5.205-0.17 6.044-0.762c0 0 0.559-1.165 0.273-7.054s2.663-8.126 2.663-8.126l1.764 1.182 2.971-1.571c-0.173-1.817-0.801-3.659-1.883-5.527"></path>
<path fill="none" stroke-linejoin="round" stroke-linecap="round" stroke-miterlimit="3.8637" stroke-width="1.3061" d="M14.368 17.548c0.286 0 0.518-0.232 0.518-0.518s-0.232-0.518-0.518-0.518c-0.286 0-0.518 0.232-0.518 0.518s0.232 0.518 0.518 0.518z"></path>
<path fill="none" stroke-linejoin="round" stroke-linecap="round" stroke-miterlimit="3.8637" stroke-width="1.3061" d="M14.368 21.193c0.286 0 0.518-0.232 0.518-0.518s-0.232-0.518-0.518-0.518c-0.286 0-0.518 0.232-0.518 0.518s0.232 0.518 0.518 0.518z"></path>
</symbol>
<symbol id="icon-cuboc" viewBox="0 0 32 32">
<path fill="none" style="stroke: var(--color1, #c0a78f)" stroke-linejoin="miter" stroke-linecap="butt" stroke-miterlimit="3.8637" stroke-width="1.2308" d="M19.652 16.333l-3.629-2.186-3.629 2.186 0.957-4.127-3.2-2.776 4.221-0.366 1.651-3.901 1.651 3.901 4.221 0.366-3.2 2.776 0.957 4.127z"></path>
<path fill="none" style="stroke: var(--color1, #c0a78f)" stroke-linejoin="miter" stroke-linecap="butt" stroke-miterlimit="3.8637" stroke-width="1.2308" d="M24.994 3.915h5.822c0 0-1.207 5.069-5.788 6.66"></path>
<path fill="none" style="stroke: var(--color1, #c0a78f)" stroke-linejoin="miter" stroke-linecap="butt" stroke-miterlimit="3.8637" stroke-width="1.2308" d="M7.053 3.915h-5.822c0 0 1.207 5.069 5.788 6.66"></path>
<path fill="none" style="stroke: var(--color1, #c0a78f)" stroke-linejoin="miter" stroke-linecap="butt" stroke-miterlimit="3.8637" stroke-width="1.2308" d="M15.924 1.538h9.11v13.021c-0.024 1.041-0.128 8.95-9.022 8.95s-8.976-7.91-9-8.95v-13.022h9.11"></path>
<path fill="none" style="stroke: var(--color1, #c0a78f)" stroke-linejoin="miter" stroke-linecap="butt" stroke-miterlimit="3.8637" stroke-width="1.2308" d="M16.046 23.503v6.69"></path>
<path fill="none" style="stroke: var(--color1, #c0a78f)" stroke-linejoin="miter" stroke-linecap="butt" stroke-miterlimit="3.8637" stroke-width="1.2308" d="M7.66 30.223h16.622"></path>
</symbol>
<symbol id="icon-sewing-machine" viewBox="0 0 32 32">
<path fill="none" style="stroke: var(--color1, #c0a78f)" stroke-linejoin="miter" stroke-linecap="butt" stroke-miterlimit="3.8637" stroke-width="1.0323" d="M6.624 12.315h14.105l1.704 2.898h4.863c0 0 1.224 0.074 1.194-1.331-0.033-1.53 0-6.17 0-6.17s0.125-1.331-1.331-1.331c-1.455 0-22.949 0-22.949 0-0.892-0.007-1.045 0.419-1.069 1.069v20.237h27.24c0.586-0.022 0.885-0.321 0.895-0.895v-1.48c-0.038-0.621-0.348-0.933-0.933-0.933h-15.937"></path>
<path fill="none" style="stroke: var(--color1, #c0a78f)" stroke-linejoin="miter" stroke-linecap="butt" stroke-miterlimit="3.8637" stroke-width="1.0323" d="M5.742 6.407v-2.536"></path>
<path fill="none" style="stroke: var(--color1, #c0a78f)" stroke-linejoin="miter" stroke-linecap="butt" stroke-miterlimit="3.8637" stroke-width="1.0323" d="M4.031 3.903c0.049 0 3.534 0 3.534 0"></path>
<path fill="none" style="stroke: var(--color1, #c0a78f)" stroke-linejoin="miter" stroke-linecap="butt" stroke-miterlimit="3.8637" stroke-width="1.0323" d="M20.713 10.012v2.299"></path>
<path fill="none" style="stroke: var(--color1, #c0a78f)" stroke-linejoin="miter" stroke-linecap="butt" stroke-miterlimit="3.8637" stroke-width="1.0323" d="M18.084 10.012v2.299"></path>
<path fill="none" style="stroke: var(--color1, #c0a78f)" stroke-linejoin="miter" stroke-linecap="butt" stroke-miterlimit="3.8637" stroke-width="1.0323" d="M15.454 9.020v3.291"></path>
<path fill="none" style="stroke: var(--color1, #c0a78f)" stroke-linejoin="miter" stroke-linecap="butt" stroke-miterlimit="3.8637" stroke-width="1.0323" d="M11.612 12.31v12.84"></path>
<path fill="#c0a78f" style="fill: var(--color1, #c0a78f)" d="M5.48 15.483h1.284v1.284h-1.284v-1.284z"></path>
<path fill="#c0a78f" style="fill: var(--color1, #c0a78f)" d="M5.48 18.278h1.284v1.283h-1.284v-1.283z"></path>
<path fill="none" style="stroke: var(--color1, #c0a78f)" stroke-linejoin="miter" stroke-linecap="butt" stroke-miterlimit="3.8637" stroke-width="1.0323" d="M5.981 21.927c0-0.146 0.118-0.264 0.265-0.264h2.29c0.146 0 0.265 0.118 0.265 0.264v2.29c0 0.146-0.118 0.265-0.265 0.265h-2.29c-0.146 0-0.265-0.118-0.265-0.265v-2.29z"></path>
<path fill="none" style="stroke: var(--color1, #c0a78f)" stroke-linejoin="miter" stroke-linecap="butt" stroke-miterlimit="3.8637" stroke-width="1.0323" d="M23.838 15.215h3.078v3.078h-3.078v-3.078z"></path>
<path fill="none" style="stroke: var(--color1, #c0a78f)" stroke-linejoin="miter" stroke-linecap="butt" stroke-miterlimit="3.8637" stroke-width="1.0323" d="M25.405 18.299v3.563"></path>
<path fill="none" style="stroke: var(--color1, #c0a78f)" stroke-linejoin="miter" stroke-linecap="butt" stroke-miterlimit="3.8637" stroke-width="1.0323" d="M3.144 16.944h-2.187c-0.244 0-0.441-0.197-0.441-0.441v-5.48c0-0.244 0.197-0.441 0.441-0.441h2.206"></path>
<path fill="none" style="stroke: var(--color1, #c0a78f)" stroke-linejoin="miter" stroke-linecap="butt" stroke-miterlimit="3.8637" stroke-width="1.0323" d="M3.494 27.689h-2.929"></path>
</symbol>
<symbol id="icon-flower" viewBox="0 0 32 32">
<path fill="none" style="stroke: var(--color1, #c0a78f)" stroke-linejoin="miter" stroke-linecap="butt" stroke-miterlimit="3.8637" stroke-width="1.2308" d="M16 7.575l6.066-5.729v8.452l-6.037 5.702-0.029-8.425z"></path>
<path fill="none" style="stroke: var(--color1, #c0a78f)" stroke-linejoin="miter" stroke-linecap="butt" stroke-miterlimit="3.8637" stroke-width="1.2308" d="M21.764 9.934h8.389l-5.788 6.066h-8.365"></path>
<path fill="none" style="stroke: var(--color1, #c0a78f)" stroke-linejoin="miter" stroke-linecap="butt" stroke-miterlimit="3.8637" stroke-width="1.2308" d="M16 7.575l-6.066-5.729v8.452l6.037 5.702 0.029-8.425z"></path>
<path fill="none" style="stroke: var(--color1, #c0a78f)" stroke-linejoin="miter" stroke-linecap="butt" stroke-miterlimit="3.8637" stroke-width="1.2308" d="M10.236 9.934h-8.389l5.788 6.066h8.365"></path>
<path fill="none" style="stroke: var(--color1, #c0a78f)" stroke-linejoin="miter" stroke-linecap="butt" stroke-miterlimit="3.8637" stroke-width="1.2308" d="M16 24.425l6.066 5.729v-8.453l-6.037-5.701-0.029 8.425z"></path>
<path fill="none" style="stroke: var(--color1, #c0a78f)" stroke-linejoin="miter" stroke-linecap="butt" stroke-miterlimit="3.8637" stroke-width="1.2308" d="M21.764 22.066h8.389l-5.788-6.066h-8.365"></path>
<path fill="none" style="stroke: var(--color1, #c0a78f)" stroke-linejoin="miter" stroke-linecap="butt" stroke-miterlimit="3.8637" stroke-width="1.2308" d="M16 24.425l-6.066 5.729v-8.453l6.037-5.701 0.029 8.425z"></path>
<path fill="none" style="stroke: var(--color1, #c0a78f)" stroke-linejoin="miter" stroke-linecap="butt" stroke-miterlimit="3.8637" stroke-width="1.2308" d="M10.236 22.066h-8.389l5.788-6.066h8.365"></path>
</symbol>
<symbol id="icon-mannequin" viewBox="0 0 22 32">
<path fill="none" sstyle="stroke: var(--color1, #c0a78f)" stroke-linejoin="miter" stroke-linecap="butt" stroke-miterlimit="3.8637" stroke-width="1.0323" d="M10.735 2.914c1.38 0 2.499-0.537 2.499-1.199s-1.119-1.199-2.499-1.199c-1.38 0-2.499 0.537-2.499 1.199s1.119 1.199 2.499 1.199z"></path>
<path fill="none" style="stroke: var(--color1, #c0a78f)" stroke-linejoin="miter" stroke-linecap="butt" stroke-miterlimit="3.8637" stroke-width="1.0323" d="M13.297 1.77v2.151c0 0-0.155 0.601 0.463 1.020s4.486 2.539 4.486 2.539c0 0 1.36 0.663 0.247 2.923s-3.016 5.501-3.016 5.501c0 0-0.649 1.422 0.278 2.552s2.552 4.071 2.552 6.593c0 0-1.625 2.244-7.891 2.244h0.679c-6.266 0-7.891-2.244-7.891-2.244 0-2.521 1.625-5.462 2.552-6.593s0.278-2.552 0.278-2.552c0 0-1.904-3.24-3.016-5.501s0.247-2.923 0.247-2.923c0 0 3.868-2.12 4.486-2.539s0.463-1.020 0.463-1.020v-2.151"></path>
</symbol>
<symbol id="icon-needle" viewBox="0 0 32 32">
<path fill="none" style="stroke: var(--color1, #c0a78f)" stroke-linejoin="miter" stroke-linecap="butt" stroke-miterlimit="3.8637" stroke-width="1.28" d="M22.657 9.367l2.94-3.249c0 0 1.944-2.039-0.593-4.221-1.572-1.352-2.888-1.441-3.78-1.068-0.725 0.309-1.331 1.341-1.679 1.889-2.136 3.356-8.412 13.146-8.412 13.146l-9.533 15.199 19.16-19.681"></path>
<path fill="none" style="stroke: var(--color1, #c0a78f)" stroke-linejoin="miter" stroke-linecap="butt" stroke-miterlimit="3.8637" stroke-width="1.28" d="M23.32 3.629c0 0 0.83 0.664 0.119 1.684s-2.798 3.462-2.798 3.462c0 0-0.593 0.498-1.399-0.095s-0.664-1.328-0.237-1.897 2.228-2.964 2.228-2.964c0.646-0.815 1.341-0.878 2.086-0.19z"></path>
<path fill="none" style="stroke: var(--color1, #c0a78f)" stroke-linejoin="miter" stroke-linecap="butt" stroke-miterlimit="3.8637" stroke-width="1.28" d="M19.811 5.74c0 0 1.399 1.115 2.3 2.419s1.132 5.839-1.814 11.4 1.494 9.212 4.15 9.046c2.655-0.166 4.897-1.37 5.353-4.066"></path>
<path fill="none" style="stroke: var(--color1, #c0a78f)" stroke-linejoin="miter" stroke-linecap="butt" stroke-miterlimit="3.8637" stroke-width="1.28" d="M16.645 4.204c-0.248-0.125-11.237-2.84-12.947 4.067-1.037 4.191 3.897 5.142 7.009 3.306"></path>
</symbol>
<symbol id="icon-player-play" viewBox="0 0 32 32">
<path fill="none" style="stroke: var(--color1, #fff)" stroke-linejoin="miter" stroke-linecap="butt" stroke-miterlimit="4" stroke-width="1.5238" d="M31.238 16c0 8.416-6.822 15.238-15.238 15.238s-15.238-6.822-15.238-15.238c0-8.416 6.822-15.238 15.238-15.238s15.238 6.822 15.238 15.238z"></path>
<path fill="none" style="stroke: var(--color1, #fff)" stroke-linejoin="round" stroke-linecap="round" stroke-miterlimit="4" stroke-width="1.5238" d="M24.755 15.698l-13.887-8.453v16.906l13.887-8.453z"></path>
        <symbol id="icon-call" viewBox="0 0 32 32">
<path
        style="fill: var(--color1, #c0a78f)"
        d="M14.633 8.339c0.781 0.866 0.534 1.847-0.157 2.778-0.164 0.221-0.353 0.438-0.581 0.678-0.109 0.115-0.195 0.202-0.373 0.38l-1.022 1.023c-0.134 0.134 0.78 1.961 2.555 3.738s3.601 2.691 3.735 2.556l1.022-1.022c0.563-0.563 0.861-0.835 1.27-1.104 0.851-0.558 1.78-0.71 2.563-0.010 2.557 1.829 4.003 2.951 4.712 3.687 1.382 1.436 1.201 3.647 0.008 4.909-0.414 0.437-0.939 0.962-1.558 1.56-3.749 3.751-11.66 1.468-17.724-4.601-6.065-6.071-8.346-13.983-4.605-17.726 0.672-0.682 0.893-0.903 1.547-1.548 1.218-1.2 3.531-1.388 4.937 0.001 0.74 0.731 1.919 2.248 3.672 4.701zM21.696 20.355l-1.022 1.022c-1.737 1.738-4.695 0.257-7.505-2.556-2.812-2.815-4.292-5.772-2.554-7.509l1.021-1.022c0.163-0.164 0.238-0.239 0.328-0.334 0.122-0.129 0.223-0.241 0.303-0.341-1.554-2.164-2.61-3.517-3.18-4.079-0.294-0.29-0.953-0.237-1.194 0.001-0.645 0.635-0.857 0.847-1.526 1.526-2.406 2.407-0.564 8.794 4.599 13.962 5.161 5.166 11.547 7.009 13.971 4.584 0.61-0.588 1.107-1.086 1.49-1.49 0.277-0.292 0.326-0.895 0.008-1.226-0.53-0.551-1.827-1.562-4.066-3.17-0.163 0.131-0.364 0.322-0.674 0.632zM22.667 2.667v4h-4v2.667h4v4h2.667v-4h4v-2.667h-4v-4h-2.667z"
      />
</symbol>
<symbol id="icon-contacts-mail" viewBox="0 0 38 32">
<path
        style="fill: var(--color1, #c0a78f)"
        d="M3.422 0h30.802c1.89 0 3.422 1.532 3.422 3.422v23.957c0 1.89-1.532 3.422-3.422 3.422h-30.802c-1.89 0-3.422-1.532-3.422-3.422v-23.957c0-1.89 1.532-3.422 3.422-3.422zM3.422 11.325v16.055h30.802v-16.054l-15.401 7.701-15.401-7.701zM3.422 7.498l15.401 7.701 15.401-7.7v-4.077h-30.802v4.076z"
      />
</symbol>
<symbol id="icon-viber" viewBox="0 0 32 32">
<path
        d="M15.634 1.92c-0.873 0.005-1.75 0.057-2.63 0.165-1.688 0.207-3.362 0.552-4.968 1.29-2.551 1.172-4.36 3.162-4.888 6.055-0.222 1.22-0.401 2.458-0.504 3.704-0.199 2.415-0.075 4.843 0.609 7.223 0.54 1.879 1.536 3.566 3.279 4.661 0.738 0.464 1.711 0.687 2.219 0.922v0.001c0.141 0.065 0.177 0.105 0.184 0.115s0.027 0.026 0.025 0.176c-0.018 1.529 0 4.491 0 4.491l0.004 0.636h1.141l0.186-0.18c0 0 2.9-2.793 3.953-3.944 0.188-0.205 0.286-0.318 0.305-0.331s-0.010-0.021 0.184-0.025c1.377-0.028 2.754-0.080 4.129-0.155 1.811-0.099 3.658-0.273 5.436-1.015 1.548-0.647 2.84-1.704 3.621-3.289 0.801-1.626 1.229-3.348 1.389-5.13 0.266-2.969 0.172-5.941-0.649-8.873-0.481-1.717-1.451-3.168-2.938-4.192-1.781-1.227-3.789-1.686-5.754-1.979-1.147-0.171-2.302-0.284-3.462-0.317-0.29-0.008-0.58-0.012-0.871-0.010zM16.469 3.209c1.103 0.032 2.205 0.139 3.31 0.304 1.896 0.283 3.684 0.712 5.216 1.768 1.242 0.856 2.019 2.010 2.431 3.484 0.767 2.739 0.863 5.546 0.606 8.412v0.001c-0.148 1.653-0.54 3.211-1.262 4.677h0.001c-0.638 1.294-1.635 2.118-2.968 2.675-1.551 0.648-3.237 0.821-5.011 0.918-1.36 0.074-2.723 0.125-4.085 0.152-0.342 0.007-0.677 0.098-0.915 0.273s-0.345 0.338-0.492 0.499h-0.001c-0.749 0.819-2.244 2.261-3.059 3.052-0.004-0.957-0.013-2.111 0-3.176 0.004-0.327-0.070-0.662-0.258-0.927s-0.444-0.425-0.693-0.54l-0.001-0.001c-0.722-0.335-1.666-0.588-2.075-0.845-1.433-0.901-2.246-2.252-2.729-3.931-0.632-2.197-0.753-4.461-0.564-6.764 0.098-1.194 0.271-2.391 0.487-3.579 0.456-2.502 1.886-4.077 4.161-5.122 1.437-0.66 2.971-0.985 4.589-1.183 1.104-0.135 2.207-0.178 3.31-0.146zM16.741 6.4c-0.528 0-1.042 0.059-1.537 0.171-0.288 0.067-0.499 0.321-0.499 0.624 0 0.354 0.287 0.64 0.64 0.64 0.050 0 0.099-0.006 0.146-0.017l-0.004 0.001c0.403-0.091 0.823-0.14 1.255-0.14 3.124 0 5.644 2.52 5.644 5.644 0 0.432-0.049 0.852-0.14 1.255-0.010 0.042-0.016 0.091-0.016 0.141 0 0.354 0.287 0.64 0.64 0.64 0.303 0 0.558-0.211 0.624-0.495l0.001-0.004c0.112-0.495 0.171-1.010 0.171-1.537 0-3.816-3.108-6.924-6.924-6.924zM10.355 7.683c-0.105-0.006-0.212 0.003-0.324 0.027-1.165 0.257-2.319 1.101-2.351 2.605 0.033 0.209 0.029 0.435 0.107 0.625 0.38 0.931 0.71 1.889 1.186 2.77 2.312 4.275 5.808 7.248 10.268 9.135 0.531 0.225 1.081 0.273 1.62 0.047 0.738-0.308 1.365-0.782 1.784-1.466 0.573-0.936 0.581-1.587-0.361-2.279-0.618-0.454-1.226-0.921-1.851-1.366-0.952-0.676-1.983-0.795-2.694 0.391-0.036 0.060-0.091 0.109-0.14 0.161-0.364 0.385-0.811 0.482-1.286 0.286-1.804-0.742-3.195-1.939-4.036-3.723-0.493-1.048-0.358-1.574 0.568-2.27 0.091-0.068 0.18-0.141 0.264-0.217 0.406-0.37 0.512-0.81 0.274-1.307-0.545-1.135-1.266-2.146-2.18-3.019-0.248-0.237-0.532-0.384-0.846-0.401zM16.731 8.32c-0.284 0-0.563 0.024-0.838 0.070-0.317 0.041-0.56 0.31-0.56 0.635 0 0.354 0.287 0.64 0.64 0.64 0.047 0 0.093-0.005 0.137-0.015l-0.004 0.001c0.202-0.034 0.411-0.051 0.625-0.051 2.078 0 3.749 1.671 3.749 3.749 0 0.215-0.017 0.423-0.051 0.625-0.009 0.040-0.014 0.086-0.014 0.132 0 0.354 0.287 0.64 0.64 0.64 0.325 0 0.594-0.243 0.635-0.557l0-0.003c0.046-0.274 0.070-0.553 0.070-0.838 0-2.77-2.259-5.029-5.029-5.029zM16.64 10.24c-0.003-0-0.006-0-0.009-0-0.354 0-0.64 0.287-0.64 0.64s0.287 0.64 0.64 0.64c0.003 0 0.006-0 0.010-0h-0c1.068 0 1.92 0.852 1.92 1.92-0 0.003-0 0.006-0 0.009 0 0.354 0.287 0.64 0.64 0.64s0.64-0.287 0.64-0.64c0-0.003-0-0.006-0-0.010v0c0-1.76-1.44-3.2-3.2-3.2z"
      />
</symbol>
<symbol id="icon-contacts-clock" viewBox="0 0 32 32">
<path
        style="fill: var(--color1, #c0a78f)"
        d="M16 32c-8.837 0-16-7.163-16-16s7.163-16 16-16c8.837 0 16 7.163 16 16s-7.163 16-16 16zM16 29.091c7.23 0 13.091-5.861 13.091-13.091s-5.861-13.091-13.091-13.091c-7.23 0-13.091 5.861-13.091 13.091s5.861 13.091 13.091 13.091zM23.273 14.545h-5.818v-7.273h-2.909v10.182h8.727v-2.909z"
      />
</symbol>
<symbol id="icon-compass" viewBox="0 0 32 32">
<path
        fill="#c0a78f"
        style="fill: var(--color1, #c0a78f)"
        d="M16 32c-8.837 0-16-7.163-16-16s7.163-16 16-16c8.837 0 16 7.163 16 16s-7.163 16-16 16zM16 29.091c7.23 0 13.091-5.861 13.091-13.091s-5.861-13.091-13.091-13.091c-7.23 0-13.091 5.861-13.091 13.091s5.861 13.091 13.091 13.091zM20.059 20.059l4.059-12.177-12.177 4.059-4.059 12.177 12.177-4.059zM17.759 17.759l-5.277 1.759 1.759-5.278 5.278-1.759-1.759 5.277z"
      />
</symbol>
<symbol id="icon-check-box" viewBox="0 0 30 32">
<path fill="none" stroke="#d7b494" style="stroke: var(--color1, #d7b494)" stroke-linejoin="miter" stroke-linecap="butt" stroke-miterlimit="4" stroke-width="2.1333" d="M1.067 3.087h27.733v27.733h-27.733v-27.733z"></path>
</symbol>
<symbol id="icon-check-box-line" viewBox="0 0 240 32">
<path fill="none" stroke="#d7b494" style="stroke: var(--color1, #d7b494)" stroke-linejoin="miter" stroke-linecap="butt" stroke-miterlimit="4" stroke-width="16" d="M240 23.156h-240"></path>
</symbol>
<symbol id="icon-logo" viewBox="0 0 170 32">
<path d="M113.739 20.381v-0.905h5.647l-5.647-15.462v-4.014h3.181l10.592 27.958 3.654 1.932v0.402h-12.149v-0.402l3.484-1.953-2.768-7.555-5.994-0zM144.929 27.642l3.631 2.269v0.38h-8.149v-0.38l3.587-2.269v-25.286l-3.587-1.954v-0.402h6.636l18.032 24.152v-21.502l-3.631-2.269v-0.38h8.238v0.38l-3.632 2.269v27.642l-1.366 0.56-19.759-26.428-0 23.218zM0 29.89l3.521-1.932v-25.602l-3.521-1.954v-0.402h22.077v7.699h-0.199l-3.72-6.794h-10.075v13.401h6.533l2.591-3.871h0.369v8.754h-0.369l-2.591-3.979h-6.533v14.176h11.552l4.842-6.815 0.192 0.022-1.144 7.699h-23.524l-0-0.402zM113.739 0v4.014l-5.646 15.462h5.646v0.905h-5.993l-2.746 7.555h0.023l4.547 1.953v0.402h-9.581v-0.402l3.868-1.932 9.124-24.719-2.052-2.837v-0.402l2.812 0zM34.156 0h12.061v0.402l-3.978 1.954v27.031h9.95l4.842-6.815 0.192 0.022-1.144 7.699h-21.922v-0.402l3.521-1.932v-25.602l-3.521-1.954v-0.402zM66.629 29.89l3.521-1.932v-25.602l-3.521-1.954v-0.402h22.077v7.699h-0.199l-3.72-6.794h-10.075v13.401h6.532l2.591-3.871h0.369v8.754h-0.369l-2.591-3.979h-6.532v14.176h11.552l4.842-6.815 0.192 0.022-1.144 7.699h-23.524v-0.402z"></path>
</symbol>
<symbol id="icon-arrow-pc" viewBox="0 0 92 32">
<path fill="none" stroke="#d7b494" style="stroke: var(--color1, #d7b494)" stroke-linejoin="miter" stroke-linecap="butt" stroke-miterlimit="4" stroke-width="4" d="M76.266 3.133l11.733 11.733-11.733 11.733"></path>
<path fill="none" stroke="#d7b494" style="stroke: var(--color1, #d7b494)" stroke-linejoin="miter" stroke-linecap="butt" stroke-miterlimit="4" stroke-width="4" d="M0 14.867h85.067"></path>
</symbol>
<symbol id="icon-border-check" viewBox="0 0 30 32">
<path fill="none" stroke="#d7b494" style="stroke: var(--color1, #d7b494)" stroke-linejoin="miter" stroke-linecap="butt" stroke-miterlimit="4" stroke-width="2.1333" d="M1.067 3.087h27.733v27.733h-27.733v-27.733z"></path>
</symbol>
<symbol id="icon-agree-checket" viewBox="0 0 240 32">
<path fill="none" stroke="#d7b494" style="stroke: var(--color1, #d7b494)" stroke-linejoin="miter" stroke-linecap="butt" stroke-miterlimit="4" stroke-width="16" d="M240 23.156h-240"></path>
</symbol>
<symbol id="icon-switch-minus" viewBox="0 0 352 32">
<path d="M0 0h352v32h-352v-32z"></path>
</symbol>
<symbol id="icon-switch-plus" viewBox="0 0 32 32">
<path d="M0 14.545h32v2.909h-32v-2.909z"></path>
<path d="M14.545 32v-32h2.909v32h-2.909z"></path>
</symbol>
<symbol id="icon-mail" viewBox="0 0 42 32">
<path d="M0 16v16h42.446v-32h-42.446v16zM37.634 2.965c-0.945 0.972-1.549 1.578-11.397 11.467-3.618 3.631-3.8 3.81-4.029 3.923-0.607 0.298-1.439 0.265-1.976-0.083-0.166-0.103-1.751-1.698-9.882-9.932-2.344-2.371-4.5-4.553-4.792-4.851l-0.534-0.537h16.312c8.973 0 16.305 0.007 16.298 0.013zM8.337 10.519c2.931 2.965 5.332 5.405 5.332 5.415 0 0.020-10.402 10.678-10.631 10.89l-0.086 0.080v-10.9c0-5.995 0.013-10.897 0.027-10.89 0.017 0.003 2.427 2.437 5.359 5.405zM39.494 16.103c0 5.976-0.013 10.757-0.030 10.751-0.013-0.007-2.411-2.451-5.322-5.428l-5.296-5.422 2.563-2.57c6.526-6.549 8.068-8.095 8.075-8.095s0.010 4.845 0.010 10.764zM18.338 20.566c0.922 0.673 1.956 0.988 3.124 0.945 0.786-0.027 1.456-0.192 2.092-0.517 0.584-0.298 0.796-0.477 2.043-1.711l1.174-1.167 10.668 10.916-16.189 0.010c-8.904 0.003-16.192 0-16.202-0.007-0.007-0.010 0.143-0.172 0.332-0.365 0.186-0.192 2.603-2.663 5.365-5.491l5.024-5.14 1.161 1.171c0.66 0.667 1.267 1.25 1.409 1.356z"></path>
<symbol id="icon-play-video" viewBox="0 0 32 32">
<path fill="#fff" style="fill: var(--color1, #fff)" d="M32 16c0 8.837-7.163 16-16 16s-16-7.163-16-16c0-8.837 7.163-16 16-16s16 7.163 16 16z"></path>
<path fill="#000" style="fill: var(--color2, #000)" d="M22.918 15.67c0.213-0.13 0.213-0.44 0-0.571l-10.101-6.173c-0.223-0.136-0.509 0.024-0.509 0.285v12.346c0 0.261 0.286 0.421 0.509 0.285l10.101-6.173z"></path>
</symbol>
<symbol id="icon-fullscreen" viewBox="0 0 32 32">
<path d="M9.333 18.667h-2.667v6.667h6.667v-2.667h-4v-4zM6.667 13.333h2.667v-4h4v-2.667h-6.667v6.667zM22.667 22.667h-4v2.667h6.667v-6.667h-2.667v4zM18.667 6.667v2.667h4v4h2.667v-6.667h-6.667z"></path>
</symbol>
<symbol id="icon-ask-question-form" viewBox="0 0 31 32">
<path fill="none" stroke="#c0a78f" style="stroke: var(--color1, #c0a78f)" stroke-linejoin="miter" stroke-linecap="butt" stroke-miterlimit="4" stroke-width="1.7297" d="M3.459 0.865h24.216c1.433 0 2.595 1.162 2.595 2.595v17.297c0 1.433-1.162 2.595-2.595 2.595h-24.216c-1.433 0-2.595-1.162-2.595-2.595v-17.297c0-1.433 1.162-2.595 2.595-2.595z"></path>
<path fill="#fff" style="fill: var(--color2, #fff)" d="M10.378 27.753v-6.015l6.478-0.463-6.478 6.478z"></path>
<path fill="#c0a78f" style="fill: var(--color1, #c0a78f)" d="M9.514 11.243h12.108v1.73h-12.108v-1.73z"></path>
<path fill="#c0a78f" style="fill: var(--color1, #c0a78f)" d="M14.703 18.162v-12.108h1.73v12.108h-1.73z"></path>
<path fill="none" stroke="#c0a78f" style="stroke: var(--color1, #c0a78f)" stroke-linejoin="miter" stroke-linecap="butt" stroke-miterlimit="4" stroke-width="1.7297" d="M9.514 23.351v6.486l6.486-6.486"></path>
</symbol>
<symbol id="icon-form-reviews-add-photo" viewBox="0 0 31 32">
<path style="fill: var(--color1, #afafbf)" d="M22.261 2.783h8.348v2.783h-8.348v-2.783z"></path>
<path style="fill: var(--color1, #afafbf)" d="M25.043 8.348v-8.348h2.783v8.348h-2.783z"></path>
<path style="fill: var(--color1, #afafbf)" d="M8.26 10.915c0.099-0.137 0.208-0.305 0.348-0.531 0.051-0.083 0.19-0.312 0.294-0.483l0-0 0.117-0.192c1.153-1.887 1.992-2.753 3.504-2.753h5.565c1.512 0 2.35 0.866 3.504 2.753l0.117 0.192c0.104 0.171 0.243 0.4 0.294 0.483 0.14 0.226 0.249 0.394 0.348 0.531 0.065 0.090 0.122 0.162 0.168 0.215h3.918c2.305 0 4.174 1.869 4.174 4.174v12.522c0 2.305-1.869 4.174-4.174 4.174h-22.261c-2.305 0-4.174-1.869-4.174-4.174v-12.522c0-2.305 1.869-4.174 4.174-4.174h3.918c0.046-0.053 0.103-0.125 0.168-0.215zM4.174 13.913c-0.768 0-1.391 0.623-1.391 1.391v12.522c0 0.768 0.623 1.391 1.391 1.391h22.261c0.768 0 1.391-0.623 1.391-1.391v-12.522c0-0.768-0.623-1.391-1.391-1.391h-4.174c-0.924 0-1.548-0.506-2.171-1.373-0.143-0.2-0.286-0.417-0.457-0.694-0.059-0.095-0.211-0.346-0.315-0.518l-0.101-0.167c-0.629-1.029-1.009-1.421-1.129-1.421h-5.565c-0.121 0-0.5 0.392-1.129 1.421l-0.102 0.168c-0.104 0.172-0.256 0.422-0.314 0.517-0.171 0.277-0.313 0.495-0.457 0.694-0.624 0.867-1.247 1.373-2.171 1.373h-4.174zM26.435 16.696c0 0.768-0.623 1.391-1.391 1.391s-1.391-0.623-1.391-1.391c0-0.768 0.623-1.391 1.391-1.391s1.391 0.623 1.391 1.391zM8.348 20.87c0 3.842 3.115 6.957 6.957 6.957s6.957-3.115 6.957-6.957c0-3.842-3.115-6.957-6.957-6.957s-6.957 3.115-6.957 6.957zM19.478 20.87c0 2.305-1.869 4.174-4.174 4.174s-4.174-1.869-4.174-4.174 1.869-4.174 4.174-4.174c2.305 0 4.174 1.869 4.174 4.174z"></path>
</symbol>
<symbol id="icon-delivery-ask-question" viewBox="0 0 31 32">
<path fill="none" stroke="#c0a78f" style="stroke: var(--color2, #c0a78f)" stroke-linejoin="miter" stroke-linecap="butt" stroke-miterlimit="4" stroke-width="1.4222" d="M5.689 0.711h19.911c1.178 0 2.133 0.955 2.133 2.133v14.222c0 1.178-0.955 2.133-2.133 2.133h-19.911c-1.178 0-2.133-0.955-2.133-2.133v-14.222c0-1.178 0.955-2.133 2.133-2.133z"></path>
<path fill="#fff" style="fill: var(--color3, #fff)" d="M11.378 22.819v-4.946l5.326-0.38-5.326 5.326z"></path>
<path fill="#c0a78f" style="fill: var(--color2, #c0a78f)" d="M9.244 6.4h12.881v1.422h-12.881v-1.422z"></path>
<path fill="#c0a78f" style="fill: var(--color2, #c0a78f)" d="M9.244 10.667h9.956v1.422h-9.956v-1.422z"></path>
<path fill="none" stroke="#c0a78f" style="stroke: var(--color2, #c0a78f)" stroke-linejoin="miter" stroke-linecap="butt" stroke-miterlimit="4" stroke-width="1.4222" d="M10.667 19.2v5.333l5.333-5.333"></path>
</symbol>
<symbol id="icon-delivery-ask-card" viewBox="0 0 32 32">
<path  style="fill: var(--color1, #d1b59a)" d="M15.476 30.952c-8.547 0-15.476-6.929-15.476-15.476s6.929-15.476 15.476-15.476c8.547 0 15.476 6.929 15.476 15.476 0 2.669-0.678 5.242-1.947 7.521l0.546 6.554-6.555-0.546c-2.279 1.269-4.852 1.947-7.521 1.947zM21.845 26.095l0.428-0.257 3.89 0.324-0.324-3.89 0.257-0.428c1.147-1.908 1.761-4.091 1.761-6.368 0-6.838-5.543-12.381-12.381-12.381s-12.381 5.543-12.381 12.381 5.543 12.381 12.381 12.381c2.277 0 4.461-0.614 6.368-1.761zM15.477 23.211c-0.855 0-1.548-0.693-1.548-1.548s0.693-1.548 1.548-1.548c0.855 0 1.548 0.693 1.548 1.548s-0.693 1.548-1.548 1.548zM13.929 18.57v-1.548c0-1.141 0.592-2.011 1.513-2.741 0.277-0.22 0.36-0.275 0.861-0.593 0.447-0.283 0.721-0.771 0.721-1.309 0-0.855-0.693-1.548-1.548-1.548s-1.548 0.693-1.548 1.548h-3.095c0-2.564 2.079-4.643 4.643-4.643s4.643 2.079 4.643 4.643c0 1.609-0.826 3.078-2.159 3.923-0.392 0.248-0.44 0.28-0.595 0.403-0.18 0.143-0.277 0.249-0.317 0.294-0.017 0.018-0.024 0.026-0.024 0.023v1.548h-3.095z"></path>
</symbol>
<symbol id="icon-delivery-clock" viewBox="0 0 33 32">
<path fill="none"  style="stroke: var(--color1, #d1b59a)" stroke-linejoin="miter" stroke-linecap="butt" stroke-miterlimit="4" stroke-width="1.6" d="M12.4 16h11.2"></path>
<path fill="none"  style="stroke: var(--color1, #d1b59a)" stroke-linejoin="miter" stroke-linecap="butt" stroke-miterlimit="4" stroke-width="1.6" d="M16.4 19.2v-13.6"></path>
<path fill="none"  style="stroke: var(--color1, #d1b59a)" stroke-linejoin="miter" stroke-linecap="butt" stroke-miterlimit="4" stroke-width="1.6" d="M0.4 16h3.2"></path>
<path fill="none"  style="stroke: var(--color1, #d1b59a)" stroke-linejoin="miter" stroke-linecap="butt" stroke-miterlimit="4" stroke-width="1.6" d="M29.2 16h3.2"></path>
<path fill="none"  style="stroke: var(--color1, #d1b59a)" stroke-linejoin="miter" stroke-linecap="butt" stroke-miterlimit="4" stroke-width="1.6" d="M5.086 27.314l2.263-2.263"></path>
<path fill="none"  style="stroke: var(--color1, #d1b59a)" stroke-linejoin="miter" stroke-linecap="butt" stroke-miterlimit="4" stroke-width="1.6" d="M25.451 6.948l2.263-2.263"></path>
<path fill="none"  style="stroke: var(--color1, #d1b59a)" stroke-linejoin="miter" stroke-linecap="butt" stroke-miterlimit="4" stroke-width="1.6" d="M27.714 27.314l-2.263-2.263"></path>
<path fill="none"  style="stroke: var(--color1, #d1b59a)" stroke-linejoin="miter" stroke-linecap="butt" stroke-miterlimit="4" stroke-width="1.6" d="M7.348 6.95l-2.263-2.263"></path>
<path fill="none"  style="stroke: var(--color1, #d1b59a)" stroke-linejoin="miter" stroke-linecap="butt" stroke-miterlimit="4" stroke-width="1.6" d="M16.4 32v-3.2"></path>
<path fill="none"  style="stroke: var(--color1, #d1b59a)" stroke-linejoin="miter" stroke-linecap="butt" stroke-miterlimit="4" stroke-width="1.6" d="M16.4 3.2v-3.2"></path>
<path fill="none"  style="stroke: var(--color1, #d1b59a)" stroke-linejoin="miter" stroke-linecap="butt" stroke-miterlimit="4" stroke-width="1.6" d="M31.6 16c0 8.395-6.805 15.2-15.2 15.2s-15.2-6.805-15.2-15.2c0-8.395 6.805-15.2 15.2-15.2s15.2 6.805 15.2 15.2z"></path>
</symbol>
<symbol id="icon-Group-3" viewBox="0 0 31 32">
<path fill="none"  style="stroke: var(--color1, #d1b59a)" stroke-linejoin="miter" stroke-linecap="butt" stroke-miterlimit="3.8637" stroke-width="1.5238" d="M15.614 8.22c0 0 0.409-3.837-0.588-5.576s-3.67-2.686-4.872-0.997c-1.202 1.688-0.333 5.498 5.141 6.649"></path>
<path fill="none"  style="stroke: var(--color1, #d1b59a)" stroke-linejoin="miter" stroke-linecap="butt" stroke-miterlimit="3.8637" stroke-width="1.5238" d="M1.143 8.306h28.824v5.285h-28.824v-5.285z"></path>
<path fill="none"  style="stroke: var(--color1, #d1b59a)" stroke-linejoin="miter" stroke-linecap="butt" stroke-miterlimit="3.8637" stroke-width="1.5238" d="M12.952 8.306h5.004v22.246h-5.004v-22.246z"></path>
<path fill="none"  style="stroke: var(--color1, #d1b59a)" stroke-linejoin="miter" stroke-linecap="butt" stroke-miterlimit="3.8637" stroke-width="1.5238" d="M29.005 13.607h-26.772v16.946h26.772v-16.946z"></path>
<path fill="none"  style="stroke: var(--color1, #d1b59a)" stroke-linejoin="miter" stroke-linecap="butt" stroke-miterlimit="3.8637" stroke-width="1.5238" d="M15.755 8.22c0 0-0.409-3.837 0.588-5.576s3.67-2.686 4.872-0.997c1.202 1.688 0.333 5.498-5.141 6.649"></path>
</symbol>
<symbol id="icon-delivery-surprise" viewBox="0 0 31 32">
<path fill="none" stroke="#d1b59a" style="stroke: var(--color1, #d1b59a)" stroke-linejoin="miter" stroke-linecap="butt" stroke-miterlimit="3.8637" stroke-width="1.5238" d="M1.143 8.306h28.824v5.285h-28.824v-5.285z"></path>
<path fill="none" stroke="#d1b59a" style="stroke: var(--color1, #d1b59a)" stroke-linejoin="miter" stroke-linecap="butt" stroke-miterlimit="3.8637" stroke-width="1.5238" d="M12.952 8.306h5.004v22.246h-5.004v-22.246z"></path>
<path fill="none" stroke="#d1b59a" style="stroke: var(--color1, #d1b59a)" stroke-linejoin="miter" stroke-linecap="butt" stroke-miterlimit="3.8637" stroke-width="1.5238" d="M29.005 13.607h-26.772v16.946h26.772v-16.946z"></path>
<path fill="none" stroke="#d1b59a" style="stroke: var(--color1, #d1b59a)" stroke-linejoin="miter" stroke-linecap="butt" stroke-miterlimit="3.8637" stroke-width="1.5238" d="M15.755 8.22c0 0-0.409-3.837 0.588-5.576s3.67-2.686 4.872-0.997c1.202 1.688 0.333 5.498-5.141 6.649"></path>
<path fill="none" stroke="#d1b59a" style="stroke: var(--color1, #d1b59a)" stroke-linejoin="miter" stroke-linecap="butt" stroke-miterlimit="3.8637" stroke-width="1.5238" d="M15.614 8.22c0 0 0.409-3.837-0.588-5.576s-3.67-2.686-4.872-0.997c-1.202 1.688-0.333 5.498 5.141 6.649"></path>
</symbol>
</defs>
    </defs>
</svg>


