
<svg aria-hidden="true" style="position: absolute; width: 0; height: 0; overflow: hidden;" version="1.1" xmlns="http://www.w3.org/2000/svg" xmlns:xlink="http://www.w3.org/1999/xlink">
<defs>
<symbol id="icon-facebook" viewBox="0 0 16 32">
<path d="M11.095 30.584h-6.539v-14.922h-3.236v-5.126h3.236v-3.083c0-4.219 1.835-6.717 7.073-6.717h4.337v5.159h-2.702c-2.034 0-2.168 0.713-2.168 2.044v2.595h4.905l-0.568 5.127h-4.337v14.922z"></path>
</symbol>
<symbol id="icon-switch-plus" viewBox="0 0 32 32">
<path d="M0 14.545h32v2.909h-32v-2.909z"></path>
<path d="M14.545 32v-32h2.909v32h-2.909z"></path>
</symbol>
<symbol id="icon-arrow" viewBox="0 0 92 32">
<path stroke-linejoin="miter" stroke-linecap="butt" stroke-miterlimit="4" stroke-width="4" d="M76.267 4l11.733 11.733-11.733 11.733"></path>
<path stroke-linejoin="miter" stroke-linecap="butt" stroke-miterlimit="4" stroke-width="4" d="M0 15.732h85.067"></path>
</symbol>
<symbol id="icon-instagram" viewBox="0 0 32 32">
<path d="M9.514 30.703c-5.218 0-9.514-4.293-9.514-9.551v-11.601c0-5.26 4.296-9.551 9.514-9.551h11.471c5.256 0 9.514 4.291 9.514 9.551v11.601c0 5.258-4.259 9.551-9.514 9.551h-11.471zM3.108 9.552v11.601c0 3.557 2.877 6.457 6.406 6.457h11.471c3.528 0 6.406-2.9 6.406-6.457v-11.601c0-3.557-2.878-6.457-6.406-6.457h-11.471c-3.53 0-6.406 2.9-6.406 6.457z"></path>
<path d="M7.327 15.353c0-4.408 3.567-8.003 7.941-8.003s7.904 3.595 7.904 8.003c0 4.407-3.53 8.003-7.904 8.003s-7.941-3.596-7.941-8.003zM10.473 15.353c0 2.668 2.147 4.833 4.795 4.833 2.609 0 4.758-2.164 4.758-4.833s-2.149-4.834-4.758-4.834c-2.648 0-4.795 2.166-4.795 4.834z"></path>
<path d="M23.556 9.398c-1.303 0-2.378-1.082-2.378-2.396 0-1.355 1.074-2.436 2.378-2.436 1.305 0 2.379 1.082 2.379 2.437 0 1.315-1.074 2.396-2.379 2.396z"></path>
</symbol>
<symbol id="icon-switch-minus" viewBox="0 0 352 32">
<path d="M0 0h352v32h-352v-32z"></path>
</symbol>
<symbol id="icon-check-box" viewBox="0 0 30 32">
<path fill="none" stroke="#d7b494" style="stroke: var(--color1, #d7b494)" stroke-linejoin="miter" stroke-linecap="butt" stroke-miterlimit="4" stroke-width="2.1333" d="M1.067 3.087h27.733v27.733h-27.733v-27.733z"></path>
</symbol>
<symbol id="icon-check-box-line" viewBox="0 0 240 32">
<path fill="none" stroke="#d7b494" style="stroke: var(--color1, #d7b494)" stroke-linejoin="miter" stroke-linecap="butt" stroke-miterlimit="4" stroke-width="16" d="M240 23.156h-240"></path>
</symbol>
<symbol id="icon-logo" viewBox="0 0 170 32">
<path d="M113.739 20.381v-0.905h5.647l-5.647-15.462v-4.014h3.181l10.592 27.958 3.654 1.932v0.402h-12.149v-0.402l3.484-1.953-2.768-7.555-5.994-0zM144.929 27.642l3.631 2.269v0.38h-8.149v-0.38l3.587-2.269v-25.286l-3.587-1.954v-0.402h6.636l18.032 24.152v-21.502l-3.631-2.269v-0.38h8.238v0.38l-3.632 2.269v27.642l-1.366 0.56-19.759-26.428-0 23.218zM0 29.89l3.521-1.932v-25.602l-3.521-1.954v-0.402h22.077v7.699h-0.199l-3.72-6.794h-10.075v13.401h6.533l2.591-3.871h0.369v8.754h-0.369l-2.591-3.979h-6.533v14.176h11.552l4.842-6.815 0.192 0.022-1.144 7.699h-23.524l-0-0.402zM113.739 0v4.014l-5.646 15.462h5.646v0.905h-5.993l-2.746 7.555h0.023l4.547 1.953v0.402h-9.581v-0.402l3.868-1.932 9.124-24.719-2.052-2.837v-0.402l2.812 0zM34.156 0h12.061v0.402l-3.978 1.954v27.031h9.95l4.842-6.815 0.192 0.022-1.144 7.699h-21.922v-0.402l3.521-1.932v-25.602l-3.521-1.954v-0.402zM66.629 29.89l3.521-1.932v-25.602l-3.521-1.954v-0.402h22.077v7.699h-0.199l-3.72-6.794h-10.075v13.401h6.532l2.591-3.871h0.369v8.754h-0.369l-2.591-3.979h-6.532v14.176h11.552l4.842-6.815 0.192 0.022-1.144 7.699h-23.524v-0.402z"></path>
</symbol>
</defs>
</svg>
