<svg
  aria-hidden="true"
  style="position: absolute; width: 0; height: 0; overflow: hidden;"
  version="1.1"
  xmlns="http://www.w3.org/2000/svg"
  xmlns:xlink="http://www.w3.org/1999/xlink"
>
<defs>
<symbol id="header-facebook" viewBox="0 0 34 32">
<path
        d="M4.2 0h25.6c1.767 0 3.2 1.433 3.2 3.2v25.6c0 1.767-1.433 3.2-3.2 3.2h-25.6c-1.767 0-3.2-1.433-3.2-3.2v-25.6c0-1.767 1.433-3.2 3.2-3.2zM4.2 3.2v25.6h25.6v-25.6h-25.6zM15.613 16.007h2.987v9.593h3.2v-9.593h3.172v-3.2h-3.172v-1.607c0-0.884 0.716-1.6 1.6-1.6h1.6v-3.2h-1.6c-2.651 0-4.8 2.149-4.8 4.8v1.607h-2.987v3.2z"
      />
</symbol>
<symbol id="header-whatsapp" viewBox="0 0 34 32">
<path
        d="M1 32l2.26-8.217c-1.395-2.405-2.127-5.132-2.126-7.928 0.004-8.741 7.151-15.855 15.933-15.855 4.262 0.001 8.262 1.653 11.271 4.651 3.008 2.997 4.664 6.981 4.662 11.219-0.004 8.743-7.151 15.856-15.933 15.856-2.666-0.001-5.293-0.667-7.62-1.931l-8.447 2.205zM9.838 26.924c2.245 1.327 4.389 2.121 7.224 2.123 7.299 0 13.244-5.912 13.248-13.18 0.003-7.283-5.915-13.187-13.237-13.189-7.304 0-13.246 5.912-13.248 13.179-0.001 2.967 0.872 5.188 2.339 7.512l-1.338 4.864 5.013-1.308zM25.093 19.639c-0.099-0.165-0.364-0.264-0.764-0.463-0.398-0.199-2.355-1.157-2.721-1.289-0.364-0.132-0.63-0.199-0.896 0.199-0.265 0.396-1.029 1.289-1.261 1.553s-0.465 0.297-0.863 0.099c-0.398-0.199-1.681-0.616-3.202-1.967-1.183-1.051-1.983-2.348-2.215-2.745-0.232-0.396-0.024-0.611 0.174-0.808 0.18-0.177 0.398-0.463 0.598-0.695 0.202-0.229 0.268-0.395 0.402-0.66 0.133-0.264 0.067-0.496-0.034-0.695-0.1-0.197-0.896-2.148-1.227-2.941-0.324-0.772-0.652-0.668-0.896-0.68l-0.764-0.013c-0.265 0-0.697 0.099-1.061 0.496s-1.393 1.355-1.393 3.305c0 1.951 1.427 3.835 1.625 4.099 0.2 0.264 2.807 4.267 6.8 5.983 0.95 0.408 1.692 0.652 2.269 0.835 0.954 0.301 1.822 0.259 2.508 0.157 0.765-0.113 2.355-0.959 2.687-1.884 0.332-0.927 0.332-1.72 0.232-1.885z"
      />
</symbol>
<symbol id="header-telegram" viewBox="0 0 38 32">
<path
        d="M34.335 0.003c-0.445 0.032-0.881 0.135-1.292 0.306h-0.005c-0.395 0.155-2.271 0.936-5.124 2.12l-10.224 4.261c-7.336 3.056-14.547 6.066-14.547 6.066l0.086-0.033c0 0-0.497 0.162-1.017 0.514-0.321 0.202-0.597 0.466-0.812 0.777-0.255 0.37-0.46 0.936-0.384 1.521 0.125 0.99 0.773 1.583 1.238 1.91 0.471 0.332 0.92 0.487 0.92 0.487h0.011l6.763 2.255c0.303 0.963 2.061 6.681 2.483 7.998 0.249 0.787 0.492 1.279 0.795 1.654 0.147 0.192 0.319 0.352 0.525 0.481 0.107 0.062 0.222 0.111 0.341 0.145l-0.069-0.016c0.021 0.005 0.037 0.022 0.053 0.027 0.055 0.015 0.093 0.021 0.163 0.032 1.071 0.321 1.931-0.337 1.931-0.337l0.048-0.038 3.993-3.598 6.692 5.081 0.152 0.064c1.395 0.606 2.807 0.269 3.554-0.326 0.752-0.599 1.044-1.365 1.044-1.365l0.048-0.123 5.171-26.217c0.147-0.647 0.184-1.253 0.022-1.841-0.167-0.595-0.553-1.107-1.082-1.435-0.444-0.267-0.959-0.396-1.478-0.37zM34.195 2.813c-0.006 0.086 0.011 0.077-0.028 0.243v0.015l-5.123 25.944c-0.022 0.037-0.060 0.118-0.162 0.199-0.108 0.085-0.194 0.138-0.644-0.038l-8.185-6.21-4.944 4.46 1.039-6.565 13.373-12.335c0.551-0.507 0.367-0.614 0.367-0.614 0.039-0.622-0.832-0.182-0.832-0.182l-16.863 10.338-0.006-0.027-8.103-2.703c0.014-0.005 0.028-0.010 0.042-0.016l0.044-0.022 0.043-0.015c0 0 7.217-3.010 14.553-6.066 3.673-1.531 7.373-3.073 10.219-4.262 2.846-1.183 4.95-2.050 5.069-2.097 0.114-0.044 0.060-0.044 0.141-0.044v-0.001z"
      />
</symbol>
<symbol id="header-email" viewBox="0 0 41 32">
<path
        stroke-linejoin="miter"
        stroke-linecap="butt"
        stroke-miterlimit="4"
        stroke-width="3.4133"
        d="M5.333 1.707h29.867c1.414 0 2.56 1.146 2.56 2.56v23.467c0 1.414-1.146 2.56-2.56 2.56h-29.867c-1.414 0-2.56-1.146-2.56-2.56v-23.467c0-1.414 1.146-2.56 2.56-2.56z"
      />
<path
        stroke-linejoin="miter"
        stroke-linecap="butt"
        stroke-miterlimit="4"
        stroke-width="3.4133"
        d="M3.2 5.333l17.067 12.8 17.067-12.8"
      />
</symbol>
<symbol id="header-bin" viewBox="0 0 29 32">
<path
        fill="none"
        stroke-linejoin="miter"
        stroke-linecap="butt"
        stroke-miterlimit="3.8637"
        stroke-width="1.4545"
        d="M5.353 30.342h-4.626v-23.793h4.705"
      />
<path
        fill="none"
        stroke-linejoin="miter"
        stroke-linecap="butt"
        stroke-miterlimit="3.8637"
        stroke-width="1.4545"
        d="M8.571 7.547c0 0 0 0.255 0-2.066 0-2.32 1.756-4.2 3.921-4.2s3.921 1.88 3.921 4.2 0 2.066 0 2.066"
      />
<path d="M5.469 6.548h22.895v23.793h-22.895v-23.793z" />
<path
        fill="none"
        stroke-linejoin="miter"
        stroke-linecap="butt"
        stroke-miterlimit="3.8637"
        stroke-width="1.4545"
        d="M5.469 6.548h22.895v23.793h-22.895v-23.793z"
      />
<path
        fill="none"
        stroke-linejoin="miter"
        stroke-linecap="butt"
        stroke-miterlimit="3.8637"
        stroke-width="1.4545"
        d="M13.276 9.124c0 0 0-1.988 0-4.071s1.756-3.771 3.921-3.771c2.166 0 3.921 1.688 3.921 3.771s0 4.071 0 4.071"
      />
</symbol>
<symbol id="header-favorites" viewBox="0 0 38 32">
<path
        stroke-linejoin="miter"
        stroke-linecap="butt"
        stroke-miterlimit="3.8637"
        stroke-width="1.5238"
        d="M19.165 6.47c-1.060-0.954-5.121-4.38-8.717-4.345-3.686 0.036-9.375 2.449-8.895 9.596 0.424 6.314 17.331 19.297 17.331 19.297 0.106 0.078 0.216 0.078 0.329 0 0 0 16.906-12.985 17.331-19.297 0.48-7.148-5.209-9.56-8.896-9.596-4.176-0.040-8.98 4.587-8.98 4.587l-3.261 3.325"
      />
</symbol>
<symbol id="header-logo" viewBox="0 0 172 32">
<path
        d="M0 31.002l3.575-2.004v-26.555l-3.575-2.026v-0.417h22.418v7.985h-0.202l-3.777-7.047h-10.231v13.899h6.634l2.631-4.015h0.375v9.080h-0.375l-2.631-4.127h-6.634v14.704h11.73l4.917-7.069 0.195 0.022-1.162 7.985h-23.887l-0-0.417z"
      />
<path
        d="M46.93 0h-12.247v0.417l3.575 2.026v26.555l-3.575 2.004v0.417h22.261l1.162-7.985-0.195-0.022-4.917 7.069h-10.104v-28.037l4.040-2.026v-0.417z"
      />
<path
        d="M71.234 28.998l-3.575 2.004v0.417h23.888l1.162-7.985-0.195-0.022-4.917 7.069h-11.73v-14.704h6.633l2.631 4.127h0.375v-9.080h-0.375l-2.631 4.015h-6.633v-13.899h10.231l3.777 7.047h0.202v-7.985h-22.418v0.417l3.575 2.026v26.555z"
      />
<path
        d="M150.857 31.024l-3.687-2.354v-24.082l20.065 27.411 1.387-0.581v-28.67l3.687-2.354v-0.395h-8.366v0.395l3.687 2.354v22.302l-18.31-25.050h-6.738v0.417l3.642 2.026v26.227l-3.642 2.354v0.395h8.274v-0.395z"
      />
<path
        d="M115.497 21.14v-0.939h5.734l-5.734-16.037v-4.164h3.23l10.756 28.998 3.711 2.004v0.417h-12.338v-0.417l3.538-2.026-2.811-7.836-6.086-0zM115.497 0v4.164l-5.734 16.037h5.734v0.939h-6.086l-2.789 7.836h0.023l4.617 2.026v0.417h-9.729v-0.417l3.927-2.004 9.265-25.639-2.084-2.942v-0.417l2.855 0z"
      />
</symbol>
<symbol id="header-mobile-burger" viewBox="0 0 38 32">
<path d="M0 1.318h37.424v2h-37.424v-2z" />
<path d="M0 15.318h37.424v2h-37.424v-2z" />
<path d="M0 29.318h37.424v2h-37.424v-2z" />
</symbol>
<symbol id="header-mobile-close" viewBox="0 0 38 32">
<path
        d="M35.772 1.329c0.432-0.344 1.061-0.273 1.405 0.158s0.273 1.061-0.158 1.405l-1.247-1.564zM1.647 31.1c-0.432 0.344-1.061 0.273-1.405-0.158s-0.273-1.061 0.158-1.405l1.247 1.564zM37.019 2.893l-35.372 28.207-1.247-1.564 35.372-28.207 1.247 1.564z"
      />
<path
        d="M1.647 1.329c-0.432-0.344-1.061-0.273-1.405 0.158s-0.273 1.061 0.158 1.405l1.247-1.564zM35.772 31.1c0.432 0.344 1.061 0.273 1.405-0.158s0.273-1.061-0.158-1.405l-1.247 1.564zM0.4 2.893l35.372 28.207 1.247-1.564-35.372-28.207-1.247 1.564z"
      />
</symbol>
<symbol id="header-facebook1" viewBox="0 0 15 32">
<path
        d="M9.948 30.347h-6.513v-14.861h-3.222v-5.105h3.222v-3.070c0-4.202 1.827-6.69 7.044-6.69h4.319v5.138h-2.691c-2.026 0-2.159 0.71-2.159 2.036v2.584h4.885l-0.566 5.106h-4.319v14.861z"
      />
</symbol>
<symbol id="header-instagram" viewBox="0 0 30 32">
<path
        d="M9.42 30.399c-5.166 0-9.42-4.25-9.42-9.456v-11.486c0-5.208 4.254-9.456 9.42-9.456h11.357c5.204 0 9.42 4.249 9.42 9.456v11.486c0 5.206-4.217 9.456-9.42 9.456h-11.357zM3.077 9.458v11.486c0 3.522 2.848 6.393 6.343 6.393h11.357c3.493 0 6.343-2.871 6.343-6.393v-11.486c0-3.522-2.85-6.393-6.343-6.393h-11.357c-3.495 0-6.343 2.871-6.343 6.393z"
      />
<path
        d="M7.253 15.2c0-4.365 3.532-7.924 7.862-7.924s7.825 3.559 7.825 7.924c0 4.363-3.495 7.924-7.825 7.924s-7.862-3.561-7.862-7.924zM10.368 15.2c0 2.642 2.126 4.785 4.748 4.785 2.583 0 4.711-2.143 4.711-4.785s-2.128-4.786-4.711-4.786c-2.622 0-4.748 2.144-4.748 4.786z"
      />
<path
        d="M23.321 9.304c-1.29 0-2.354-1.071-2.354-2.372 0-1.342 1.064-2.412 2.354-2.412 1.292 0 2.355 1.071 2.355 2.412 0 1.302-1.064 2.372-2.355 2.372z"
      />
</symbol>
</defs>
</svg>
