<!-- Generated by IcoMoon.io -->
<svg version="1.1" xmlns="http://www.w3.org/2000/svg" width="51" height="32" viewBox="0 0 51 32">
<title>murkup_arow</title>
<path fill="#dfdfdf" d="M5.463 31.063c-1.25 1.25-3.276 1.25-4.526 0s-1.25-3.276 0-4.526l4.526 4.526zM25.6 6.4l-2.263-2.263 2.263-2.263 2.263 2.263-2.263 2.263zM50.263 26.537c1.25 1.25 1.25 3.276 0 4.526s-3.276 1.25-4.525 0l4.525-4.526zM0.937 26.537l22.4-22.4 4.526 4.526-22.4 22.4-4.526-4.526zM27.863 4.137l22.4 22.4-4.525 4.526-22.4-22.4 4.526-4.526z"></path>
</svg>
