<svg aria-hidden="true" style="position: absolute; width: 0; height: 0; overflow: hidden;" version="1.1" xmlns="http://www.w3.org/2000/svg" xmlns:xlink="http://www.w3.org/1999/xlink">
<defs>
<symbol id="icon-murkup" viewBox="0 0 46 32">
<path d="M7.804 1.339c-1.785-1.785-4.68-1.785-6.465 0s-1.785 4.68 0 6.465l6.465-6.465zM22.857 22.857l-3.232 3.232 3.233 3.232 3.233-3.232-3.233-3.233zM44.375 7.804c1.785-1.785 1.785-4.68 0-6.465s-4.68-1.785-6.465 0l6.465 6.465zM1.339 7.804l18.286 18.286 6.465-6.465-18.286-18.286-6.465 6.465zM26.090 26.090l18.286-18.286-6.465-6.465-18.286 18.286 6.465 6.465z"></path>
</symbol>
<symbol id="icon-murkup_arow" viewBox="0 0 51 32">
<path fill="#dfdfdf" style="fill: var(--color1, #dfdfdf)" d="M5.463 31.063c-1.25 1.25-3.276 1.25-4.526 0s-1.25-3.276 0-4.526l4.526 4.526zM25.6 6.4l-2.263-2.263 2.263-2.263 2.263 2.263-2.263 2.263zM50.263 26.537c1.25 1.25 1.25 3.276 0 4.526s-3.276 1.25-4.525 0l4.525-4.526zM0.937 26.537l22.4-22.4 4.526 4.526-22.4 22.4-4.526-4.526zM27.863 4.137l22.4 22.4-4.525 4.526-22.4-22.4 4.526-4.526z"></path>
</symbol>
</defs>
</svg>
