<svg aria-hidden="true" style="position: absolute; width: 0; height: 0;" xmlns="http://www.w3.org/2000/svg" overflow="hidden">
    <defs>
        <symbol id="icon-thanks_for_ordering" viewBox="0 0 30 32">
        <path stroke-linejoin="round" stroke-linecap="round" stroke-miterlimit="22.9256" stroke-width="0.5714" d="M12.161 16.144c1.074 0 2.312 0.984 2.832 1.994 0.499-1.009 1.724-1.994 2.798-1.994 2.825 0 4.321 3.874 1.746 6.405l-4.455 4.379-4.547-4.379c-2.656-2.392-1.199-6.405 1.625-6.405z"></path>
        <path stroke-linejoin="miter" stroke-linecap="butt" stroke-miterlimit="22.9256" stroke-width="0.5714" d="M20.522 10.8v-4.839c0-3.034-2.484-5.521-5.522-5.521s-5.522 2.484-5.522 5.521v4.838M2.834 6.306h24.332c0.7 0 1.235 0.581 1.273 1.274l1.273 22.861c0.039 0.691-0.581 1.273-1.273 1.273h-26.879c-0.692 0-1.313-0.574-1.274-1.273l1.274-22.861c0.039-0.7 0.574-1.274 1.274-1.274zM20.521 9.216c0.614 0 1.114 0.498 1.114 1.113s-0.498 1.113-1.114 1.113c-0.614 0-1.113-0.498-1.113-1.113s0.498-1.113 1.113-1.113zM9.479 9.216c0.614 0 1.113 0.498 1.113 1.113s-0.498 1.113-1.113 1.113c-0.615 0-1.114-0.498-1.114-1.113s0.498-1.113 1.114-1.113z"></path>
        </symbol>
    </defs>
</svg>