<svg aria-hidden="true" style="position: absolute; width: 0; height: 0; overflow: hidden;" version="1.1" xmlns="http://www.w3.org/2000/svg" xmlns:xlink="http://www.w3.org/1999/xlink">
<defs>
<symbol id="icon-heart" viewBox="0 0 37 32">
<path stroke-linejoin="miter" stroke-linecap="butt" stroke-miterlimit="3.8637" stroke-width="1.6" d="M18.512 5.922c-1.016-0.949-4.91-4.357-8.357-4.322-3.534 0.036-8.988 2.436-8.528 9.546 0.407 6.281 16.615 19.196 16.615 19.196 0.101 0.078 0.207 0.078 0.316 0 0 0 16.208-12.916 16.615-19.196 0.46-7.11-4.994-9.509-8.529-9.546-4.004-0.040-8.609 4.563-8.609 4.563l-3.127 3.308"></path>
</symbol>
<symbol id="icon-request" viewBox="0 0 33 32">
<path fill="none" stroke="#c8ab90" style="stroke: var(--color1, #c8ab90)" stroke-linejoin="miter" stroke-linecap="butt" stroke-miterlimit="3.8637" stroke-width="1.4222" d="M14.735 12.255l1.809 1.809 2.753-2.753"></path>
<path fill="none" stroke="#c8ab90" style="stroke: var(--color1, #c8ab90)" stroke-linejoin="miter" stroke-linecap="butt" stroke-miterlimit="3.8637" stroke-width="1.4222" d="M17.083 17.581c2.766 0 5.009-2.243 5.009-5.009s-2.243-5.009-5.009-5.009-5.009 2.243-5.009 5.009c0 2.766 2.243 5.009 5.009 5.009z"></path>
<path fill="none" stroke="#c8ab90" style="stroke: var(--color1, #c8ab90)" stroke-linejoin="miter" stroke-linecap="butt" stroke-miterlimit="3.8637" stroke-width="1.4222" d="M7.635 2.653h-2.031v13.808"></path>
<path fill="none" stroke="#c8ab90" style="stroke: var(--color1, #c8ab90)" stroke-linejoin="miter" stroke-linecap="butt" stroke-miterlimit="3.8637" stroke-width="1.4222" d="M9.434 4.754h15.255"></path>
<path fill="none" stroke="#c8ab90" style="stroke: var(--color1, #c8ab90)" stroke-linejoin="miter" stroke-linecap="butt" stroke-miterlimit="3.8637" stroke-width="1.4222" d="M3.931 11.628h-3.217v19.66h30.648v-19.691h-3.155"></path>
<path fill="none" stroke="#c8ab90" style="stroke: var(--color1, #c8ab90)" stroke-linejoin="miter" stroke-linecap="butt" stroke-miterlimit="3.8637" stroke-width="1.4222" d="M0.925 31.289l15.178-11.801 15.167 11.801"></path>
<path fill="none" stroke="#c8ab90" style="stroke: var(--color1, #c8ab90)" stroke-linejoin="miter" stroke-linecap="butt" stroke-miterlimit="3.8637" stroke-width="1.4222" d="M26.579 16.602v-15.89h-18.945v17.797"></path>
<path fill="none" stroke="#c8ab90" style="stroke: var(--color1, #c8ab90)" stroke-linejoin="miter" stroke-linecap="butt" stroke-miterlimit="3.8637" stroke-width="1.4222" d="M0.711 11.701l9.814 9.814"></path>
<path fill="none" stroke="#c8ab90" style="stroke: var(--color1, #c8ab90)" stroke-linejoin="miter" stroke-linecap="butt" stroke-miterlimit="3.8637" stroke-width="1.4222" d="M31.362 11.701l-9.814 9.814"></path>
</symbol>
<symbol id="icon-timer" viewBox="0 0 30 32">
<path fill="none" stroke="#c8ab90" style="stroke: var(--color1, #c8ab90)" stroke-linejoin="miter" stroke-linecap="butt" stroke-miterlimit="3.8637" stroke-width="1.3617" d="M14.979 19.647c0.767 0 1.389-0.622 1.389-1.389s-0.622-1.389-1.389-1.389c-0.767 0-1.389 0.622-1.389 1.389s0.622 1.389 1.389 1.389z"></path>
<path fill="none" stroke="#c8ab90" style="stroke: var(--color1, #c8ab90)" stroke-linejoin="miter" stroke-linecap="butt" stroke-miterlimit="3.8637" stroke-width="1.3617" d="M15.068 9.088c5.016 0 9.082 4.106 9.082 9.171s-4.066 9.17-9.082 9.17c-2.537 0-4.849-1.051-6.48-2.744"></path>
<path fill="none" stroke="#c8ab90" style="stroke: var(--color1, #c8ab90)" stroke-linejoin="miter" stroke-linecap="butt" stroke-miterlimit="3.8637" stroke-width="1.3617" d="M14.979 31.318c7.213 0 13.061-5.848 13.061-13.061s-5.848-13.061-13.061-13.061c-7.214 0-13.061 5.848-13.061 13.061s5.848 13.061 13.061 13.061z"></path>
<path fill="none" stroke="#c8ab90" style="stroke: var(--color1, #c8ab90)" stroke-linejoin="miter" stroke-linecap="butt" stroke-miterlimit="3.8637" stroke-width="1.3617" d="M14.979 5.196c1.074 0 1.945-0.871 1.945-1.945s-0.871-1.945-1.945-1.945c-1.074 0-1.945 0.871-1.945 1.945s0.871 1.945 1.945 1.945z"></path>
<path fill="none" stroke="#c8ab90" style="stroke: var(--color1, #c8ab90)" stroke-linejoin="miter" stroke-linecap="butt" stroke-miterlimit="3.8637" stroke-width="1.3617" d="M1.362 7.624l2.929-2.983 1.517 1.546-2.849 2.901-1.598-1.463z"></path>
<path fill="none" stroke="#c8ab90" style="stroke: var(--color1, #c8ab90)" stroke-linejoin="miter" stroke-linecap="butt" stroke-miterlimit="3.8637" stroke-width="1.3617" d="M28.595 7.624l-2.929-2.983-1.517 1.546 2.848 2.901 1.598-1.463z"></path>
<path fill="none" stroke="#c8ab90" style="stroke: var(--color1, #c8ab90)" stroke-linejoin="miter" stroke-linecap="square" stroke-miterlimit="3.8637" stroke-width="1.3617" d="M8.588 24.65l5.28-5.28"></path>
</symbol>
<symbol id="icon-stylist" viewBox="0 0 32 32">
<path fill="none" stroke="#c8ab90" style="stroke: var(--color1, #c8ab90)" stroke-linejoin="miter" stroke-linecap="butt" stroke-miterlimit="3.8637" stroke-width="1.4884" d="M3.257 23.7c-1.411-2.288-2.201-4.978-2.201-7.855 0-8.339 6.761-15.1 15.1-15.1s15.1 6.76 15.1 15.1c0 2.916-0.826 5.638-2.257 7.946"></path>
<path fill="none" stroke="#c8ab90" style="stroke: var(--color1, #c8ab90)" stroke-linejoin="miter" stroke-linecap="butt" stroke-miterlimit="3.8637" stroke-width="1.4884" d="M0.734 23.702h2.547l0.666-2.932"></path>
<path fill="none" stroke="#c8ab90" style="stroke: var(--color1, #c8ab90)" stroke-linejoin="miter" stroke-linecap="butt" stroke-miterlimit="3.8637" stroke-width="1.4884" d="M31.255 23.718h-2.275l-0.617-2.948"></path>
<path fill="none" stroke="#c8ab90" style="stroke: var(--color1, #c8ab90)" stroke-linejoin="miter" stroke-linecap="butt" stroke-miterlimit="3.8637" stroke-width="1.4884" d="M10.851 12.091c0 0 1.377 0.313 1.377-0.72s0-1.227 0-1.227-0.157-1.002 1.133-1.002c1.29 0 3.925 0 3.925 0s1.446-0.025 1.947-1.189"></path>
<path fill="none" stroke="#c8ab90" style="stroke: var(--color1, #c8ab90)" stroke-linejoin="miter" stroke-linecap="round" stroke-miterlimit="3.8637" stroke-width="1.4884" d="M19.236 8.016v1.033c0 0 0.97-0.225 0.97 0.845s0 1.102 0 1.102c0 0-0.119 1.315 1.415 1.315v-5.083c0 0-0.219-2.103-1.885-2.103s-5.465 0-5.465 0-1.408-0.188-1.408 1.665c0 0-2.041-0.401-2.041 1.415s0 5.333 0 5.333"></path>
<path fill="none" stroke="#c8ab90" style="stroke: var(--color1, #c8ab90)" stroke-linejoin="miter" stroke-linecap="round" stroke-miterlimit="3.8637" stroke-width="1.4884" d="M21.044 14.173c0 2.923-2.166 5.603-4.837 5.603s-4.838-2.68-4.838-5.603"></path>
<path fill="none" stroke="#c8ab90" style="stroke: var(--color1, #c8ab90)" stroke-linejoin="miter" stroke-linecap="butt" stroke-miterlimit="3.8637" stroke-width="1.4884" d="M13.198 18.52v3.485l3.114 0.941 2.935-0.98v-3.445"></path>
<path fill="none" stroke="#c8ab90" style="stroke: var(--color1, #c8ab90)" stroke-linejoin="miter" stroke-linecap="butt" stroke-miterlimit="3.8637" stroke-width="1.4884" d="M13.198 21.926h-1.272l-1.804 1.843c0 0-3.193 0.409-4.7 2.739"></path>
<path fill="none" stroke="#c8ab90" style="stroke: var(--color1, #c8ab90)" stroke-linejoin="miter" stroke-linecap="butt" stroke-miterlimit="3.8637" stroke-width="1.4884" d="M19.289 21.885h1.020l1.86 1.726c0 0 3.115-0.023 4.857 2.974"></path>
<path fill="none" stroke="#c8ab90" style="stroke: var(--color1, #c8ab90)" stroke-linejoin="miter" stroke-linecap="round" stroke-miterlimit="3.8637" stroke-width="1.4884" d="M5.383 26.587c0 0 3.138 4.465 10.93 4.465s10.632-4.465 10.632-4.465"></path>
<path fill="none" stroke="#c8ab90" style="stroke: var(--color1, #c8ab90)" stroke-linejoin="miter" stroke-linecap="butt" stroke-miterlimit="3.8637" stroke-width="1.4884" d="M10.043 23.73l4.095 2.056 2.213-1.938 2.056 1.977 3.798-2.134"></path>
<path fill="none" stroke="#c8ab90" style="stroke: var(--color1, #c8ab90)" stroke-linejoin="miter" stroke-linecap="butt" stroke-miterlimit="3.8637" stroke-width="1.4884" d="M16.312 22.945v0.981"></path>
<path fill="none" stroke="#c8ab90" style="stroke: var(--color1, #c8ab90)" stroke-linejoin="miter" stroke-linecap="butt" stroke-miterlimit="3.8637" stroke-width="1.4884" d="M21.639 12.301v1.109l-0.58 0.77"></path>
<path fill="none" stroke="#c8ab90" style="stroke: var(--color1, #c8ab90)" stroke-linejoin="miter" stroke-linecap="butt" stroke-miterlimit="3.8637" stroke-width="1.4884" d="M10.827 13.456l0.54 0.769"></path>
</symbol>
<symbol id="icon-models" viewBox="0 0 44 32">
<path fill="none" stroke="#c8ab90" style="stroke: var(--color1, #c8ab90)" stroke-linejoin="miter" stroke-linecap="butt" stroke-miterlimit="3.8637" stroke-width="1.5238" d="M5.336 28.19l-0.002-25.786c0-0.907 0.613-1.642 1.37-1.642h31.546c0.756 0 1.37 0.735 1.37 1.642v25.692"></path>
<path fill="none" stroke="#c8ab90" style="stroke: var(--color1, #c8ab90)" stroke-linejoin="miter" stroke-linecap="butt" stroke-miterlimit="3.8637" stroke-width="1.5238" d="M22.138 28.757h3.184v-0.717h18.107v0.588c0 0 0.003 1.965-2.433 2.045-1.947 0.063-18.857 0-18.857 0"></path>
<path fill="none" stroke="#c8ab90" style="stroke: var(--color1, #c8ab90)" stroke-linejoin="miter" stroke-linecap="butt" stroke-miterlimit="3.8637" stroke-width="1.5238" d="M26.71 28.757h-6.71v-0.717h-19.238v0.588c0 0-0.003 1.965 2.585 2.045 2.069 0.063 23.363 0 23.363 0"></path>
<path fill="none" stroke="#c8ab90" style="stroke: var(--color1, #c8ab90)" stroke-linejoin="miter" stroke-linecap="butt" stroke-miterlimit="4" stroke-width="1.5238" d="M22.779 21.333h3.573v-7.593l2.68 1.34 2.233-2.68-4.020-4.020h-2.233c-0.149 0.744-0.983 2.233-3.126 2.233"></path>
<path fill="none" stroke="#c8ab90" style="stroke: var(--color1, #c8ab90)" stroke-linejoin="miter" stroke-linecap="butt" stroke-miterlimit="4" stroke-width="1.5238" d="M22.779 21.333h-4.913v-7.593l-2.68 1.34-2.233-2.68 4.020-4.020h2.233c0.149 0.744 0.983 2.233 3.126 2.233"></path>
</symbol>
<symbol id="icon-payment" viewBox="0 0 25 32">
<path fill="none" stroke="#c8ab90" style="stroke: var(--color1, #c8ab90)" stroke-linejoin="miter" stroke-linecap="butt" stroke-miterlimit="3.8637" stroke-width="1.3333" d="M16.666 24.957v-19.031h-14v21.259h14v-2.228z"></path>
<path fill="none" stroke="#c8ab90" style="stroke: var(--color1, #c8ab90)" stroke-linejoin="miter" stroke-linecap="butt" stroke-miterlimit="3.8637" stroke-width="1.3333" d="M8.623 29.296h1.851"></path>
<path fill="none" stroke="#c8ab90" style="stroke: var(--color1, #c8ab90)" stroke-linejoin="miter" stroke-linecap="butt" stroke-miterlimit="3.8637" stroke-width="1.3333" d="M18.815 24.95v3.93c0 1.355-1.118 2.453-2.497 2.453h-13.154c-1.379 0-2.497-1.098-2.497-2.453v-25.686c0-1.355 1.118-2.453 2.497-2.453h13.154c1.379 0 2.497 1.098 2.497 2.453v21.756z"></path>
<path fill="#b59475" style="fill: var(--color2, #b59475)" d="M7.333 2.815h4.667v1.037h-4.667v-1.037z"></path>
<path fill="#f2f1f0" style="fill: var(--color3, #f2f1f0)" d="M5.333 9.038h15.556v15.556h-15.556v-15.556z"></path>
<path fill="none" stroke="#c8ab90" style="stroke: var(--color1, #c8ab90)" stroke-linejoin="miter" stroke-linecap="butt" stroke-miterlimit="3.8637" stroke-width="1.3333" d="M5.333 10.965c0-0.206 0.15-0.372 0.335-0.372h17.998c0.185 0 0.335 0.166 0.335 0.372v11.7c0 0.206-0.15 0.372-0.335 0.372h-17.998c-0.185 0-0.335-0.166-0.335-0.372v-11.7z"></path>
<path fill="#b59475" style="fill: var(--color2, #b59475)" d="M5.852 12.667h18.148v1.037h-18.148v-1.037z"></path>
<path fill="#b59475" style="fill: var(--color2, #b59475)" d="M5.852 16.297h18.148v1.037h-18.148v-1.037z"></path>
<path fill="#b59475" style="fill: var(--color2, #b59475)" d="M6.889 18.37h5.704v1.037h-5.704v-1.037z"></path>
<path fill="none" stroke="#c8ab90" style="stroke: var(--color1, #c8ab90)" stroke-linejoin="miter" stroke-linecap="butt" stroke-miterlimit="3.8637" stroke-width="1.3333" d="M21.927 18.889h-7.778v2.074h7.778v-2.074z"></path>
</symbol>
</defs>
</svg>
