<?xml version="1.0" standalone="no"?>
<!DOCTYPE svg PUBLIC "-//W3C//DTD SVG 20010904//EN"
 "http://www.w3.org/TR/2001/REC-SVG-20010904/DTD/svg10.dtd">
<svg version="1.0" xmlns="http://www.w3.org/2000/svg"
 width="832.000000pt" height="832.000000pt" viewBox="0 0 832.000000 832.000000"
 preserveAspectRatio="xMidYMid meet">
<metadata>
Created by potrace 1.14, written by Peter Selinger 2001-2017
</metadata>
<g transform="translate(0.000000,832.000000) scale(0.100000,-0.100000)"
fill="#000000" stroke="none">
<path d="M800 8269 c0 -45 15 -79 35 -79 3 0 52 -26 108 -59 56 -32 125 -71
152 -86 28 -15 75 -43 106 -61 31 -19 62 -34 68 -34 6 0 11 -4 11 -10 0 -5 4
-10 9 -10 5 0 80 -40 167 -90 86 -49 161 -90 166 -90 4 0 8 -5 8 -11 0 -5 4
-8 9 -4 5 3 12 1 16 -5 3 -5 21 -17 40 -26 l35 -16 0 -3450 c0 -2746 -3 -3452
-12 -3462 -7 -7 -28 -19 -45 -27 -18 -7 -33 -17 -33 -21 0 -5 -5 -8 -11 -8 -6
0 -41 -17 -77 -39 -130 -75 -167 -95 -172 -96 -3 0 -16 -8 -30 -16 -21 -14
-143 -83 -420 -237 -138 -77 -125 -64 -128 -126 l-3 -56 3107 2 3108 3 2 25
c1 14 5 45 9 70 4 25 8 56 10 70 2 14 5 39 8 55 3 17 8 52 12 78 4 27 8 56 10
65 1 10 6 40 10 67 3 28 9 66 12 85 2 19 6 46 8 60 2 14 5 39 8 55 3 17 9 55
12 85 4 30 9 62 10 70 3 19 16 105 21 145 2 17 8 57 13 90 6 33 13 78 15 100
6 50 16 112 22 145 3 14 7 45 10 70 2 25 9 70 14 100 5 30 12 75 15 100 8 67
17 132 22 155 3 11 6 37 8 59 2 21 7 50 10 65 4 14 8 42 10 61 2 19 8 67 14
105 14 94 14 95 -11 95 -21 0 -64 -19 -45 -20 5 0 2 -6 -5 -14 -7 -8 -69 -96
-138 -196 -69 -99 -146 -211 -172 -248 -26 -37 -52 -74 -58 -82 -5 -8 -35 -50
-65 -93 -30 -42 -55 -82 -55 -87 0 -6 -4 -10 -8 -10 -4 0 -16 -15 -27 -32 -10
-18 -23 -37 -28 -43 -4 -5 -35 -48 -67 -95 -32 -47 -62 -89 -67 -95 -4 -5 -26
-37 -48 -70 -22 -33 -44 -65 -50 -72 -5 -6 -35 -48 -65 -93 -30 -44 -85 -124
-122 -176 -38 -52 -68 -99 -68 -104 0 -4 -4 -10 -8 -12 -5 -2 -52 -67 -106
-145 -54 -79 -100 -144 -104 -144 -4 -1 -690 -2 -1524 -3 -1011 -1 -1519 2
-1521 9 -2 5 -3 865 -3 1910 l1 1900 862 1 862 2 42 -67 c112 -175 176 -275
240 -374 38 -59 69 -112 69 -117 0 -6 5 -10 10 -10 6 0 10 -5 10 -10 0 -6 15
-32 33 -58 18 -26 75 -114 127 -197 52 -82 98 -152 102 -153 4 -2 8 -9 8 -16
0 -8 12 -27 28 -43 21 -25 34 -30 64 -29 20 1 40 4 43 8 4 3 6 39 5 80 -1 86
-2 77 2 156 2 34 -1 62 -5 62 -5 0 -6 4 -2 9 3 5 5 31 5 58 0 26 0 57 0 68 0
11 0 56 -1 100 0 44 0 86 0 93 0 6 0 46 0 87 0 97 0 90 3 163 2 34 -1 62 -5
62 -5 0 -6 4 -2 9 3 5 5 31 5 58 0 26 0 57 0 68 0 11 0 56 -1 100 0 44 0 86 0
93 0 6 0 46 0 87 0 97 0 90 3 163 2 34 -1 62 -5 62 -5 0 -6 4 -2 9 3 5 5 31 5
58 0 26 0 57 0 68 0 11 0 56 -1 100 0 44 0 86 0 93 0 6 0 46 0 87 0 97 0 90 3
163 2 34 1 62 -2 62 -3 0 -5 30 -5 67 l0 68 -45 0 -45 0 -142 -215 c-78 -118
-146 -220 -151 -225 -5 -6 -11 -15 -13 -20 -4 -10 -132 -205 -291 -446 l-91
-137 -861 2 -861 1 0 1805 0 1805 1329 0 1329 0 20 -35 c11 -19 37 -69 59
-110 22 -41 58 -108 79 -147 22 -40 58 -108 80 -150 23 -43 54 -100 69 -128
15 -27 45 -84 67 -125 22 -41 75 -140 118 -220 42 -80 94 -176 115 -215 21
-38 46 -86 57 -105 21 -37 136 -254 175 -330 13 -25 26 -47 29 -50 3 -3 18
-30 33 -60 69 -138 80 -155 106 -155 l25 0 2 1038 2 1037 -2914 0 -2915 0 0
-51z"/>
</g>
</svg>
